<?xml version="1.0" encoding="UTF-8"?>
<svg id="Layer_1" data-name="Layer 1" xmlns="http://www.w3.org/2000/svg" xmlns:xlink="http://www.w3.org/1999/xlink" viewBox="0 0 364.63 141.22">
  <defs>
    <style>
      .cls-1 {
        stroke: #333;
        stroke-linecap: round;
        stroke-linejoin: round;
        stroke-width: .71px;
      }

      .cls-1, .cls-2 {
        fill: none;
      }

      .cls-3 {
        clip-path: url(#clippath-1);
      }

      .cls-4 {
        isolation: isolate;
      }

      .cls-5 {
        clip-path: url(#clippath);
      }
    </style>
    <clipPath id="clippath">
      <rect class="cls-2" width="364.63" height="141.22"/>
    </clipPath>
    <clipPath id="clippath-1">
      <rect class="cls-2" width="365" height="142"/>
    </clipPath>
  </defs>
  <g class="cls-4">
    <g class="cls-5">
      <g class="cls-3">
        <path class="cls-1" d="M276.16,109.81c0-2.32,1.89-4.21,4.21-4.21s4.21,1.89,4.21,4.21-1.89,4.21-4.21,4.21-4.21-1.89-4.21-4.21Z"/>
        <path class="cls-1" d="M249.32,109.81c0-17.15,13.9-31.06,31.05-31.06s31.05,13.91,31.05,31.06-13.9,31.05-31.05,31.05-31.05-13.9-31.05-31.05Z"/>
        <path class="cls-1" d="M260.65,109.81c0-10.89,8.83-19.72,19.72-19.72s19.72,8.83,19.72,19.72-8.83,19.72-19.72,19.72-19.72-8.83-19.72-19.72Z"/>
        <path class="cls-1" d="M242.06,107.47c2.83-8.9,6.39-17.56,10.66-25.87,1.41-2.75,3.36-5.19,5.72-7.18,3.09-2.6,6.96-4.08,11-4.19,6.58-.19,13.17-.24,19.75-.13,1.85.03,3.69.12,5.53.3,4.54.43,8.59,3.07,10.8,7.06,5.62,10.11,9.62,21.04,11.88,32.39"/>
        <path class="cls-1" d="M234.91,107.32c2.83-11.05,7.1-21.68,12.69-31.62,1.07-1.89,2.29-3.7,3.65-5.4,2.6-3.25,6.4-5.31,10.54-5.69,12-1.12,24.06-1.35,36.09-.71,5.62.3,10.69,3.46,13.42,8.38,6.27,11.29,10.61,23.55,12.85,36.27"/>
        <path class="cls-1" d="M237.1,107.57c2.53-9.84,6.25-19.34,11.09-28.28.83-1.53,1.76-3.01,2.79-4.42,2.32-3.19,5.92-5.22,9.86-5.56,10.95-.95,21.95-1.18,32.92-.68,2.66.12,5.27.79,7.67,1.96,2.47,1.21,4.54,3.12,5.94,5.48,6.12,10.37,10.3,21.77,12.33,33.63"/>
        <path class="cls-1" d="M36.26,106.63v-2.27c0-2.75.34-5.5,1.02-8.17,1.3-5.13,3.36-10.04,6.1-14.57,1.5-2.46,3.43-4.64,5.69-6.43,2.47-1.94,5.46-3.09,8.59-3.3,7.7-.51,15.43-.62,23.14-.32,5.81.22,11.07,3.5,13.83,8.62,1.71,3.19,3.32,6.43,4.82,9.73,3.16,6.92,5.45,14.21,6.81,21.69"/>
        <path class="cls-1" d="M31.83,106.58v-5.41c0-2.26.32-4.52.97-6.69,2-6.78,5.16-13.16,9.33-18.86,1.32-1.81,3.13-3.2,5.22-4.02,1.72-.68,3.53-1.11,5.38-1.29,9.9-.94,19.86-1.09,29.78-.44,5.57.36,10.57,3.56,13.25,8.46,5.63,10.33,9.68,21.44,12.03,32.96"/>
        <path class="cls-1" d="M30.18,106.16v-5.71c0-2.04.27-4.07.81-6.03,2.21-8.02,6.03-15.52,11.25-22.01,2.36-2.94,5.82-4.79,9.58-5.12,11.1-.97,22.25-1.28,33.39-.92,2.06.07,4.09.37,6.08.91,1.63.44,3.14,1.25,4.41,2.37,1.82,1.61,3.43,3.45,4.78,5.47,5.97,10.08,10.16,21.12,12.36,32.63"/>
        <path class="cls-1" d="M114.53,43.96c6.86-9.46,14.52-18.31,22.91-26.45,2.58-2.52,5.91-4.13,9.48-4.61,8.96-1.19,17.99-1.88,27.04-2.05,23.73-.45,47.47-.78,71.21-.98,3.75-.04,7.22,1.93,9.12,5.16,5.33,8.23,9.88,16.94,13.6,26.02,1.04,2.54,1.72,5.2,2.04,7.93.45,3.9.71,7.82.78,11.75v9.47"/>
        <path class="cls-1" d="M127.33,31.66c3.61-4.45,7.34-8.8,11.19-13.04,2.35-2.28,5.37-3.75,8.61-4.18,8.91-1.18,17.88-1.86,26.86-2.04,7.21-.14,14.42-.26,21.63-.38"/>
        <path class="cls-1" d="M205.26,11.88c13.3-.19,26.61-.34,39.91-.46,3.2-.03,6.17,1.66,7.79,4.43,5.29,8.16,9.8,16.79,13.48,25.79.07.16.13.32.19.49"/>
        <line class="cls-1" x1="111.72" y1="102.68" x2="236.2" y2="102.68"/>
        <path class="cls-1" d="M114.53,43.96l-.18.25c-.42.58-.78,1.19-1.08,1.84-1.29,2.8-2.07,5.8-2.31,8.87-.44,5.6-.66,11.22-.68,16.84,0,2.3.09,4.6.28,6.89.61,7.06,1.74,14.06,3.39,20.95.24,1,.49,1.99.74,2.98.01.05.05.09.1.09"/>
        <line class="cls-1" x1="110.81" y1="99.19" x2="237.28" y2="99.19"/>
        <path class="cls-1" d="M112.76,47.23c52.01-1.07,104.03-2.27,156.04-3.61"/>
        <path class="cls-1" d="M131.54,45.29c45.58-.96,91.16-2.04,136.75-3.21"/>
        <path class="cls-1" d="M200.7,10.4c-1.78,14.73-3.46,29.46-5.05,44.21-.3,2.79-.51,5.58-.64,8.38-.45,9.68-.27,19.38.55,29.03.3,3.52.93,7.01,1.89,10.41.04.13.14.22.27.25"/>
        <path class="cls-1" d="M124.53,90.92h97.15c.88,0,1.75.19,2.55.55,4.52,2.06,9.05,4.1,13.58,6.14"/>
        <path class="cls-1" d="M124.53,90.92h-.68c-1.2,0-2.39.21-3.52.62l-10.31,5"/>
        <path class="cls-1" d="M107.9,40.34c7.35-8.34,15.23-16.18,23.61-23.49,1.65-1.44,3.34-2.82,5.09-4.14,1.55-1.18,3.3-2.06,5.16-2.61,1.33-.39,2.69-.67,4.06-.83,12.02-1.42,24.11-2.22,36.21-2.4,45.58-.67,91.16-.97,136.75-.88,6.27.01,12.53.02,18.8.03"/>
        <path class="cls-1" d="M189.92,44l5.54-30.98c.15-.84.27-1.69.34-2.55"/>
        <path class="cls-1" d="M203.59,43.68l1.65-31.46c.03-.63.07-1.26.12-1.89"/>
        <path class="cls-1" d="M331.03,42.96h17.01c.17,0,.33.08.43.22,1.04,1.53,2.07,3.07,3.09,4.61.3.46.48,1,.5,1.55v14.32"/>
        <line class="cls-1" x1="333.13" y1="52.8" x2="345.02" y2="62.85"/>
        <path class="cls-1" d="M351.55,63.77h-4.16c-.88,0-1.73-.33-2.38-.92"/>
        <path class="cls-1" d="M351.55,63.77h.41c.05,0,.09-.04.09-.09"/>
        <path class="cls-1" d="M333.13,52.8l-.39-.34c-.42-.35-.71-.83-.84-1.36-.46-1.96-.69-3.97-.66-5.99,0-.58.47-1.06,1.05-1.08h16.63c.07,0,.15.03.19.1"/>
        <line class="cls-1" x1="286.89" y1="34.11" x2="273.06" y2="13.23"/>
        <line class="cls-1" x1="290.66" y1="32.87" x2="279.61" y2="16.2"/>
        <path class="cls-1" d="M311.8,40.21h-14.8c-2.22,0-4.39-.71-6.18-2.03-1.53-1.13-2.86-2.5-3.92-4.07"/>
        <path class="cls-1" d="M312.31,37.23h-14.8c-1.39,0-2.75-.45-3.87-1.27-1.17-.86-2.19-1.92-3.01-3.12"/>
        <path class="cls-1" d="M311.44,9.98h-32.73c-1.36,0-2.72.09-4.07.26-1.13.15-1.93,1.18-1.79,2.31.03.23.1.46.21.67"/>
        <line class="cls-1" x1="311.44" y1="13.89" x2="282.02" y2="13.89"/>
        <path class="cls-1" d="M333.55,31.79l-11.99-16.62c-2.35-3.25-6.11-5.18-10.12-5.18"/>
        <path class="cls-1" d="M328.29,31.16l-9.89-13.71c-1.61-2.24-4.2-3.57-6.96-3.57"/>
        <path class="cls-1" d="M311.8,40.21h6.35c1.93,0,3.85-.08,5.77-.24.97-.08,1.91-.33,2.8-.72,1.52-.68,2.93-1.57,4.2-2.64.77-.65,1.53-1.32,2.27-2,.79-.73.94-1.92.36-2.82"/>
        <path class="cls-1" d="M320.43,109.52l19.65-5.07c2.49-.64,5.04-1.01,7.61-1.09,1.35-.04,2.7-.08,4.05-.11.53-.01,1.06-.02,1.59-.03.44,0,.86-.14,1.23-.38.81-.53,1.62-1.07,2.41-1.63,1-.69,1.68-1.75,1.91-2.94.26-1.34.5-2.68.72-4.02.06-.35.35-.61.7-.63h3"/>
        <path class="cls-1" d="M352.24,103.22c1.43-.88,2.84-1.81,4.22-2.77.8-.56,1.36-1.41,1.54-2.38.25-1.33.5-2.66.71-4,.13-.78.79-1.36,1.57-1.39h3.02"/>
        <path class="cls-1" d="M349.07,71.63l-15.21-14.11c-.87-.81-1.67-1.69-2.39-2.63-.52-.69-.89-1.48-1.07-2.32-.59-2.64-.91-5.33-.96-8.03v-.07c.03-.86.74-1.53,1.6-1.51"/>
        <line class="cls-1" x1="352.05" y1="63.68" x2="352.05" y2="65.62"/>
        <path class="cls-1" d="M282.02,13.89h-1.12c-.61,0-1.17.36-1.41.92-.2.45-.15.98.13,1.39"/>
        <path class="cls-1" d="M312.31,37.23h2.88c.95,0,1.89-.02,2.84-.06,1.56-.06,3.1-.37,4.57-.9,1.84-.67,3.58-1.57,5.18-2.69.78-.55,1.01-1.61.52-2.42"/>
        <line class="cls-1" x1="218.34" y1="1.54" x2="301.09" y2="1.54"/>
        <line class="cls-1" x1="218.34" y1="4.68" x2="301.09" y2="4.68"/>
        <path class="cls-1" d="M217.89,1.09h-11.28c-.93,0-1.84.26-2.63.75-1.98,1.22-3.78,2.69-5.39,4.38-.11.12-.18.27-.18.43"/>
        <path class="cls-1" d="M218.34,4.72V1.54c0-.25-.2-.45-.45-.45"/>
        <path class="cls-1" d="M217.08,6.43l1.11-1.41.09-.12c.04-.05.06-.11.06-.18"/>
        <path class="cls-1" d="M301.55,1.09h11.29c.93,0,1.84.26,2.63.75,1.32.7,2.48,1.67,3.4,2.85"/>
        <path class="cls-1" d="M301.09,4.72V1.54c0-.25.21-.45.45-.45"/>
        <path class="cls-1" d="M302,5.97l-.75-.96s-.06-.08-.09-.11c-.04-.05-.06-.11-.06-.18"/>
        <path class="cls-1" d="M318.87,4.69l.25.33c.21.28.34.62.35.97"/>
        <path class="cls-1" d="M10.05,55.24c2.5-2.48,5.57-4.3,8.94-5.31,2.72-.82,5.51-1.39,8.34-1.72,10.61-1.21,21.23-2.32,31.86-3.32,8.32-.78,16.64-1.57,24.97-2.37,1.84-.18,3.69-.17,5.52.01,2.46.25,4.92.52,7.38.79,2.1.24,4.23.14,6.3-.3,1.77-.38,3.37-1.32,4.55-2.69"/>
        <path class="cls-1" d="M94.4,43.04c12.66-11.59,26.09-22.31,40.19-32.1,2.46-1.71,5.32-2.8,8.3-3.17,9.83-1.21,19.72-1.96,29.62-2.25,9.08-.27,18.16-.42,27.25-.46"/>
        <path class="cls-1" d="M132.52,12.4l2.35,1.39c.08.05.1.14.05.22"/>
        <line class="cls-1" x1="135" y1="10.67" x2="137.55" y2="12.04"/>
        <path class="cls-1" d="M114.22,44.39c-2.09-1.48-4.38-2.67-6.8-3.54"/>
        <path class="cls-1" d="M131.79,44.44v-6.45c0-1.35-.39-2.66-1.11-3.8-.22-.34-.58-.55-.99-.56-.95-.03-1.9,0-2.85.09-.76.08-1.51.28-2.21.6-2.67,1.22-4.8,3.38-5.98,6.07-.18.4-.27.84-.27,1.27,0,.31.04.61.1.9"/>
        <path class="cls-1" d="M119.1,43.96c.18.27.39.5.63.71.34.31.74.53,1.17.66,1.22.36,2.49.55,3.76.56,1.92,0,3.84,0,5.76-.02.76,0,1.38-.63,1.37-1.39v-.03"/>
        <path class="cls-1" d="M127.33,31.66l-.24.29c-.19.24-.3.54-.29.85v.93"/>
        <line class="cls-1" x1="124.39" y1="31.43" x2="127.51" y2="31.43"/>
        <path class="cls-1" d="M131.79,40.95c-4.79.04-9.57.66-14.21,1.84-.19.05-.39.11-.57.18-.12.05-.21.16-.22.29-.06.71-.04,1.43.06,2.14.04.26.23.48.48.55.84.24,1.71.36,2.58.34h3.13c.4,0,.79-.16,1.07-.44"/>
        <path class="cls-1" d="M131.79,41.83h-.21c-.9,0-1.8.04-2.69.12-2.89.26-5.75.78-8.55,1.56-1.29.36-2.49,1.01-3.49,1.9"/>
        <path class="cls-1" d="M131.79,39.69c-1.9.02-3.79.13-5.68.35-.27.02-.53.1-.76.24-.61.36-1.16.79-1.66,1.29"/>
        <path class="cls-1" d="M131.79,38.83h-1.22c-2.6,0-5.2.18-7.77.54-1.26.18-2.45.73-3.4,1.57-.48.43-.8,1-.91,1.62"/>
        <path class="cls-1" d="M131.79,37.95h-1.21c-2.64,0-5.28.18-7.9.55-1.43.2-2.78.83-3.86,1.79-.06.06-.13.12-.19.18"/>
        <path class="cls-1" d="M9.34,57.5c5.84-1.6,11.77-2.89,17.76-3.84.6-.09,1.2-.15,1.81-.16h8.08c.29,0,.56.2.63.48.05.18.07.36.06.55-.06,1.53-.2,3.05-.4,4.57-.1.75-.39,1.46-.84,2.06-.61.82-1.37,1.53-2.23,2.07-.37.23-.76.42-1.16.57-1.33.48-2.62,1.04-3.89,1.68-.66.34-1.3.72-1.91,1.16-.84.6-1.85.94-2.88.97-1.46.04-2.93.04-4.39,0-.41-.01-.82-.15-1.15-.39-.68-.5-1.37-1-2.05-1.5-.28-.21-.62-.33-.97-.34h-6.43c-.09,0-.17-.07-.17-.17-.05-2.47-.07-4.94-.07-7.41,0-.13.08-.24.2-.28"/>
        <path class="cls-1" d="M50.42,74.25h-12.88c-2.31,0-4.6-.31-6.82-.92-.52-.14-.98-.44-1.31-.87-.3-.39-.55-.81-.74-1.26-.62-1.43-1.24-2.86-1.87-4.29"/>
        <line class="cls-1" x1="111.72" y1="102.68" x2="104.16" y2="102.68"/>
        <line class="cls-1" x1="112.35" y1="105.39" x2="235.43" y2="105.39"/>
        <path class="cls-1" d="M245.77,48.73l-198.14,5.01c-2.27.06-4.55.18-6.82.38-.37.03-.74.13-1.07.28-.74.34-1.45.76-2.11,1.24"/>
        <path class="cls-1" d="M224.46,91.57c1.1-7.53,2.82-14.96,5.16-22.21,1.16-3.62,2.49-7.18,3.96-10.68.48-1.14,1.05-2.24,1.72-3.28,1.53-2.41,3.8-4.25,6.47-5.26,1.32-.5,2.66-.91,4.03-1.24.05-.01.07-.06.06-.11,0-.04-.05-.07-.09-.07"/>
        <line class="cls-1" x1="329.53" y1="46.66" x2="312.45" y2="46.66"/>
        <path class="cls-1" d="M270.41,54.19h22.69c2.95,0,5.91-.21,8.83-.62,3.5-.49,6.98-1.15,10.42-1.97,2.36-.56,4.54-1.68,6.39-3.25.21-.18.24-.51.05-.72-.05-.06-.12-.11-.2-.14-.1-.04-.21-.06-.32-.06-1.96-.06-3.91-.29-5.83-.69-.02,0-.03-.01-.03-.03,0-.02.01-.04.04-.04"/>
        <path class="cls-1" d="M10.89,57.08c-.01-.29-.03-.57-.05-.85-.01-.12-.07-.22-.17-.28-.22-.14-.43-.3-.62-.47,0,0,0,0,0,0-.06-.07-.06-.17,0-.24"/>
        <path class="cls-1" d="M30.72,53.5c1.08-1.08,2.41-1.88,3.87-2.34,1.43-.44,2.91-.75,4.41-.89,13.38-1.31,26.76-2.62,40.14-3.92,3.32-.33,6.64-.58,9.96-.76,2.98-.16,5.9-.91,8.59-2.19"/>
        <path class="cls-1" d="M10.78,56.07l.55-.42c1.36-1.05,2.86-1.9,4.46-2.5,1.47-.56,2.97-1.01,4.5-1.36,4.1-.93,8.26-1.63,12.44-2.1,16.66-1.86,33.32-3.66,50-5.41,1.25-.13,2.49-.39,3.7-.78.48-.15.81-.59.84-1.09"/>
        <path class="cls-1" d="M10.78,56.07c1.71-1.53,3.53-2.92,5.46-4.17,1.03-.67,2.14-1.21,3.29-1.61,3.08-1.07,6.26-1.83,9.48-2.27"/>
        <path class="cls-1" d="M78.09,43.11c-8.08-.24-16.17-.32-24.25-.23-.99.01-1.97.16-2.91.44-1.96.58-3.77,1.58-5.32,2.91"/>
        <path class="cls-1" d="M50.14,45.77c1.17-.55,2.24-1.3,3.16-2.21.17-.17.17-.45,0-.62-.02-.02-.03-.03-.04-.04"/>
        <path class="cls-1" d="M350.59,43.75h1.59c.23,0,.45.1.6.27l3.44,3.42"/>
        <line class="cls-1" x1="356.61" y1="69.55" x2="356.61" y2="48.02"/>
        <path class="cls-1" d="M356.22,47.44l.27.27c.08.08.12.19.12.3"/>
        <path class="cls-1" d="M318.67,4.45c5.94.11,11.88.47,17.79,1.08.48.05.93.28,1.25.64.54.61,1.11,1.18,1.71,1.73.18.16.4.29.64.35.67.18,1.33.36,2,.55.57.16.99.66,1.05,1.25.01.11-.03.22-.11.3-.55.55-1.1,1.12-1.64,1.69-.18.19-.43.28-.69.27-.9-.07-1.8-.08-2.7-.01-.96.07-1.91.32-2.78.75-.62.31-1.24.62-1.86.94-.17.09-.36.14-.55.16l-6.65.3"/>
        <path class="cls-1" d="M342.89,42.96c-.86-4.56-2.65-8.88-5.28-12.7-4.1-5.97-8.37-11.82-12.79-17.55-1.23-1.59-2.25-3.34-3.04-5.19-.2-.48-.3-1-.28-1.53.02-.49.03-.98.05-1.48"/>
        <path class="cls-1" d="M331.3,14.21c4.49,5.61,8.85,11.31,13.08,17.12.66.91,1.26,1.87,1.77,2.87,1.58,3.06,3,6.21,4.24,9.43.03.07.1.12.19.12"/>
        <path class="cls-1" d="M332.95,14.12c4.47,5.24,8.7,10.67,12.69,16.29.71.97,1.34,2,1.9,3.07,1.72,3.33,3.25,6.76,4.57,10.27"/>
        <path class="cls-1" d="M326.16,14.45c3.09-1.28,6.23-2.42,9.43-3.39.99-.3,2.01-.49,3.04-.57,1.49-.11,2.98-.21,4.47-.29"/>
        <path class="cls-1" d="M352.05,65.62h-4.24c-1.01,0-2-.34-2.79-.96-4.49-3.52-8.85-7.21-13.07-11.04-.69-.63-1.18-1.45-1.42-2.36-.18-.71-.33-1.44-.43-2.18-.24-1.8-.38-3.61-.43-5.41"/>
        <path class="cls-1" d="M301.85,73.19c3.55-.09,7.1-.18,10.65-.29,1.68-.05,3.36-.12,5.04-.21,2.69-.15,5.38-.23,8.08-.24,3.25-.01,6.49-.12,9.72-.33.68-.04,1.34-.2,1.96-.48,1.19-.52,2-1.66,2.09-2.96.12-1.63.32-3.25.6-4.86.05-.29.16-.58.3-.84.27-.48.55-.97.83-1.45"/>
        <path class="cls-1" d="M320.43,109.52l-.54.14c-.19.05-.38.09-.58.11-.59.07-1.18.12-1.78.14-.05,0-.11-.03-.13-.08"/>
        <line class="cls-1" x1="354.12" y1="45.35" x2="356.85" y2="45.35"/>
        <path class="cls-1" d="M359.85,56.21v-1.42c0-.67-.11-1.34-.31-1.98-.79-2.39-1.56-4.79-2.33-7.2-.05-.16-.2-.26-.36-.26"/>
        <path class="cls-1" d="M356.61,56.33h3.13c.06,0,.11-.05.11-.11v-.02"/>
        <path class="cls-1" d="M321.39,96.59c7.81-1.72,15.66-3.27,23.55-4.63.31-.06.58-.27.71-.57.63-1.51,1.24-3.03,1.84-4.56.58-1.5.98-3.06,1.18-4.65.19-1.46.29-2.93.3-4.41,0-.79.05-1.58.12-2.37.1-1.04.18-2.07.23-3.11.01-.25-.08-.48-.25-.66"/>
        <path class="cls-1" d="M321.62,97.38c7.78-1.72,15.61-3.26,23.46-4.62.59-.1,1.09-.5,1.33-1.06.63-1.51,1.25-3.04,1.84-4.57.09-.22.17-.44.25-.66"/>
        <line class="cls-1" x1="250.82" y1="13.37" x2="249.75" y2="42.55"/>
        <line class="cls-1" x1="252.04" y1="14.54" x2="251.01" y2="42.52"/>
        <line class="cls-1" x1="44.2" y1="60.41" x2="110.56" y2="58.18"/>
        <path class="cls-1" d="M44.2,60.41l-.78.03c-1.21.04-2.41.13-3.61.26-.08.01-.16-.01-.21-.07-.1-.1-.11-.27,0-.37.52-.56,1.16-1,1.85-1.32,4.39-1.96,9.08-3.18,13.87-3.6,11.22-.98,22.47-1.37,33.73-1.14,4.09.09,8.17.3,12.25.65,3.31.28,6.5,1.3,9.36,2.98.06.03.09.09.09.16,0,.1-.08.18-.18.17"/>
        <path class="cls-1" d="M10.66,97.55l7.32-6.89c.73-.69,1.29-1.54,1.63-2.48.38-1.05.59-2.15.61-3.26.1-4.34.16-8.67.18-13.01,0-.86-.27-1.7-.77-2.41-.17-.23-.36-.45-.57-.64-.92-.84-1.89-1.63-2.88-2.38-.54-.4-1.1-.78-1.68-1.12"/>
        <path class="cls-1" d="M357.46,99.43l-5.4-3.42c-.2-.13-.31-.36-.29-.59.2-2.23.36-4.46.49-6.69,0-.12-.05-.23-.14-.29l-3.35-2.06c-.09-.05-.2-.03-.25.06,0,0-.01.02-.02.03"/>
        <path class="cls-1" d="M363.32,93.6h.33c.23,0,.43.14.51.36.08.24.12.49.12.75,0,2.09-.24,4.18-.7,6.21-.2.89-.68,1.7-1.36,2.32-.55.49-1.16.92-1.82,1.27-1.33.71-2.71,1.32-4.14,1.82-.34.12-.71.09-1.04-.08-.39-.21-.82-.33-1.27-.34h-4.8"/>
        <path class="cls-1" d="M317.11,120.99l-2.33-14.7c-.61-3.79-1.5-7.53-2.7-11.18-.55-1.68-1.12-3.36-1.7-5.03-.05-.16-.11-.31-.16-.47-.03-.08.01-.18.09-.21.27-.12.54-.23.81-.33"/>
        <path class="cls-1" d="M317.4,109.84l1.56,7.89.62,3.11s0,.02,0,.03c.04.26-.15.5-.41.54-.49.06-.98.09-1.48.08-.29,0-.53-.21-.58-.49"/>
        <line class="cls-1" x1="311.23" y1="113.37" x2="315.82" y2="112.83"/>
        <path class="cls-1" d="M317.95,112.58l23.56-2.75c1.36-.16,2.63-.76,3.62-1.71.55-.53.9-1.26.96-2.03.06-.88.09-1.77.08-2.65"/>
        <path class="cls-1" d="M344.28,108.8l4.6,2.56c.09.05.2.03.27-.04,1.03-1.01,2.05-2.03,3.07-3.05.04-.03.04-.09,0-.12,0,0,0,0-.01-.01-1.04-.72-2.05-1.48-3.05-2.25-.46-.36-.91-.73-1.35-1.12-.52-.46-1.07-.87-1.64-1.25"/>
        <path class="cls-1" d="M363.32,92.69h.07c.06,0,.11.03.15.07.27.36.48.76.62,1.19"/>
        <path class="cls-1" d="M353.5,85.99l2.91,1.96c.17.11.3.28.37.46.28.71.52,1.44.72,2.18.06.23.26.41.5.44.27.04.54.09.82.14,1.09.19,2.18.45,3.25.77.52.16,1.01.42,1.42.78"/>
        <line class="cls-1" x1="352.22" y1="88.57" x2="356.78" y2="88.41"/>
        <path class="cls-1" d="M356.41,87.95c1.72-2.49,2.73-5.4,2.91-8.43.06-.99.1-1.98.11-2.97v-3.92c0-.43-.09-.86-.28-1.26-.84-1.84-1.69-3.68-2.55-5.51"/>
        <path class="cls-1" d="M352.05,52.02h-19.25c-.32,0-.61-.18-.75-.46"/>
        <line class="cls-1" x1="336.58" y1="52.02" x2="345.33" y2="59.41"/>
        <path class="cls-1" d="M352.05,60.34h-4.35c-.88,0-1.73-.33-2.38-.92"/>
        <line class="cls-1" x1="348.81" y1="60.34" x2="348.81" y2="52.02"/>
        <path class="cls-1" d="M348.81,56.69h-6.19c-.3,0-.59-.09-.83-.27"/>
        <path class="cls-1" d="M349.44,86.05l3.78-.08c.11,0,.21-.07.25-.17.21-.5.38-1.03.49-1.57.78-3.71,1.3-7.47,1.57-11.25.04-.54-.04-1.08-.23-1.59-.12-.32-.28-.62-.46-.91-.89-1.4-1.75-2.82-2.57-4.26-.11-.19-.18-.39-.21-.61"/>
        <line class="cls-1" x1="349.27" y1="71.93" x2="355.45" y2="71.93"/>
        <line class="cls-1" x1="355.5" y1="72.18" x2="359.4" y2="72.18"/>
        <path class="cls-1" d="M349.44,86.05h-.42c-.18.01-.34.1-.43.25-.03.05-.06.1-.08.15"/>
        <line class="cls-1" x1="352.05" y1="50.21" x2="350.8" y2="50.21"/>
        <path class="cls-1" d="M350.73,46.56v3.59s.04.07.08.07"/>
        <path class="cls-1" d="M347.52,104.53h5.38c.97,0,1.93-.23,2.8-.67,1.14-.58,2.28-1.19,3.4-1.82.9-.5,1.61-1.29,2.02-2.23.38-.86.65-1.77.8-2.7.11-.63.18-1.26.22-1.89.03-.42.09-.83.2-1.23.06-.23.27-.38.5-.38"/>
        <line class="cls-1" x1="243.03" y1="104.52" x2="249.78" y2="104.52"/>
        <line class="cls-1" x1="310.91" y1="104.16" x2="314.41" y2="104.16"/>
        <line class="cls-1" x1="357.84" y1="108.3" x2="363.75" y2="108.3"/>
        <path class="cls-1" d="M363.95,104.09v4.03c0,.1-.09.18-.2.18"/>
        <path class="cls-1" d="M361.34,103.93h2.42c.1,0,.18.07.18.16"/>
        <line class="cls-1" x1="357.84" y1="108.3" x2="355.52" y2="108.3"/>
        <path class="cls-1" d="M352.22,108.15h1.88c.18,0,.35.02.52.06.3.06.6.09.9.09"/>
        <line class="cls-1" x1="359.64" y1="109.02" x2="362.62" y2="109.02"/>
        <path class="cls-1" d="M362.71,108.3v.63c0,.05-.04.09-.09.09"/>
        <path class="cls-1" d="M359.55,108.3v.63s.04.09.09.09"/>
        <line class="cls-1" x1="357.59" y1="105.82" x2="357.59" y2="108.3"/>
        <line class="cls-1" x1="356.54" y1="106.23" x2="356.54" y2="108.3"/>
        <line class="cls-1" x1="356.61" y1="48.02" x2="357.98" y2="48.02"/>
        <path class="cls-1" d="M14.5,102.68l8.56-7.7c.97-.87,1.52-2.12,1.52-3.42,0-2.58.06-5.16.21-7.73.1-1.79.16-3.58.18-5.37v-6.7c0-1.41.7-2.73,1.88-3.52.48-.32.95-.67,1.4-1.03,1.73-1.4,3.57-2.64,5.52-3.72"/>
        <path class="cls-1" d="M14.5,102.68l-.27.25s-.03.02-.05.04c-.28.2-.68.14-.88-.14-1.02-1.39-1.95-2.84-2.79-4.35-.17-.31-.11-.69.15-.93"/>
        <path class="cls-1" d="M3.64,89.62v-16.28c0-.71.05-1.41.15-2.12.56-3.89,1.12-7.77,1.71-11.66.02-.17-.05-.34-.19-.44-.11-.08-.23-.16-.34-.25-.01-.01-.03-.02-.04-.04-.12-.13-.11-.33.03-.45,1.52-1.35,3.39-2.27,5.39-2.66"/>
        <path class="cls-1" d="M32.23,106.74h3.92c.06,0,.11-.05.11-.11"/>
        <path class="cls-1" d="M32.23,106.74h-.23c-.09,0-.16-.07-.17-.16"/>
        <path class="cls-1" d="M30.18,106.16v.15c0,.09.06.18.15.21.54.13,1.1.21,1.65.23"/>
        <line class="cls-1" x1="30.22" y1="106.44" x2="25.62" y2="106.44"/>
        <path class="cls-1" d="M23.46,105.87h-8.7c-1.23,0-2.4-.56-3.18-1.53-2.84-3.52-5.54-7.15-8.12-10.88-.4-.58-.61-1.27-.58-1.97v-18.32"/>
        <path class="cls-1" d="M5.4,60.25h-1.14c-.06,0-.12.04-.14.11l-1.9,11.75c-.08.48.21.93.67,1.07.25.07.5.11.76.1"/>
        <path class="cls-1" d="M4.6,65.66h2.07c.86,0,1.72-.14,2.53-.44"/>
        <path class="cls-1" d="M3.64,89.62v1.54c0,.44.13.86.38,1.22,2.65,3.89,5.47,7.65,8.45,11.28.38.46.93.75,1.52.81h3.94c1.26,0,2.51.19,3.72.57.59.19,1.16.44,1.7.77.68.42,1.47.64,2.27.63"/>
        <path class="cls-1" d="M20.35,77.52h-2c-2.43,0-4.76.99-6.45,2.73-1.57,1.62-1.57,4.19,0,5.81,1.93,1.99,4.63,3.03,7.4,2.85"/>
        <path class="cls-1" d="M37.05,118.61h-7.18c-.27,0-.53-.06-.77-.19l-7.41-4.37c-.14-.08-.22-.23-.21-.39v-1.8"/>
        <path class="cls-1" d="M21.64,107.58h-10.8c-1.28,0-2.53-.32-3.66-.93-.48-.26-.93-.57-1.35-.93-1.29-1.12-2.53-2.29-3.72-3.52-.57-.59-.97-1.34-1.12-2.15-.39-1.99-.6-4.02-.63-6.05,0-.61.15-1.22.47-1.75.61-1.02,1.3-1.99,2.07-2.9"/>
        <line class="cls-1" x1="19.27" y1="107.58" x2="19.27" y2="112.43"/>
        <path class="cls-1" d="M21.49,112.97h-1.69c-.29,0-.53-.24-.53-.54"/>
        <path class="cls-1" d="M37.08,117.43h-5.35c-.27,0-.53-.16-.65-.4l-1.25-4.72"/>
        <line class="cls-1" x1="31.8" y1="117.43" x2="30.4" y2="112.16"/>
        <path class="cls-1" d="M22.06,111.86h7.16c.28,0,.53.18.61.45"/>
        <path class="cls-1" d="M22.06,111.27h7.16c.54,0,1.01.35,1.18.86"/>
        <path class="cls-1" d="M21.07,107.58v4.16c0,.07.06.12.12.12h.87"/>
        <line class="cls-1" x1="21.66" y1="107.76" x2="21.66" y2="111.2"/>
        <line class="cls-1" x1="21.75" y1="111.27" x2="22.06" y2="111.27"/>
        <line class="cls-1" x1="37.38" y1="118.57" x2="37.38" y2="117.45"/>
        <path class="cls-1" d="M37.08,117.43h.28s.02,0,.02.02"/>
        <path class="cls-1" d="M37.05,118.61h.29s.03-.02.03-.04"/>
        <path class="cls-1" d="M21.75,111.27h-.02s-.07-.03-.06-.07"/>
        <path class="cls-1" d="M21.66,107.76v-.07c0-.08-.04-.16-.11-.21l-1.76-1.48c-.08-.07-.17-.11-.28-.13"/>
        <path class="cls-1" d="M19.27,110.01h-3.04c-.39,0-.71-.32-.71-.71s.32-.71.71-.71h3.04"/>
        <line class="cls-1" x1="17.35" y1="107.58" x2="17.35" y2="108.59"/>
        <path class="cls-1" d="M11.82,107.58c-1.28,0-2.53-.32-3.66-.93-.48-.26-.93-.57-1.34-.93-1.29-1.12-2.53-2.29-3.72-3.52-.57-.59-.96-1.34-1.12-2.15-.39-1.99-.6-4.02-.63-6.05,0-.61.16-1.22.47-1.75.34-.57.7-1.11,1.08-1.65"/>
        <path class="cls-1" d="M13.26,107.33c-1.28,0-2.53-.32-3.66-.93-.48-.26-.93-.57-1.34-.93-1.29-1.12-2.53-2.29-3.72-3.52-.57-.59-.96-1.34-1.12-2.15-.39-1.99-.6-4.02-.63-6.04,0-.43.07-.86.23-1.27"/>
        <line class="cls-1" x1="13.26" y1="107.33" x2="21.38" y2="107.33"/>
        <line class="cls-1" x1="304.73" y1="64.15" x2="309.02" y2="64.15"/>
        <path class="cls-1" d="M303.36,59.15v3.61c0,.76.61,1.38,1.37,1.4"/>
        <line class="cls-1" x1="304.73" y1="54.15" x2="309.02" y2="54.15"/>
        <path class="cls-1" d="M303.36,59.15v-3.6c0-.76.61-1.38,1.37-1.4"/>
        <line class="cls-1" x1="314.16" y1="64.15" x2="309.02" y2="64.15"/>
        <path class="cls-1" d="M315.53,59.15v3.61c0,.76-.61,1.38-1.37,1.4"/>
        <line class="cls-1" x1="314.16" y1="54.15" x2="309.02" y2="54.15"/>
        <path class="cls-1" d="M315.53,59.15v-3.6c0-.76-.61-1.38-1.37-1.4"/>
        <path class="cls-1" d="M315.53,59.8h-.84c-.6,0-1.09-.49-1.09-1.09s.49-1.09,1.09-1.09h.84"/>
        <line class="cls-1" x1="351.65" y1="47.95" x2="354.32" y2="47.95"/>
        <path class="cls-1" d="M354.5,55.82v-7.69c0-.1-.08-.18-.18-.18"/>
        <path class="cls-1" d="M354.99,66.72v-7.56c0-.49-.07-.98-.21-1.45-.18-.61-.27-1.25-.28-1.89"/>
        <path class="cls-1" d="M356.61,69.55v.23s-.02.07-.05.1c-.05.05-.13.04-.18-.02-.24-.66-.54-1.31-.87-1.94-.15-.28-.3-.57-.45-.86-.05-.11-.08-.23-.07-.34"/>
        <path class="cls-1" d="M353.57,64.62v-4.18c0-.87-.66-1.6-1.52-1.7"/>
        <line class="cls-1" x1="351.11" y1="60.34" x2="351.11" y2="63.77"/>
        <line class="cls-1" x1="354.99" y1="66.72" x2="352.55" y2="66.72"/>
        <path class="cls-1" d="M352.05,65.34h.82c.39,0,.7-.31.7-.7v-.02"/>
        <path class="cls-1" d="M242.7,54.65v-1.5c0-.31.18-.59.46-.72.91-.42,1.86-.71,2.84-.87,3.65-.6,7.36-.69,11.04-.28,1.3.15,2.6.36,3.89.62.73.15,1.27.77,1.31,1.51v1.24"/>
        <path class="cls-1" d="M248.1,55.88c.83,1.8,3.31,2.7,5.53,2.03,1.26-.38,2.22-1.22,2.6-2.26"/>
        <path class="cls-1" d="M255.87,52.96c-1.16-1.67-3.77-2.27-5.84-1.34-.75.34-1.35.85-1.74,1.47"/>
        <path class="cls-1" d="M242.7,54.65v1.5c0,.31.18.59.46.72.91.42,1.86.71,2.84.87,3.65.6,7.36.69,11.04.28,1.3-.15,2.6-.35,3.89-.62.73-.15,1.27-.77,1.31-1.51v-1.24"/>
        <path class="cls-1" d="M261.15,55.15v-1.78c0-.19-.14-.36-.33-.39-.2-.03-.39-.06-.59-.05-4.29.02-8.58.09-12.87.19-1.05.03-2.1.16-3.12.4-.37.09-.64.4-.67.78-.03.38-.01.77.06,1.14.07.39.34.71.7.86.15.06.31.1.47.11.76.03,1.53.03,2.3.01.2,0,.4-.08.55-.21.37-.31.8-.53,1.27-.63.08-.02.16-.03.24-.04,2.18-.22,4.37-.28,6.56-.19.24,0,.45.16.54.38.14.34.46.57.82.61,1,.08,2.01.07,3.01-.04.58-.06,1.03-.55,1.04-1.13"/>
        <line class="cls-1" x1="258.33" y1="52.93" x2="258.31" y2="56.37"/>
        <path class="cls-1" d="M172.35,56.09v-1.5c0-.31.18-.59.46-.72.91-.41,1.86-.71,2.84-.87,3.65-.6,7.36-.7,11.04-.28,1.3.15,2.6.35,3.89.61.73.15,1.27.77,1.31,1.51v1.24"/>
        <path class="cls-1" d="M177.77,57.31c.83,1.79,3.31,2.7,5.53,2.03,1.26-.38,2.22-1.22,2.6-2.27"/>
        <path class="cls-1" d="M185.53,54.4c-1.16-1.68-3.77-2.27-5.84-1.34-.75.34-1.35.85-1.74,1.47"/>
        <path class="cls-1" d="M172.35,56.09v1.5c0,.31.18.59.46.72.91.42,1.86.71,2.84.87,3.65.6,7.36.69,11.04.28,1.3-.15,2.6-.35,3.89-.61.73-.15,1.27-.77,1.31-1.51v-1.25"/>
        <path class="cls-1" d="M190.81,56.59v-1.79c0-.19-.14-.36-.33-.39-.19-.04-.39-.06-.59-.06-4.29.02-8.58.09-12.87.19-1.05.02-2.1.16-3.12.4-.37.09-.64.4-.67.77-.03.38,0,.77.06,1.14.07.39.34.72.7.86.15.06.31.09.47.1.76.03,1.53.03,2.3.01.2,0,.39-.08.55-.21.37-.31.8-.53,1.27-.63.08-.02.16-.03.24-.04,2.18-.22,4.37-.28,6.56-.19.24.01.45.16.54.39.14.34.46.58.82.6,1,.08,2.01.07,3.01-.04.58-.06,1.03-.54,1.04-1.13"/>
        <line class="cls-1" x1="187.99" y1="54.37" x2="187.97" y2="57.81"/>
        <path class="cls-1" d="M18.8,87.52v-8.73c0-.2.09-.39.23-.52.34-.38.82-.58,1.32-.58"/>
        <path class="cls-1" d="M18.8,87.52v.09c0,.41.33.75.74.75h0"/>
        <path class="cls-1" d="M17.03,83.16v-3.23c.01-.72.6-1.29,1.32-1.28h.46"/>
        <path class="cls-1" d="M17.03,83.16v3.21c0,.72.58,1.3,1.3,1.3h.47"/>
        <path class="cls-1" d="M28.11,54.43c.95.95,1.6,2.16,1.88,3.48.27,1.3.38,2.62.32,3.94-.02.53-.2,1.05-.51,1.49-.82,1.14-1.72,2.21-2.69,3.22-.21.22-.44.41-.7.56"/>
        <path class="cls-1" d="M28.11,54.43l-.29-.27c-.35-.34-.85-.49-1.33-.41"/>
        <path class="cls-1" d="M30.76,54.62h5.45c.06,0,.1.06.1.12v4.05c0,.16-.12.29-.28.31h-4.36c-.07,0-.12-.03-.16-.09-.4-.73-.65-1.53-.73-2.36-.06-.66-.09-1.32-.08-1.98,0-.04.03-.06.06-.06"/>
        <path class="cls-1" d="M112.8,107.57h129.12c.06,0,.12-.04.14-.1"/>
        <path class="cls-1" d="M234.91,107.32l-.02.06c-.01.06-.03.12-.03.18"/>
        <line class="cls-1" x1="112.28" y1="114.15" x2="241.1" y2="114.15"/>
        <path class="cls-1" d="M241.22,107.57v6.47c0,.06-.06.11-.12.11"/>
        <line class="cls-1" x1="241.22" y1="110.68" x2="237.44" y2="110.68"/>
        <path class="cls-1" d="M237.36,107.57v3.03s.04.08.08.08"/>
        <path class="cls-1" d="M112.28,114.15h-.23c-.16,0-.3-.12-.32-.29-.18-1.52-.34-3.05-.47-4.57-.03-.32.19-.61.51-.66.41-.07.78-.3,1.02-.64.05-.07.07-.16.05-.24"/>
        <path class="cls-1" d="M106.26,111.62l.16.9c.34,1.86.65,3.73.94,5.6.02.12-.06.24-.18.27-.66.16-1.35.17-2.02.03-.16-.03-.28-.16-.3-.32-.18-1.12-.32-2.26-.41-3.4-.21-2.81-.57-5.61-1.07-8.38-.89-4.94-2.22-9.79-3.96-14.5-.02-.06,0-.13.05-.17l.62-.27"/>
        <path class="cls-1" d="M111.27,109.44c-1.23.93-2.62,1.62-4.11,2.04-.26.07-.53.14-.79.19-.04,0-.09-.02-.1-.06"/>
        <line class="cls-1" x1="237.36" y1="110.33" x2="111.34" y2="110.33"/>
        <path class="cls-1" d="M243.51,103.12h-5.04c-.08,0-.16-.01-.24-.04-.66-.23-1.34-.36-2.03-.4"/>
        <path class="cls-1" d="M333.25,51.14v-3.81c0-.35-.09-.69-.27-.99-.16-.28-.45-.46-.77-.5h-.98"/>
        <path class="cls-1" d="M333.25,51.14v.45c0,.23-.18.42-.4.44"/>
        <path class="cls-1" d="M350.02,45.49h-16.95c-.63,0-1.25.11-1.84.34"/>
        <path class="cls-1" d="M333.25,49.23h12.16c.16,0,.29.11.33.26.38,1.41,1.61,2.43,3.07,2.53"/>
        <line class="cls-1" x1="333.19" y1="46.81" x2="345.53" y2="46.81"/>
        <line class="cls-1" x1="350.5" y1="46.21" x2="345.73" y2="46.21"/>
        <path class="cls-1" d="M345.61,46.23v.51h0s-.04.07-.07.07"/>
        <path class="cls-1" d="M345.73,46.21h-.1s-.02.01-.02.02"/>
        <path class="cls-1" d="M314.54,1.39c.49-.16.98-.31,1.48-.45.27-.07.55-.09.82-.06.29.04.58-.03.82-.19.17-.11.34-.22.53-.32.06-.03.12-.03.18.02.07.05.08.16.02.22-.15.18-.3.36-.47.52-.1.1-.16.24-.17.38-.02.37-.03.73-.02,1.1,0,.23-.08.45-.23.62"/>
        <path class="cls-1" d="M27.82,54.16l-17.8,4.22s-.05,0-.07.01c-.39.06-.76-.22-.81-.62"/>
        <path class="cls-1" d="M18.25,56.43v1.22c.02,1.05.24,2.08.66,3.04.89,2.04,1.94,4.01,3.15,5.88.39.61,1.03.99,1.75,1.05"/>
        <line class="cls-1" x1="9.2" y1="64.95" x2="21.06" y2="64.95"/>
        <path class="cls-1" d="M18.25,57.25l-6.19,1.68c-.45.12-.93.11-1.38-.04-.31-.1-.59-.27-.83-.48"/>
        <path class="cls-1" d="M17.02,57.58v.7c0,2.02-.41,4.01-1.18,5.87-.16.38-.48.68-.88.8"/>
        <path class="cls-1" d="M18.33,58.68c-.05,2.06-.48,4.09-1.28,5.99-.04.1-.09.19-.14.29"/>
        <path class="cls-1" d="M12.9,58.69c.97,1.94,1.41,4.09,1.29,6.26"/>
        <path class="cls-1" d="M26.86,54.39c.33,1.53.44,3.1.34,4.66-.1,1.64-.57,3.25-1.38,4.68-.19.34-.42.66-.67.95-.1.11-.16.25-.19.39-.12.83-.17,1.66-.16,2.5"/>
        <path class="cls-1" d="M24.96,65.08l-5.21-5.29c-.41-.42-.69-.96-.78-1.54-.11-.64-.17-1.29-.19-1.94"/>
        <path class="cls-1" d="M27.02,55.28l-.68.14c-.74.16-1.4.55-1.89,1.13-1.11,1.3-1.86,2.88-2.17,4.56-.08.44-.06.9.06,1.33"/>
        <path class="cls-1" d="M23.9,64.01c.99-.33,1.7-1.2,1.82-2.24.13-1.16.14-2.32.03-3.48-.04-.43-.26-.83-.6-1.1-.35-.27-.84-.28-1.19-.01"/>
        <path class="cls-1" d="M9.2,64.95c.82-1.92,1.39-3.94,1.7-6"/>
        <path class="cls-1" d="M274.45,92.14c-1.47.5-2.88,1.17-4.18,2.02"/>
        <path class="cls-1" d="M268.99,95.06c-2.37,1.83-4.27,4.21-5.52,6.93"/>
        <path class="cls-1" d="M262.87,103.43c-.53,1.46-.88,2.98-1.03,4.53"/>
        <path class="cls-1" d="M261.75,109.52c-.05,3,.63,5.96,1.97,8.64"/>
        <path class="cls-1" d="M264.47,119.52c.81,1.33,1.79,2.55,2.9,3.63"/>
        <path class="cls-1" d="M268.53,124.19c2.31,1.9,5.05,3.22,7.98,3.84"/>
        <path class="cls-1" d="M278.05,128.3c1.54.2,3.11.2,4.65,0"/>
        <path class="cls-1" d="M284.23,128.04c2.93-.62,5.67-1.94,7.98-3.84"/>
        <path class="cls-1" d="M293.38,123.15c1.11-1.08,2.09-2.3,2.89-3.63"/>
        <path class="cls-1" d="M297.04,118.16c1.34-2.68,2.02-5.64,1.97-8.64"/>
        <path class="cls-1" d="M298.92,107.96c-.16-1.55-.5-3.07-1.04-4.53"/>
        <path class="cls-1" d="M297.29,101.99c-1.26-2.72-3.15-5.09-5.53-6.93"/>
        <path class="cls-1" d="M290.49,94.16c-1.3-.84-2.71-1.52-4.18-2.02"/>
        <path class="cls-1" d="M284.8,91.71c-2.91-.71-5.95-.71-8.86,0"/>
        <path class="cls-1" d="M263,101.95c-1.05,2.33-1.63,4.85-1.69,7.4"/>
        <path class="cls-1" d="M263.39,118.5c1.17,2.27,2.77,4.29,4.73,5.93"/>
        <path class="cls-1" d="M276.58,128.5c2.51.51,5.09.51,7.59,0"/>
        <path class="cls-1" d="M292.62,124.43c1.96-1.64,3.57-3.66,4.73-5.93"/>
        <path class="cls-1" d="M299.44,109.35c-.06-2.56-.64-5.07-1.69-7.4"/>
        <path class="cls-1" d="M291.91,94.62c-2.04-1.54-4.36-2.66-6.84-3.29"/>
        <path class="cls-1" d="M275.69,91.32c-2.48.63-4.8,1.75-6.84,3.29"/>
        <path class="cls-1" d="M271.45,96.87c-2.55,1.76-4.52,4.23-5.67,7.11"/>
        <path class="cls-1" d="M264.69,108.73c-.21,3.09.49,6.18,2.02,8.87"/>
        <path class="cls-1" d="M269.75,121.4c2.29,2.09,5.14,3.46,8.2,3.95"/>
        <path class="cls-1" d="M282.81,125.34c3.06-.48,5.91-1.85,8.2-3.95"/>
        <path class="cls-1" d="M294.04,117.59c1.54-2.69,2.24-5.78,2.02-8.87"/>
        <path class="cls-1" d="M294.98,103.98c-1.15-2.88-3.12-5.35-5.67-7.11"/>
        <path class="cls-1" d="M284.92,94.76c-2.96-.9-6.13-.9-9.09,0"/>
        <path class="cls-1" d="M273.18,109.81c0-3.97,3.22-7.19,7.19-7.19s7.19,3.22,7.19,7.19-3.22,7.19-7.19,7.19-7.19-3.22-7.19-7.19Z"/>
        <path class="cls-1" d="M287.55,112.46c.23-.62.38-1.27.44-1.93"/>
        <path class="cls-1" d="M286.93,105.86c-.34-.57-.76-1.09-1.23-1.55"/>
        <path class="cls-1" d="M281.37,102.22c-.66-.09-1.32-.09-1.98,0"/>
        <path class="cls-1" d="M275.06,104.31c-.48.46-.89.98-1.24,1.55"/>
        <path class="cls-1" d="M272.76,110.53c.06.66.21,1.31.44,1.93"/>
        <path class="cls-1" d="M276.19,116.21c.55.36,1.16.65,1.79.86"/>
        <path class="cls-1" d="M282.77,117.08c.63-.21,1.23-.5,1.79-.86"/>
        <path class="cls-1" d="M298.64,107.76c-.15-1.38-.46-2.73-.92-4.03"/>
        <path class="cls-1" d="M290.16,94.25c-1.17-.73-2.42-1.34-3.72-1.79"/>
        <path class="cls-1" d="M274.32,92.46c-1.31.46-2.56,1.06-3.73,1.79"/>
        <path class="cls-1" d="M263.03,103.73c-.46,1.31-.77,2.66-.92,4.03"/>
        <path class="cls-1" d="M264.81,119.58c.73,1.17,1.6,2.26,2.58,3.23"/>
        <path class="cls-1" d="M278.31,128.07c1.38.16,2.76.16,4.13,0"/>
        <path class="cls-1" d="M293.36,122.81c.98-.98,1.84-2.06,2.58-3.23"/>
        <path class="cls-1" d="M287.08,105.61c-.32-.51-.7-.98-1.12-1.4"/>
        <path class="cls-1" d="M281.27,101.95c-.6-.07-1.2-.07-1.8,0"/>
        <path class="cls-1" d="M274.79,104.21c-.43.42-.8.89-1.12,1.4"/>
        <path class="cls-1" d="M272.52,110.68c.07.6.2,1.18.4,1.75"/>
        <path class="cls-1" d="M276.16,116.5c.5.32,1.05.58,1.61.78"/>
        <path class="cls-1" d="M282.98,117.28c.57-.19,1.11-.46,1.61-.78"/>
        <path class="cls-1" d="M287.84,112.43c.2-.57.33-1.15.4-1.75"/>
        <line class="cls-1" x1="278.1" y1="117.9" x2="278.25" y2="127.44"/>
        <line class="cls-1" x1="277.82" y1="117.91" x2="277.98" y2="127.44"/>
        <path class="cls-1" d="M278.25,127.44v.58s.03.05.05.05"/>
        <path class="cls-1" d="M278.1,117.9v-.67c-.01-.07-.06-.13-.12-.16"/>
        <path class="cls-1" d="M277.82,117.91v-.57s-.02-.05-.05-.06"/>
        <path class="cls-1" d="M277.98,127.44v.77s.04.07.07.08"/>
        <line class="cls-1" x1="282.65" y1="117.9" x2="282.5" y2="127.44"/>
        <line class="cls-1" x1="282.93" y1="117.91" x2="282.77" y2="127.44"/>
        <path class="cls-1" d="M282.5,127.44v.58s-.03.05-.05.05"/>
        <path class="cls-1" d="M282.65,117.9v-.67c.01-.07.06-.13.12-.16"/>
        <path class="cls-1" d="M282.93,117.91v-.57s.02-.05.05-.06"/>
        <path class="cls-1" d="M282.77,127.44v.77s-.04.07-.07.08"/>
        <line class="cls-1" x1="285.28" y1="116.63" x2="292.84" y2="122.46"/>
        <line class="cls-1" x1="285.11" y1="116.86" x2="292.67" y2="122.68"/>
        <path class="cls-1" d="M292.84,122.46l.46.35s.05.02.07,0"/>
        <path class="cls-1" d="M285.28,116.63l-.53-.41c-.05-.04-.13-.04-.19,0"/>
        <path class="cls-1" d="M285.11,116.86l-.46-.35s-.04-.02-.07,0"/>
        <path class="cls-1" d="M292.67,122.68l.61.47s.07.02.1,0"/>
        <line class="cls-1" x1="288.12" y1="113.07" x2="295.48" y2="119.14"/>
        <line class="cls-1" x1="288.3" y1="112.86" x2="295.66" y2="118.93"/>
        <path class="cls-1" d="M295.48,119.14l.44.37s.03.04.02.07"/>
        <path class="cls-1" d="M288.12,113.07l-.52-.43c-.05-.05-.07-.12-.05-.18"/>
        <path class="cls-1" d="M288.3,112.86l-.45-.36s-.02-.04-.02-.07"/>
        <path class="cls-1" d="M295.66,118.93l.59.49s.04.06.02.1"/>
        <line class="cls-1" x1="288.77" y1="110.23" x2="298.04" y2="107.96"/>
        <line class="cls-1" x1="288.84" y1="110.5" x2="298.1" y2="108.22"/>
        <path class="cls-1" d="M298.04,107.95l.56-.14s.04-.03.04-.05"/>
        <path class="cls-1" d="M288.77,110.23l-.65.16c-.07.01-.12.07-.12.14"/>
        <path class="cls-1" d="M288.84,110.5l-.56.14s-.04.02-.04.05"/>
        <path class="cls-1" d="M298.1,108.22l.75-.18s.06-.04.06-.08"/>
        <line class="cls-1" x1="287.76" y1="105.79" x2="297.09" y2="103.82"/>
        <line class="cls-1" x1="287.7" y1="105.52" x2="297.04" y2="103.55"/>
        <path class="cls-1" d="M297.09,103.82l.56-.12s.05,0,.06.03"/>
        <path class="cls-1" d="M287.76,105.79l-.66.14c-.07.01-.14-.02-.18-.08"/>
        <path class="cls-1" d="M287.7,105.52l-.56.12s-.05,0-.06-.03"/>
        <path class="cls-1" d="M297.04,103.55l.76-.16s.07.01.09.04"/>
        <line class="cls-1" x1="285.94" y1="103.51" x2="289.94" y2="94.84"/>
        <line class="cls-1" x1="286.19" y1="103.62" x2="290.19" y2="94.96"/>
        <path class="cls-1" d="M289.94,94.84l.24-.52s0-.05-.02-.07"/>
        <path class="cls-1" d="M285.94,103.51l-.28.61c-.03.06-.02.14.04.19"/>
        <path class="cls-1" d="M286.19,103.62l-.24.52s0,.05.02.07"/>
        <path class="cls-1" d="M290.19,94.96l.32-.7s0-.07-.02-.1"/>
        <line class="cls-1" x1="281.84" y1="101.53" x2="286.11" y2="93"/>
        <line class="cls-1" x1="281.59" y1="101.41" x2="285.87" y2="92.88"/>
        <path class="cls-1" d="M286.11,93l.26-.52s.04-.03.07-.03"/>
        <path class="cls-1" d="M281.84,101.53l-.3.6c-.04.06-.1.1-.17.09"/>
        <path class="cls-1" d="M281.59,101.41l-.26.51s-.03.04-.06.03"/>
        <path class="cls-1" d="M285.87,92.88l.34-.69s.05-.05.09-.05"/>
        <line class="cls-1" x1="278.91" y1="101.53" x2="274.64" y2="93"/>
        <line class="cls-1" x1="279.16" y1="101.41" x2="274.88" y2="92.88"/>
        <path class="cls-1" d="M274.64,93l-.26-.52s-.04-.03-.07-.03"/>
        <path class="cls-1" d="M278.91,101.53l.3.6c.04.06.1.1.17.09"/>
        <path class="cls-1" d="M279.16,101.41l.26.51s.04.04.06.03"/>
        <path class="cls-1" d="M274.88,92.88l-.34-.69s-.05-.05-.09-.05"/>
        <line class="cls-1" x1="274.81" y1="103.51" x2="270.81" y2="94.84"/>
        <line class="cls-1" x1="274.56" y1="103.62" x2="270.56" y2="94.96"/>
        <path class="cls-1" d="M270.81,94.84l-.24-.52s0-.05.02-.07"/>
        <path class="cls-1" d="M274.81,103.51l.28.61c.03.06.02.14-.04.19"/>
        <path class="cls-1" d="M274.56,103.62l.24.52s0,.05-.01.07"/>
        <path class="cls-1" d="M270.56,94.96l-.32-.7s0-.07.02-.1"/>
        <line class="cls-1" x1="272.99" y1="105.79" x2="263.66" y2="103.82"/>
        <line class="cls-1" x1="273.05" y1="105.52" x2="263.71" y2="103.55"/>
        <path class="cls-1" d="M263.66,103.82l-.56-.12s-.05,0-.06.03"/>
        <path class="cls-1" d="M272.99,105.79l.66.14c.07.01.14-.02.18-.08"/>
        <path class="cls-1" d="M273.05,105.52l.56.12s.05,0,.06-.03"/>
        <path class="cls-1" d="M263.71,103.55l-.75-.16s-.07.01-.09.04"/>
        <line class="cls-1" x1="271.98" y1="110.23" x2="262.71" y2="107.96"/>
        <line class="cls-1" x1="271.91" y1="110.5" x2="262.65" y2="108.22"/>
        <path class="cls-1" d="M262.71,107.95l-.56-.14s-.04-.03-.04-.05"/>
        <path class="cls-1" d="M271.98,110.23l.65.16c.07.01.12.07.12.14"/>
        <path class="cls-1" d="M271.91,110.5l.56.14s.04.02.04.05"/>
        <path class="cls-1" d="M262.65,108.22l-.75-.18s-.06-.04-.06-.08"/>
        <line class="cls-1" x1="272.63" y1="113.07" x2="265.27" y2="119.14"/>
        <line class="cls-1" x1="272.45" y1="112.86" x2="265.09" y2="118.93"/>
        <path class="cls-1" d="M265.27,119.14l-.45.37s-.03.04-.02.07"/>
        <path class="cls-1" d="M272.63,113.07l.52-.43c.05-.05.07-.12.05-.18"/>
        <path class="cls-1" d="M272.45,112.86l.45-.36s.02-.04.02-.07"/>
        <path class="cls-1" d="M265.09,118.93l-.59.49s-.04.06-.02.1"/>
        <line class="cls-1" x1="275.47" y1="116.63" x2="267.91" y2="122.46"/>
        <line class="cls-1" x1="275.64" y1="116.86" x2="268.08" y2="122.68"/>
        <path class="cls-1" d="M267.91,122.46l-.46.35s-.05.02-.07,0"/>
        <path class="cls-1" d="M275.47,116.63l.53-.41c.05-.04.13-.04.19,0"/>
        <path class="cls-1" d="M275.64,116.86l.46-.35s.04-.02.07,0"/>
        <path class="cls-1" d="M268.08,122.68l-.61.47s-.07.02-.1,0"/>
        <path class="cls-1" d="M269.79,96.98c-1.79,1.47-3.24,3.3-4.28,5.37"/>
        <path class="cls-1" d="M263.74,110.09c.04,2.31.56,4.59,1.53,6.69"/>
        <path class="cls-1" d="M270.22,122.99c1.83,1.41,3.94,2.43,6.19,2.98"/>
        <path class="cls-1" d="M284.35,125.97c2.25-.56,4.35-1.57,6.18-2.98"/>
        <path class="cls-1" d="M295.48,116.78c.97-2.1,1.49-4.38,1.53-6.69"/>
        <path class="cls-1" d="M295.24,102.34c-1.04-2.07-2.5-3.9-4.28-5.37"/>
        <path class="cls-1" d="M285.34,93.93c-2.72-.85-5.61-.99-8.4-.4"/>
        <path class="cls-1" d="M284.72,91.89l-.74,1.56c-.03.06-.1.09-.17.08"/>
        <path class="cls-1" d="M284.72,91.89l.25-.52s.06-.06.09-.05"/>
        <path class="cls-1" d="M276.03,91.89l.75,1.56c.03.06.1.09.16.08"/>
        <path class="cls-1" d="M276.03,91.89l-.25-.52s-.06-.06-.09-.05"/>
        <path class="cls-1" d="M269.07,95.24l.75,1.55c.03.06.01.14-.04.18"/>
        <path class="cls-1" d="M269.07,95.24l-.25-.52s-.01-.07.02-.1"/>
        <path class="cls-1" d="M263.66,102.04l1.68.39c.07.02.14-.02.17-.08"/>
        <path class="cls-1" d="M263.66,102.04l-.56-.13s-.08,0-.09.04"/>
        <path class="cls-1" d="M261.94,109.56l1.68.38c.07.02.12.07.12.14"/>
        <path class="cls-1" d="M261.94,109.56l-.56-.13s-.07-.04-.07-.08"/>
        <path class="cls-1" d="M263.87,118.04l1.35-1.07c.05-.04.07-.12.05-.18"/>
        <path class="cls-1" d="M263.87,118.04l-.45.36s-.04.07-.02.1"/>
        <path class="cls-1" d="M268.69,124.07l1.34-1.08c.05-.05.13-.05.19,0"/>
        <path class="cls-1" d="M268.69,124.07l-.45.36s-.07.03-.11,0"/>
        <path class="cls-1" d="M276.52,127.84v-1.73c0-.07-.04-.13-.11-.15"/>
        <path class="cls-1" d="M276.52,127.84v.58s.02.07.06.08"/>
        <path class="cls-1" d="M284.23,127.84v-1.73c0-.07.04-.13.11-.15"/>
        <path class="cls-1" d="M284.23,127.84v.58s-.02.07-.06.08"/>
        <path class="cls-1" d="M292.07,124.07l-1.35-1.08c-.05-.05-.13-.05-.19,0"/>
        <path class="cls-1" d="M292.07,124.07l.45.36s.07.03.11,0"/>
        <path class="cls-1" d="M296.88,118.04l-1.35-1.07c-.05-.04-.07-.12-.05-.18"/>
        <path class="cls-1" d="M296.88,118.04l.45.36s.04.07.02.1"/>
        <path class="cls-1" d="M298.81,109.56l-1.68.38c-.07.02-.12.07-.12.14"/>
        <path class="cls-1" d="M298.81,109.56l.56-.13s.07-.04.07-.08"/>
        <path class="cls-1" d="M297.09,102.04l-1.68.39c-.07.02-.14-.02-.17-.08"/>
        <path class="cls-1" d="M297.09,102.04l.56-.13s.08,0,.09.04"/>
        <path class="cls-1" d="M291.68,95.24l-.75,1.55c-.03.06-.02.14.04.18"/>
        <path class="cls-1" d="M291.68,95.24l.25-.52s0-.07-.02-.1"/>
        <path class="cls-1" d="M282.85,123.01c2.33-.44,4.51-1.49,6.3-3.04"/>
        <path class="cls-1" d="M292.23,116.11c1.11-2.1,1.65-4.45,1.55-6.82"/>
        <path class="cls-1" d="M292.69,104.46c-.95-2.18-2.45-4.07-4.36-5.47"/>
        <path class="cls-1" d="M283.88,96.85c-2.29-.62-4.71-.62-7,0"/>
        <path class="cls-1" d="M272.42,98.99c-1.91,1.41-3.42,3.3-4.36,5.47"/>
        <path class="cls-1" d="M266.96,109.28c-.09,2.38.44,4.73,1.56,6.82"/>
        <path class="cls-1" d="M271.6,119.97c1.8,1.55,3.97,2.6,6.3,3.04"/>
        <path class="cls-1" d="M250.4,109.81c0-16.55,13.42-29.97,29.97-29.97s29.97,13.42,29.97,29.97-13.42,29.97-29.97,29.97-29.97-13.42-29.97-29.97Z"/>
        <path class="cls-1" d="M279.06,104.11c0-.73.59-1.32,1.32-1.32s1.32.59,1.32,1.32-.59,1.32-1.32,1.32-1.32-.59-1.32-1.32Z"/>
        <path class="cls-1" d="M274.12,106.96c0-.73.59-1.32,1.32-1.32s1.32.59,1.32,1.32-.59,1.32-1.32,1.32-1.32-.59-1.32-1.32Z"/>
        <path class="cls-1" d="M274.12,112.66c0-.73.59-1.32,1.32-1.32s1.32.59,1.32,1.32-.59,1.32-1.32,1.32-1.32-.59-1.32-1.32Z"/>
        <path class="cls-1" d="M279.06,115.51c0-.73.59-1.32,1.32-1.32s1.32.59,1.32,1.32-.59,1.32-1.32,1.32-1.32-.59-1.32-1.32Z"/>
        <path class="cls-1" d="M283.99,112.66c0-.73.59-1.32,1.32-1.32s1.32.59,1.32,1.32-.59,1.32-1.32,1.32-1.32-.59-1.32-1.32Z"/>
        <path class="cls-1" d="M283.99,106.96c0-.73.59-1.32,1.32-1.32s1.32.59,1.32,1.32-.59,1.32-1.32,1.32-1.32-.59-1.32-1.32Z"/>
        <path class="cls-1" d="M274.92,108.17c-.32,1.07-.32,2.21,0,3.28"/>
        <path class="cls-1" d="M276.23,113.71c.77.82,1.75,1.38,2.84,1.64"/>
        <path class="cls-1" d="M281.68,115.36c1.09-.25,2.07-.82,2.84-1.64"/>
        <path class="cls-1" d="M285.83,111.45c.32-1.07.32-2.21,0-3.28"/>
        <path class="cls-1" d="M284.52,105.91c-.77-.82-1.75-1.39-2.84-1.64"/>
        <path class="cls-1" d="M279.07,104.27c-1.09.25-2.07.82-2.84,1.64"/>
        <path class="cls-1" d="M277.77,109.81c0-1.43,1.16-2.6,2.6-2.6s2.6,1.16,2.6,2.6-1.16,2.6-2.6,2.6-2.6-1.16-2.6-2.6Z"/>
        <path class="cls-1" d="M65.36,109.81c0-2.32,1.88-4.21,4.21-4.21s4.22,1.89,4.22,4.21-1.89,4.21-4.22,4.21-4.21-1.89-4.21-4.21Z"/>
        <path class="cls-1" d="M38.52,109.81c0-17.15,13.9-31.06,31.05-31.06s31.06,13.91,31.06,31.06-13.9,31.05-31.06,31.05-31.05-13.9-31.05-31.05Z"/>
        <path class="cls-1" d="M49.85,109.81c0-10.89,8.83-19.72,19.72-19.72s19.72,8.83,19.72,19.72-8.83,19.72-19.72,19.72-19.72-8.83-19.72-19.72Z"/>
        <path class="cls-1" d="M63.65,92.14c-1.48.5-2.88,1.17-4.19,2.02"/>
        <path class="cls-1" d="M58.18,95.06c-2.37,1.83-4.27,4.21-5.52,6.93"/>
        <path class="cls-1" d="M52.06,103.43c-.53,1.46-.88,2.98-1.03,4.53"/>
        <path class="cls-1" d="M50.94,109.52c-.05,3,.63,5.96,1.97,8.64"/>
        <path class="cls-1" d="M53.67,119.52c.81,1.33,1.78,2.55,2.9,3.63"/>
        <path class="cls-1" d="M57.73,124.19c2.31,1.9,5.05,3.22,7.98,3.84"/>
        <path class="cls-1" d="M67.25,128.3c1.54.2,3.11.2,4.65,0"/>
        <path class="cls-1" d="M73.43,128.04c2.93-.62,5.67-1.94,7.98-3.84"/>
        <path class="cls-1" d="M82.58,123.15c1.11-1.08,2.09-2.3,2.89-3.63"/>
        <path class="cls-1" d="M86.23,118.16c1.34-2.68,2.02-5.64,1.97-8.64"/>
        <path class="cls-1" d="M88.11,107.96c-.16-1.55-.5-3.07-1.03-4.53"/>
        <path class="cls-1" d="M86.48,101.99c-1.26-2.72-3.15-5.09-5.53-6.93"/>
        <path class="cls-1" d="M79.69,94.16c-1.31-.84-2.72-1.52-4.19-2.02"/>
        <path class="cls-1" d="M74,91.71c-2.91-.71-5.95-.71-8.86,0"/>
        <path class="cls-1" d="M52.19,101.95c-1.05,2.33-1.63,4.85-1.69,7.4"/>
        <path class="cls-1" d="M52.59,118.5c1.17,2.27,2.78,4.29,4.73,5.93"/>
        <path class="cls-1" d="M65.77,128.5c2.51.51,5.09.51,7.59,0"/>
        <path class="cls-1" d="M81.82,124.43c1.96-1.64,3.57-3.66,4.74-5.93"/>
        <path class="cls-1" d="M88.64,109.35c-.06-2.56-.64-5.07-1.69-7.4"/>
        <path class="cls-1" d="M81.1,94.62c-2.04-1.54-4.36-2.66-6.84-3.29"/>
        <path class="cls-1" d="M64.88,91.32c-2.48.63-4.81,1.75-6.84,3.29"/>
        <path class="cls-1" d="M60.64,96.87c-2.55,1.76-4.52,4.23-5.67,7.11"/>
        <path class="cls-1" d="M53.89,108.73c-.22,3.09.49,6.18,2.02,8.87"/>
        <path class="cls-1" d="M58.94,121.4c2.29,2.09,5.14,3.46,8.2,3.95"/>
        <path class="cls-1" d="M72,125.34c3.06-.48,5.91-1.85,8.19-3.95"/>
        <path class="cls-1" d="M83.23,117.59c1.54-2.69,2.24-5.78,2.03-8.87"/>
        <path class="cls-1" d="M84.18,103.98c-1.15-2.88-3.12-5.35-5.67-7.11"/>
        <path class="cls-1" d="M74.12,94.76c-2.97-.9-6.13-.9-9.1,0"/>
        <path class="cls-1" d="M62.38,109.81c0-3.97,3.22-7.19,7.19-7.19s7.19,3.22,7.19,7.19-3.22,7.19-7.19,7.19-7.19-3.22-7.19-7.19Z"/>
        <path class="cls-1" d="M76.75,112.46c.23-.62.38-1.27.44-1.93"/>
        <path class="cls-1" d="M76.12,105.86c-.34-.57-.76-1.09-1.23-1.55"/>
        <path class="cls-1" d="M70.56,102.22c-.66-.09-1.32-.09-1.98,0"/>
        <path class="cls-1" d="M64.26,104.31c-.48.46-.9.98-1.24,1.55"/>
        <path class="cls-1" d="M61.95,110.53c.06.66.21,1.31.44,1.93"/>
        <path class="cls-1" d="M65.39,116.21c.55.36,1.16.65,1.78.86"/>
        <path class="cls-1" d="M71.97,117.08c.63-.21,1.23-.5,1.79-.86"/>
        <path class="cls-1" d="M87.84,107.76c-.16-1.38-.46-2.73-.92-4.03"/>
        <path class="cls-1" d="M79.36,94.25c-1.17-.73-2.42-1.34-3.72-1.79"/>
        <path class="cls-1" d="M63.51,92.46c-1.31.46-2.56,1.06-3.73,1.79"/>
        <path class="cls-1" d="M52.23,103.73c-.46,1.31-.77,2.66-.92,4.03"/>
        <path class="cls-1" d="M54,119.58c.74,1.17,1.6,2.26,2.58,3.23"/>
        <path class="cls-1" d="M67.5,128.07c1.38.16,2.76.16,4.13,0"/>
        <path class="cls-1" d="M82.56,122.81c.98-.98,1.84-2.06,2.58-3.23"/>
        <path class="cls-1" d="M76.27,105.61c-.32-.51-.69-.98-1.12-1.4"/>
        <path class="cls-1" d="M70.47,101.95c-.6-.07-1.2-.07-1.79,0"/>
        <path class="cls-1" d="M63.99,104.21c-.43.42-.8.89-1.12,1.4"/>
        <path class="cls-1" d="M61.71,110.68c.07.6.2,1.18.4,1.75"/>
        <path class="cls-1" d="M65.36,116.5c.5.32,1.05.58,1.61.78"/>
        <path class="cls-1" d="M72.17,117.28c.57-.19,1.11-.46,1.62-.78"/>
        <path class="cls-1" d="M77.03,112.43c.2-.57.33-1.15.4-1.75"/>
        <line class="cls-1" x1="67.29" y1="117.9" x2="67.45" y2="127.44"/>
        <line class="cls-1" x1="67.02" y1="117.91" x2="67.17" y2="127.44"/>
        <path class="cls-1" d="M67.45,127.44v.58s.03.05.06.05"/>
        <path class="cls-1" d="M67.29,117.9v-.67c-.01-.07-.06-.13-.12-.16"/>
        <path class="cls-1" d="M67.02,117.91v-.57s-.03-.05-.05-.06"/>
        <path class="cls-1" d="M67.17,127.44v.77s.04.07.07.08"/>
        <line class="cls-1" x1="71.85" y1="117.9" x2="71.69" y2="127.44"/>
        <line class="cls-1" x1="72.12" y1="117.91" x2="71.97" y2="127.44"/>
        <path class="cls-1" d="M71.69,127.44v.58s-.03.05-.05.05"/>
        <path class="cls-1" d="M71.85,117.9v-.67c.01-.07.06-.13.12-.16"/>
        <path class="cls-1" d="M72.12,117.91v-.57s.02-.05.05-.06"/>
        <path class="cls-1" d="M71.97,127.44v.77s-.04.07-.07.08"/>
        <line class="cls-1" x1="74.48" y1="116.63" x2="82.03" y2="122.46"/>
        <line class="cls-1" x1="74.31" y1="116.86" x2="81.86" y2="122.68"/>
        <path class="cls-1" d="M82.04,122.46l.45.35s.05.02.07,0"/>
        <path class="cls-1" d="M74.48,116.63l-.53-.41c-.05-.04-.13-.04-.19,0"/>
        <path class="cls-1" d="M74.31,116.86l-.46-.35s-.04-.02-.07,0"/>
        <path class="cls-1" d="M81.86,122.68l.61.47s.07.02.1,0"/>
        <line class="cls-1" x1="77.32" y1="113.07" x2="84.68" y2="119.14"/>
        <line class="cls-1" x1="77.49" y1="112.86" x2="84.86" y2="118.93"/>
        <path class="cls-1" d="M84.68,119.14l.44.37s.03.04.02.07"/>
        <path class="cls-1" d="M77.32,113.07l-.52-.43c-.06-.05-.07-.12-.05-.18"/>
        <path class="cls-1" d="M77.49,112.86l-.44-.36s-.02-.04-.02-.07"/>
        <path class="cls-1" d="M84.86,118.93l.59.49s.04.06.02.1"/>
        <line class="cls-1" x1="77.96" y1="110.23" x2="87.23" y2="107.96"/>
        <line class="cls-1" x1="78.03" y1="110.5" x2="87.3" y2="108.22"/>
        <path class="cls-1" d="M87.23,107.95l.56-.14s.04-.03.04-.05"/>
        <path class="cls-1" d="M77.96,110.23l-.65.16c-.07.01-.12.07-.12.14"/>
        <path class="cls-1" d="M78.03,110.5l-.56.14s-.04.02-.04.05"/>
        <path class="cls-1" d="M87.3,108.22l.75-.18s.06-.04.07-.08"/>
        <line class="cls-1" x1="76.95" y1="105.79" x2="86.29" y2="103.82"/>
        <line class="cls-1" x1="76.89" y1="105.52" x2="86.23" y2="103.55"/>
        <path class="cls-1" d="M86.29,103.82l.56-.12s.05,0,.06.03"/>
        <path class="cls-1" d="M76.95,105.79l-.66.14c-.07.01-.14-.02-.18-.08"/>
        <path class="cls-1" d="M76.89,105.52l-.56.12s-.05,0-.06-.03"/>
        <path class="cls-1" d="M86.23,103.55l.75-.16s.08.01.09.04"/>
        <line class="cls-1" x1="75.13" y1="103.51" x2="79.13" y2="94.84"/>
        <line class="cls-1" x1="75.38" y1="103.62" x2="79.38" y2="94.96"/>
        <path class="cls-1" d="M79.13,94.84l.24-.52s0-.05-.02-.07"/>
        <path class="cls-1" d="M75.13,103.51l-.28.61c-.03.06-.02.14.04.19"/>
        <path class="cls-1" d="M75.38,103.62l-.24.52s0,.05.01.07"/>
        <path class="cls-1" d="M79.38,94.96l.32-.7s0-.07-.02-.1"/>
        <line class="cls-1" x1="71.03" y1="101.53" x2="75.31" y2="93"/>
        <line class="cls-1" x1="70.78" y1="101.41" x2="75.06" y2="92.88"/>
        <path class="cls-1" d="M75.31,93l.26-.52s.04-.03.07-.03"/>
        <path class="cls-1" d="M71.03,101.53l-.3.6c-.03.06-.1.1-.17.09"/>
        <path class="cls-1" d="M70.78,101.41l-.26.51s-.03.04-.05.03"/>
        <path class="cls-1" d="M75.06,92.88l.34-.69s.06-.05.09-.05"/>
        <line class="cls-1" x1="68.11" y1="101.53" x2="63.83" y2="93"/>
        <line class="cls-1" x1="68.36" y1="101.41" x2="64.08" y2="92.88"/>
        <path class="cls-1" d="M63.83,93l-.26-.52s-.04-.03-.06-.03"/>
        <path class="cls-1" d="M68.11,101.53l.3.6c.03.06.1.1.17.09"/>
        <path class="cls-1" d="M68.36,101.41l.26.51s.04.04.06.03"/>
        <path class="cls-1" d="M64.08,92.88l-.34-.69s-.05-.05-.09-.05"/>
        <line class="cls-1" x1="64.01" y1="103.51" x2="60.01" y2="94.84"/>
        <line class="cls-1" x1="63.76" y1="103.62" x2="59.76" y2="94.96"/>
        <path class="cls-1" d="M60.01,94.84l-.24-.52s0-.05.01-.07"/>
        <path class="cls-1" d="M64.01,103.51l.28.61c.03.06.02.14-.03.19"/>
        <path class="cls-1" d="M63.76,103.62l.24.52s0,.05-.01.07"/>
        <path class="cls-1" d="M59.76,94.96l-.32-.7s0-.07.02-.1"/>
        <line class="cls-1" x1="62.19" y1="105.79" x2="52.85" y2="103.82"/>
        <line class="cls-1" x1="62.25" y1="105.52" x2="52.91" y2="103.55"/>
        <path class="cls-1" d="M52.85,103.82l-.57-.12s-.05,0-.06.03"/>
        <path class="cls-1" d="M62.19,105.79l.66.14c.07.01.14-.02.17-.08"/>
        <path class="cls-1" d="M62.25,105.52l.56.12s.05,0,.06-.03"/>
        <path class="cls-1" d="M52.91,103.55l-.75-.16s-.07.01-.09.04"/>
        <line class="cls-1" x1="61.18" y1="110.23" x2="51.91" y2="107.96"/>
        <line class="cls-1" x1="61.11" y1="110.5" x2="51.84" y2="108.22"/>
        <path class="cls-1" d="M51.91,107.95l-.56-.14s-.04-.03-.04-.05"/>
        <path class="cls-1" d="M61.18,110.23l.65.16c.07.01.12.07.12.14"/>
        <path class="cls-1" d="M61.11,110.5l.56.14s.04.02.04.05"/>
        <path class="cls-1" d="M51.84,108.22l-.75-.18s-.06-.04-.06-.08"/>
        <line class="cls-1" x1="61.83" y1="113.07" x2="54.47" y2="119.14"/>
        <line class="cls-1" x1="61.65" y1="112.86" x2="54.28" y2="118.93"/>
        <path class="cls-1" d="M54.47,119.14l-.44.37s-.03.04-.02.07"/>
        <path class="cls-1" d="M61.83,113.07l.52-.43c.05-.05.07-.12.05-.18"/>
        <path class="cls-1" d="M61.65,112.86l.45-.36s.02-.04.01-.07"/>
        <path class="cls-1" d="M54.29,118.93l-.6.49s-.04.06-.02.1"/>
        <line class="cls-1" x1="64.66" y1="116.63" x2="57.11" y2="122.46"/>
        <line class="cls-1" x1="64.84" y1="116.86" x2="57.28" y2="122.68"/>
        <path class="cls-1" d="M57.11,122.46l-.46.35s-.05.02-.07,0"/>
        <path class="cls-1" d="M64.66,116.63l.53-.41c.06-.04.13-.04.19,0"/>
        <path class="cls-1" d="M64.84,116.86l.45-.35s.05-.02.07,0"/>
        <path class="cls-1" d="M57.28,122.68l-.61.47s-.07.02-.1,0"/>
        <path class="cls-1" d="M58.98,96.98c-1.78,1.47-3.24,3.3-4.28,5.37"/>
        <path class="cls-1" d="M52.94,110.09c.04,2.31.56,4.59,1.53,6.69"/>
        <path class="cls-1" d="M59.41,122.99c1.83,1.41,3.94,2.43,6.19,2.98"/>
        <path class="cls-1" d="M73.54,125.97c2.25-.56,4.35-1.57,6.18-2.98"/>
        <path class="cls-1" d="M84.68,116.78c.97-2.1,1.49-4.38,1.53-6.69"/>
        <path class="cls-1" d="M84.44,102.34c-1.04-2.07-2.5-3.9-4.28-5.37"/>
        <path class="cls-1" d="M74.54,93.93c-2.72-.85-5.61-.99-8.4-.4"/>
        <path class="cls-1" d="M73.92,91.89l-.75,1.56c-.03.06-.1.09-.17.08"/>
        <path class="cls-1" d="M73.92,91.89l.25-.52s.06-.06.09-.05"/>
        <path class="cls-1" d="M65.23,91.89l.75,1.56c.03.06.1.09.16.08"/>
        <path class="cls-1" d="M65.23,91.89l-.25-.52s-.06-.06-.09-.05"/>
        <path class="cls-1" d="M58.27,95.24l.75,1.55c.03.06.01.14-.04.18"/>
        <path class="cls-1" d="M58.27,95.24l-.25-.52s0-.07.02-.1"/>
        <path class="cls-1" d="M52.85,102.04l1.68.39c.07.02.14-.02.17-.08"/>
        <path class="cls-1" d="M52.85,102.04l-.56-.13s-.08,0-.09.04"/>
        <path class="cls-1" d="M51.13,109.56l1.68.38c.07.02.12.07.12.14"/>
        <path class="cls-1" d="M51.13,109.56l-.56-.13s-.07-.04-.07-.08"/>
        <path class="cls-1" d="M53.07,118.04l1.36-1.07c.05-.04.07-.12.04-.18"/>
        <path class="cls-1" d="M53.07,118.04l-.45.36s-.04.07-.02.1"/>
        <path class="cls-1" d="M57.88,124.07l1.34-1.08c.05-.05.13-.05.19,0"/>
        <path class="cls-1" d="M57.88,124.07l-.45.36s-.08.03-.11,0"/>
        <path class="cls-1" d="M65.71,127.84v-1.73c0-.07-.04-.13-.11-.15"/>
        <path class="cls-1" d="M65.71,127.84v.58s.02.07.06.08"/>
        <path class="cls-1" d="M73.43,127.84v-1.73c0-.07.04-.13.11-.15"/>
        <path class="cls-1" d="M73.43,127.84v.58s-.02.07-.06.08"/>
        <path class="cls-1" d="M81.26,124.07l-1.35-1.08c-.06-.05-.13-.05-.19,0"/>
        <path class="cls-1" d="M81.26,124.07l.45.36s.07.03.11,0"/>
        <path class="cls-1" d="M86.07,118.04l-1.35-1.07c-.06-.04-.07-.12-.04-.18"/>
        <path class="cls-1" d="M86.07,118.04l.45.36s.04.07.02.1"/>
        <path class="cls-1" d="M88.01,109.56l-1.68.38c-.07.02-.12.07-.12.14"/>
        <path class="cls-1" d="M88.01,109.56l.57-.13s.06-.04.06-.08"/>
        <path class="cls-1" d="M86.29,102.04l-1.68.39c-.07.02-.14-.02-.17-.08"/>
        <path class="cls-1" d="M86.29,102.04l.57-.13s.07,0,.09.04"/>
        <path class="cls-1" d="M80.87,95.24l-.75,1.55c-.03.06-.02.14.04.18"/>
        <path class="cls-1" d="M80.87,95.24l.25-.52s0-.07-.02-.1"/>
        <path class="cls-1" d="M72.04,123.01c2.33-.44,4.51-1.49,6.31-3.04"/>
        <path class="cls-1" d="M81.43,116.11c1.11-2.1,1.65-4.45,1.55-6.82"/>
        <path class="cls-1" d="M81.89,104.46c-.95-2.18-2.45-4.07-4.36-5.47"/>
        <path class="cls-1" d="M73.07,96.85c-2.29-.62-4.71-.62-7,0"/>
        <path class="cls-1" d="M61.62,98.99c-1.91,1.41-3.42,3.3-4.37,5.47"/>
        <path class="cls-1" d="M56.16,109.28c-.09,2.38.45,4.73,1.56,6.82"/>
        <path class="cls-1" d="M60.79,119.97c1.8,1.55,3.97,2.6,6.31,3.04"/>
        <path class="cls-1" d="M39.6,109.81c0-16.55,13.42-29.97,29.97-29.97s29.97,13.42,29.97,29.97-13.42,29.97-29.97,29.97-29.97-13.42-29.97-29.97Z"/>
        <path class="cls-1" d="M68.25,104.11c0-.73.59-1.32,1.32-1.32s1.32.59,1.32,1.32-.59,1.32-1.32,1.32-1.32-.59-1.32-1.32Z"/>
        <path class="cls-1" d="M63.32,106.96c0-.73.59-1.32,1.32-1.32s1.32.59,1.32,1.32-.59,1.32-1.32,1.32-1.32-.59-1.32-1.32Z"/>
        <path class="cls-1" d="M63.32,112.66c0-.73.59-1.32,1.32-1.32s1.32.59,1.32,1.32-.59,1.32-1.32,1.32-1.32-.59-1.32-1.32Z"/>
        <path class="cls-1" d="M68.25,115.51c0-.73.59-1.32,1.32-1.32s1.32.59,1.32,1.32-.59,1.32-1.32,1.32-1.32-.59-1.32-1.32Z"/>
        <path class="cls-1" d="M73.19,112.66c0-.73.59-1.32,1.31-1.32s1.32.59,1.32,1.32-.59,1.32-1.32,1.32-1.31-.59-1.31-1.32Z"/>
        <path class="cls-1" d="M73.19,106.96c0-.73.59-1.32,1.31-1.32s1.32.59,1.32,1.32-.59,1.32-1.32,1.32-1.31-.59-1.31-1.32Z"/>
        <path class="cls-1" d="M64.11,108.17c-.32,1.07-.32,2.21,0,3.28"/>
        <path class="cls-1" d="M65.42,113.71c.77.82,1.75,1.38,2.84,1.64"/>
        <path class="cls-1" d="M70.88,115.36c1.09-.25,2.07-.82,2.84-1.64"/>
        <path class="cls-1" d="M75.03,111.45c.32-1.07.32-2.21,0-3.28"/>
        <path class="cls-1" d="M73.72,105.91c-.77-.82-1.75-1.39-2.84-1.64"/>
        <path class="cls-1" d="M68.26,104.27c-1.09.25-2.07.82-2.84,1.64"/>
        <path class="cls-1" d="M66.97,109.81c0-1.43,1.16-2.6,2.6-2.6s2.6,1.16,2.6,2.6-1.16,2.6-2.6,2.6-2.6-1.16-2.6-2.6Z"/>
        <line class="cls-1" x1="36.26" y1="106.54" x2="38.69" y2="106.54"/>
        <line class="cls-1" x1="37.38" y1="118.01" x2="39.62" y2="118.01"/>
        <line class="cls-1" x1="100.45" y1="106.54" x2="103.43" y2="106.54"/>
        <path class="cls-1" d="M100.23,114.78c1.52-.56,2.89-1.47,4-2.66"/>
      </g>
    </g>
  </g>
</svg>