<?xml version="1.0" encoding="UTF-8"?>
<svg id="Layer_1" data-name="Layer 1" xmlns="http://www.w3.org/2000/svg" xmlns:xlink="http://www.w3.org/1999/xlink" viewBox="0 0 162.62 364.74">
  <defs>
    <style>
      .cls-1 {
        stroke: #dfdfdf;
        stroke-linecap: round;
        stroke-linejoin: round;
        stroke-width: .71px;
      }

      .cls-1, .cls-2 {
        fill: none;
      }

      .cls-3 {
        clip-path: url(#clippath-1);
      }

      .cls-4 {
        isolation: isolate;
      }

      .cls-5 {
        clip-path: url(#clippath);
      }
    </style>
    <clipPath id="clippath">
      <rect class="cls-2" width="162.62" height="364.74"/>
    </clipPath>
    <clipPath id="clippath-1">
      <rect class="cls-2" x="-.38" width="163" height="365"/>
    </clipPath>
  </defs>
  <g class="cls-4">
    <g class="cls-5">
      <g class="cls-3">
        <path class="cls-1" d="M122.29,9.28c4.31,2.23,8.45,4.76,12.4,7.56,4.66,3.32,9.06,7,13.14,11.01.97.95,1.24,2.41.69,3.64-.71,1.57-1.42,3.14-2.12,4.71-.12.28-.37.49-.67.57-.43.12-.88.21-1.32.26-.84.09-1.7.11-2.54.06-.43-.02-.82-.25-1.05-.61-1.2-1.83-2.45-3.62-3.75-5.39-1.88-2.54-4.03-4.87-6.43-6.93-3.87-3.33-7.91-6.47-12.09-9.4-1.66-1.16-3.34-2.3-5.03-3.41-.47-.31-.92-.65-1.35-1.03-.02-.02-.04-.04-.06-.06-.25-.29-.23-.72.06-.98.22-.2.49-.34.79-.4.55-.12,1.12-.21,1.69-.24,2.23-.13,4.48-.04,6.69.27.34.05.67.17.96.36"/>
        <path class="cls-1" d="M81.31,5.69h5.73c6.17,0,12.34.09,18.5.27,2.88.08,5.76-.14,8.59-.68,2.61-.5,5.21-1.06,7.8-1.68.21-.05.43-.02.61.1.69.45,1.28,1.04,1.72,1.73,1.43,2.23,2.86,4.46,4.3,6.68"/>
        <path class="cls-1" d="M81.31.35h10.15c8.11,0,16.21.34,24.29,1.02,2.22.18,4.35.95,6.19,2.22"/>
        <path class="cls-1" d="M146.41,26.48l.15-.27c.12-.23.08-.51-.12-.69-2.01-1.83-3.99-3.7-5.94-5.61-.65-.63-1.16-1.38-1.54-2.21-.06-.14-.19-.23-.34-.26l-1.99-.12c-.26-.01-.51-.09-.74-.22-2.2-1.72-4.52-3.28-6.96-4.65-.15-.08-.28-.19-.38-.33"/>
        <path class="cls-1" d="M148.52,31.5c2.39,2.88,4,6.33,4.64,10.02.61,3.46.92,6.96.94,10.47.07,13.28.07,26.57.02,39.85,0,1.9-.18,3.8-.53,5.67-.3,1.62-.96,3.16-1.93,4.5"/>
        <path class="cls-1" d="M141.14,118.12l-7.04,18.86c-.46,1.25-.86,2.52-1.19,3.81-.61,2.43-1.04,4.91-1.27,7.4-.58,6.24-.88,12.51-.88,18.78,0,26.02-.09,52.05-.27,78.08,0,1.42.04,2.85.13,4.26.14,2.1.84,4.12,2.02,5.87,2.8,4.11,5.83,8.05,9.09,11.8,1.04,1.2,2.35,2.15,3.82,2.77,1.27.54,2.62.86,3.99.95,1.45.12,2.91.16,4.37.14"/>
        <path class="cls-1" d="M145.96,118.22c2.31.47,4.57,1.18,6.72,2.13,1.5.66,2.9,1.52,4.17,2.56.94.77,1.81,1.62,2.61,2.54,1.01,1.17,1.82,2.49,2.4,3.93.39.96.5,2,.33,3.02-.01.08-.08.13-.16.12l-16.98-3.26c-.2-.04-.36-.2-.39-.4-.09-.5-.12-1-.11-1.51.05-2.16.22-4.32.51-6.47.12-.84.31-1.66.57-2.46.04-.14.18-.22.32-.19"/>
        <path class="cls-1" d="M144.61,125.75l-1.94-.4c-.21-.04-.36-.21-.39-.42v-7.27s0-.04,0-.07c.04-.2.23-.34.43-.3,1.05.19,2.07.52,3.04.97"/>
        <path class="cls-1" d="M144.62,125.52l6.5,2.29c3.75,1.32,7.46,2.77,11.11,4.35"/>
        <line class="cls-1" x1="144.54" y1="127.52" x2="161.07" y2="131.66"/>
        <line class="cls-1" x1="137.7" y1="127.36" x2="144.6" y2="125.86"/>
        <path class="cls-1" d="M135.54,355.5l10.49-4.91c.83-.39,1.41-1.18,1.52-2.09.8-6.16,1.54-12.33,2.25-18.5.38-3.29.79-6.58,1.24-9.86.15-1.07.32-2.14.53-3.21.19-.99.31-1.98.36-2.99.15-17.86.17-35.73.08-53.59"/>
        <path class="cls-1" d="M151.93,248.49c-.03-3.35-.06-6.7-.09-10.05"/>
        <path class="cls-1" d="M149.63,225.02c.14-10.98.26-21.96.35-32.93"/>
        <path class="cls-1" d="M150.07,176.94c.09-15.57.11-31.14.07-46.71"/>
        <path class="cls-1" d="M150.13,119.35c.05-1,.17-1.99.38-2.96.59-2.81.97-5.65,1.13-8.51.34-19.5.46-39,.36-58.51-.02-2.78-.22-5.56-.61-8.31-.42-2.93-1.13-5.82-2.12-8.61"/>
        <path class="cls-1" d="M151.39,41.06l.55.22c.46.18.86.5,1.15.91.14.21.25.44.3.69"/>
        <path class="cls-1" d="M149.63,225.02l-.02,1.23c-.01,1.04.16,2.06.52,3.03.44,1.18.79,2.4,1.06,3.63.39,1.82.61,3.67.66,5.53"/>
        <line class="cls-1" x1="153.04" y1="232.38" x2="153.04" y2="130.79"/>
        <path class="cls-1" d="M153.04,120.52v-1.2c0-.83-.21-1.66-.61-2.39-.39-.74-.97-1.38-1.67-1.84"/>
        <path class="cls-1" d="M153.04,232.38v4.06c0,.38-.05.75-.13,1.12-.14.59-.53,1.09-1.07,1.36"/>
        <path class="cls-1" d="M151.91,245.59c1.12,2.74,1.74,5.66,1.83,8.61.18,17.5.39,35,.61,52.49.02,1.57-.2,3.14-.64,4.64-.32,1.09-.68,2.16-1.07,3.23-.22.57-.53,1.11-.93,1.57"/>
        <path class="cls-1" d="M81.31,362.7h34.46c1.08,0,2.16-.1,3.23-.3,8.49-2.18,16.73-5.27,24.56-9.21.17-.09.34-.18.51-.27.13-.07.24-.19.3-.33.21-.47.39-.96.52-1.47"/>
        <path class="cls-1" d="M81.31,363.29h34.46c1.12,0,2.25-.11,3.36-.31,3.07-.79,6.11-1.69,9.1-2.71"/>
        <path class="cls-1" d="M81.31,364.39h33.24c2.33,0,4.66-.23,6.94-.68,1.41-.28,2.81-.6,4.2-.96.12-.03.25-.06.37-.09.11-.03.22-.09.29-.17.88-1.01,1.74-2.04,2.58-3.09"/>
        <path class="cls-1" d="M148.72,333.7c-.7-1.31-1.65-2.46-2.82-3.37-.27-.21-.6-.34-.95-.36-.51-.03-1.02-.02-1.53.04-.55.06-.96.53-.95,1.08.02.98.03,1.96.03,2.93,0,.74-.05,1.48-.15,2.21-.28,2-.65,4-1.11,5.96-.32,1.38-1,2.64-1.95,3.69-1.32,1.45-2.73,2.8-4.23,4.07-.55.46-.88,1.13-.92,1.86-.03.58-.03,1.17,0,1.75,0,.11.01.21.03.32.01.11.11.19.22.18.01,0,.02,0,.04,0,3.28-1.29,6.53-2.66,9.74-4.11,1.22-.55,2.02-1.74,2.08-3.07.21-5.03.46-10.06.73-15.08.02-.26-.07-.51-.22-.71"/>
        <path class="cls-1" d="M148.72,333.7l.32.67c.12.25.18.53.16.8"/>
        <path class="cls-1" d="M81.31,321.68h44.55c.6,0,1.2.11,1.75.33,1.03.4,1.92,1.11,2.54,2.02.78,1.16,1.46,2.38,2,3.67,1.85,4.36,3.99,8.59,6.39,12.66.64,1.09,1.44,2.07,2.36,2.93"/>
        <path class="cls-1" d="M145.1,333.86c-.07,4.15-.2,8.3-.41,12.45-.07,1.45-.99,2.72-2.35,3.24-2.72,1.04-5.46,2.02-8.23,2.92"/>
        <path class="cls-1" d="M145.1,333.86v-.25c0-.24-.1-.48-.29-.63-.13-.11-.3-.17-.46-.18-.57-.01-1.14,0-1.71.03-.07,0-.12.05-.13.12"/>
        <path class="cls-1" d="M145.03,333.25c.59.66,1.11,1.38,1.58,2.12.1.16.15.35.15.54"/>
        <path class="cls-1" d="M81.31,343.97h18.74c6.24,0,12.45-.7,18.54-2.09,2.71-.62,5.36-1.51,7.89-2.66.97-.44,1.76-1.21,2.22-2.17.45-1.11.82-2.25,1.1-3.41.59-2.34,1.22-4.68,1.88-7"/>
        <path class="cls-1" d="M81.31,342.62h18.74c4.06,0,8.12-.3,12.13-.9"/>
        <path class="cls-1" d="M81.31,352.21h16.65c9.57,0,19.14-.52,28.66-1.56.98-.11,1.94-.4,2.81-.87,1.1-.59,2.07-1.39,2.87-2.36.18-.22.25-.52.18-.8-1.1-3.36-2.32-6.69-3.62-9.98"/>
        <path class="cls-1" d="M81.31,349.89h16.65c9.37,0,18.73-.5,28.04-1.5"/>
        <path class="cls-1" d="M130.14,281.86l-.12,30.14c-.01,3.16.58,6.29,1.74,9.23.4,1.02.82,2.02,1.25,3.03,1.31,3.06,2.83,6.02,4.56,8.86.22.37.49.7.79,1,.27.27.71.27.98,0,.03-.03.05-.06.08-.09.25-.36.45-.75.58-1.17,1.28-3.92,2.01-8.01,2.16-12.13.29-7.88.4-15.76.33-23.64-.02-2.33-.35-4.65-1-6.89-1.8-6.21-4.82-11.99-8.89-17-.22-.27-.61-.3-.88-.09h0c-.21.18-.4.38-.57.59-.23.29-.37.63-.41,1-.31,2.38-.5,4.77-.58,7.16"/>
        <path class="cls-1" d="M137.92,333.66c1.71-4.12,2.65-8.52,2.76-12.98.29-7.85.4-15.71.33-23.57-.02-2.2-.34-4.39-.95-6.5-1.75-6.18-4.84-11.9-9.02-16.77"/>
        <path class="cls-1" d="M139.81,320.27c.21-6.9.29-13.8.23-20.7-.02-2.08-.32-4.15-.9-6.15-1.29-4.52-3.3-8.79-5.96-12.66"/>
        <path class="cls-1" d="M131.68,280.17c-.04.57-.06,1.15-.08,1.72l-.12,30.12c-.01,2.97.54,5.92,1.64,8.69.36.97.78,1.93,1.25,2.86"/>
        <path class="cls-1" d="M133.18,280.76l-.22-.3c-.17-.25-.4-.46-.66-.61-.2-.11-.45-.05-.56.14-.03.05-.05.12-.05.18"/>
        <path class="cls-1" d="M134.36,323.56l.3.6c.75,1.48,1.54,2.95,2.38,4.38.18.32.59.43.91.24,0,0,.01,0,.02-.01.24-.14.43-.36.55-.6.11-.21.19-.43.25-.66.35-1.45.6-2.92.78-4.41.11-.94.2-1.89.26-2.84"/>
        <path class="cls-1" d="M117.74,321.68v16.36c0,.56-.25,1.09-.69,1.45-1.41,1.15-3.08,1.92-4.87,2.24"/>
        <path class="cls-1" d="M117.74,338.04l6.56-2.32c.58-.2,1.22-.16,1.77.12.24.12.47.26.7.4.59.37,1.16.78,1.69,1.23"/>
        <path class="cls-1" d="M125.2,335.6c.41-4.63.8-9.26,1.17-13.89"/>
        <path class="cls-1" d="M138.9,108.82c-2.95,9.43-6.02,18.82-9.22,28.16-.32.93-.52,1.89-.6,2.87-.57,6.5-.91,13.02-1.03,19.55-.2,11.8-.29,23.6-.26,35.4.09,38.56-.11,77.12-.62,115.68-.03,2.74-.09,5.48-.16,8.21-.03,1.02-.11,2.05-.25,3.06"/>
        <path class="cls-1" d="M137.85,108.56c-2.78,9.45-5.8,18.83-9.04,28.13-.34,1-.56,2.04-.66,3.08-.57,6.52-.91,13.07-1.03,19.61-.21,11.8-.29,23.61-.27,35.41.1,38.55-.11,77.11-.62,115.67-.04,2.73-.09,5.47-.17,8.2-.03.99-.11,1.98-.24,2.96"/>
        <path class="cls-1" d="M130.71,200.84c3.43-.93,6.83-1.97,10.2-3.12.75-.26,1.52-.44,2.3-.57,1.1-.17,2.19-.35,3.29-.53,1.12-.19,2.21-.54,3.24-1.06.09-.05.17-.12.23-.2"/>
        <path class="cls-1" d="M81.31,91.29h2.45c8,0,16,.4,23.96,1.19,8.23.82,16.26,2.98,23.8,6.38,1.63.73,3.18,1.63,4.62,2.68.29.21.57.45.82.71.34.36.5.85.43,1.34-.38,2.79-.99,5.54-1.83,8.22-2.58,8.28-5.21,16.54-7.89,24.79"/>
        <path class="cls-1" d="M81.31,95.68h2.45c7.95,0,15.89.4,23.8,1.19,8.06.81,15.93,2.92,23.31,6.25,1.27.57,2.48,1.25,3.63,2.02"/>
        <path class="cls-1" d="M135.25,106.7c-.32,1.56-.73,3.11-1.2,4.64-2.48,7.95-5,15.89-7.57,23.81"/>
        <path class="cls-1" d="M81.31,135.08h4.74c4.87,0,9.73.14,14.59.42,8.39.48,16.77,1.1,25.14,1.84.25.02.49.04.74.07.53.05,1.02-.3,1.15-.81"/>
        <path class="cls-1" d="M81.31,133.49h4.74c4.9,0,9.8.14,14.68.42,8.39.49,16.77,1.1,25.14,1.84"/>
        <path class="cls-1" d="M126.47,135.15l-.09.25c-.07.22-.28.37-.52.36"/>
        <path class="cls-1" d="M134.5,105.14l.21.14c.46.31.68.88.54,1.42"/>
        <line class="cls-1" x1="120.01" y1="199.66" x2="120.01" y2="218.31"/>
        <path class="cls-1" d="M125.65,218.53h-5.42c-.12,0-.21-.1-.22-.21"/>
        <path class="cls-1" d="M125.88,198.4h-4.51c-.71,0-1.31.55-1.36,1.26"/>
        <path class="cls-1" d="M126.13,217.28v-18.64c0-.13-.11-.24-.24-.24h0"/>
        <path class="cls-1" d="M126.13,217.28v.75c0,.27-.21.49-.48.5"/>
        <path class="cls-1" d="M124.6,218.53v-12.97c0-2.39.52-4.75,1.53-6.91"/>
        <line class="cls-1" x1="119.3" y1="318.77" x2="119.3" y2="302.5"/>
        <path class="cls-1" d="M125.16,320.02h-4.51c-.72,0-1.31-.55-1.36-1.26"/>
        <path class="cls-1" d="M125.41,303.35v16.43c0,.14-.11.24-.25.24"/>
        <path class="cls-1" d="M123.89,301.89v10.97c0,2.39.52,4.75,1.53,6.91"/>
        <path class="cls-1" d="M119.55,301.88h4.18c.14,0,.28.04.4.11.44.27.84.62,1.16,1.03.07.09.12.21.12.34"/>
        <path class="cls-1" d="M119.3,302.5v-.39c0-.13.12-.23.25-.22"/>
        <path class="cls-1" d="M124.25,198.4v-37.25c0-6.53.29-13.05.86-19.55.12-1.43.3-2.85.51-4.27"/>
        <path class="cls-1" d="M125.65,218.53c.18,28.16.06,56.33-.36,84.49"/>
        <path class="cls-1" d="M124.23,218.53c.18,27.79.06,55.58-.34,83.37"/>
        <path class="cls-1" d="M120.52,218.53c.18,27.79.06,55.57-.34,83.35"/>
        <path class="cls-1" d="M141.14,118.12l.72-1.91c.3-.8.7-1.56,1.21-2.26.49-.68,1.15-1.23,1.9-1.6.58-.29,1.18-.53,1.8-.72.43-.14.86-.3,1.27-.49,1.08-.48,2.24-.78,3.42-.87"/>
        <path class="cls-1" d="M144.8,129.11c-.03,47.2-.24,94.39-.62,141.58-.04,4.6-.24,9.2-.62,13.78-.25,3.07-.7,6.12-1.34,9.14"/>
        <path class="cls-1" d="M142.88,126.23c-.02,47.11-.21,94.23-.6,141.34"/>
        <path class="cls-1" d="M144.72,117.82c0-.1,0-.21,0-.31-.02-1.52-.29-3.04-.8-4.47"/>
        <path class="cls-1" d="M81.31,85.85h5.56c6.58,0,13.15.32,19.7.96,3.71.36,7.39.92,11.04,1.67,6.24,1.29,12.15,3.81,17.38,7.42.76.53,1.48,1.12,2.13,1.77.73.72,1.27,1.61,1.58,2.59.25.78.43,1.57.54,2.38.29,2.06.17,4.16-.34,6.18"/>
        <path class="cls-1" d="M81.31,86.93h5.56c6.54,0,13.09.32,19.6.96,3.67.36,7.31.91,10.92,1.66,6.09,1.26,11.87,3.72,16.99,7.25.71.49,1.38,1.04,1.98,1.65.6.6,1.05,1.34,1.31,2.15.23.72.39,1.45.5,2.2.27,1.92.16,3.88-.32,5.76"/>
        <path class="cls-1" d="M110.97,13.89c8.31,4.98,16.04,10.87,23.05,17.57.99.95,1.93,1.97,2.8,3.03.86,1.07,1.47,2.31,1.79,3.64.36,1.49.59,3.01.69,4.54.26,3.83.4,7.68.4,11.52,0,13.04.53,26.08,1.58,39.09.14,1.67.16,3.35.07,5.02-.09,1.71-.31,3.4-.64,5.08-.2,1.01-.67,1.94-1.35,2.71"/>
        <path class="cls-1" d="M117.61,88.48l-8.03-71.34c-.05-.41-.03-.83.06-1.23.15-.75.51-1.43,1.03-1.98.08-.08.2-.1.3-.04"/>
        <path class="cls-1" d="M110.74,13.85l7.24,62.75c.28,2.41.37,4.82.27,7.24-.06,1.56-.28,3.12-.64,4.64"/>
        <line class="cls-1" x1="81.31" y1="41.83" x2="97.72" y2="41.83"/>
        <path class="cls-1" d="M81.31,54.23h16.6c.62,0,1.23-.14,1.79-.42,1.68-.82,2.9-2.37,3.29-4.21.25-1.14.25-2.32.01-3.46-.52-2.5-2.73-4.3-5.29-4.31"/>
        <path class="cls-1" d="M81.31,49.23h14.97c.38,0,.75-.18.98-.49.69-.93,1.11-2.03,1.2-3.19"/>
        <line class="cls-1" x1="81.31" y1="74.93" x2="101.02" y2="74.93"/>
        <path class="cls-1" d="M103,49.6l-.37,23.77c-.02.87-.73,1.57-1.6,1.56"/>
        <line class="cls-1" x1="98.38" y1="54.2" x2="102.15" y2="74.48"/>
        <path class="cls-1" d="M128.01,338.09l3.65,9.85c.02.07.02.14-.02.2"/>
        <line class="cls-1" x1="124.08" y1="340.22" x2="127.71" y2="350.03"/>
        <path class="cls-1" d="M127.71,350.03l.1.27c.02.05.08.09.14.08"/>
        <line class="cls-1" x1="123.11" y1="340.58" x2="126.74" y2="350.38"/>
        <path class="cls-1" d="M126.74,350.38l.06.17s.05.06.09.06"/>
        <path class="cls-1" d="M81.31,349.45h12.66c9.78,0,19.55-.49,29.27-1.47.27-.03.54-.08.8-.16.47-.14.75-.62.64-1.1-.47-2.06-1.06-4.08-1.78-6.07"/>
        <path class="cls-1" d="M135.54,355.5l-.21.1c-.13.06-.26.11-.4.16-.01,0-.02,0-.03,0-.23.06-.46-.08-.51-.3-.12-.46-.16-.95-.12-1.43"/>
        <line class="cls-1" x1="134.33" y1="357.36" x2="134.47" y2="355.63"/>
        <path class="cls-1" d="M112.16,10.34c10.56,4.99,20.82,10.6,30.73,16.79.4.25.77.54,1.11.88.35.34.46.86.28,1.32-.98,2.55-1.91,5.12-2.81,7.7"/>
        <path class="cls-1" d="M144.4,37.04l2.36-5.54c.14-.32.02-.7-.28-.89-.72-.45-1.47-.83-2.25-1.16"/>
        <line class="cls-1" x1="112.95" y1="8.9" x2="138.49" y2="24.43"/>
        <path class="cls-1" d="M81.31,9.76h3.88c5.88,0,11.75.25,17.61.74,3.1.26,6.2.38,9.31.34.24,0,.47,0,.71.03"/>
        <path class="cls-1" d="M115.97,4.92c1.34,1.16,2.57,2.44,3.69,3.82"/>
        <line class="cls-1" x1="81.55" y1="318.4" x2="83.34" y2="318.4"/>
        <path class="cls-1" d="M81.31,310.33h.14c.26,0,.5.08.71.23.81.6,1.3,1.54,1.34,2.55v5.13c0,.09-.07.16-.15.16"/>
        <path class="cls-1" d="M81.55,318.4v-5.85c0-.13-.1-.24-.24-.25"/>
        <path class="cls-1" d="M81.55,318.4v.07c0,.13-.11.24-.24.24"/>
        <path class="cls-1" d="M126.52,137.41l.62.09c.69.1,1.35.3,1.98.6"/>
        <path class="cls-1" d="M129.12,138.1l.14.07s.08,0,.09-.03t0,0"/>
        <path class="cls-1" d="M142.76,114.41c-.43-2.4-1.78-4.54-3.76-5.97"/>
        <path class="cls-1" d="M81.31,2.44h4.72c6.61,0,13.21.19,19.8.57,1.32.08,2.63.28,3.92.61,1.39.36,2.72.95,3.91,1.75"/>
        <path class="cls-1" d="M116.41,11c.62-.22,1.27-.34,1.93-.36.11,0,.23,0,.34,0,.08,0,.16.02.22.05,8.7,5.01,17.09,10.52,25.15,16.49.41.31.8.64,1.16,1.01.29.29.4.7.3,1.09-.06.23-.13.45-.21.67"/>
        <path class="cls-1" d="M120.54,10.36l-1.5.14c-.08,0-.14.08-.13.16,0,.02,0,.04.01.05"/>
        <path class="cls-1" d="M120.54,10.36h.14c.06-.02.13,0,.18.02,1.89.9,3.74,1.9,5.53,2.99,4.45,2.72,8.79,5.6,13.01,8.66,2.06,1.49,4.05,3.1,5.94,4.81.34.31.67.63.99.97.19.21.38.42.57.63.49.57.6,1.38.29,2.07-.15.33-.29.66-.42,1"/>
        <path class="cls-1" d="M137.17,96.42c1.23-4.18,1.7-8.53,1.39-12.88-.79-11.13-1.13-22.28-1.02-33.44.04-4.11,0-8.21-.13-12.32-.07-2.18-.2-4.35-.39-6.51-.01-.15-.06-.3-.15-.43"/>
        <line class="cls-1" x1="137.17" y1="96.42" x2="136.86" y2="97.41"/>
        <path class="cls-1" d="M146.39,36.21c.7,2.98,1.59,5.92,2.67,8.79.56,1.49.93,3.05,1.1,4.63,1.13,10.69,1.57,21.45,1.29,32.19-.15,5.65-.34,11.29-.58,16.93-.18,4.27-1.14,8.47-2.85,12.39"/>
        <path class="cls-1" d="M143.13,37.12c1.23,8.38,2.15,16.8,2.75,25.25.85,11.88,1.47,23.78,1.86,35.69.14,4.4.15,8.81.02,13.21"/>
        <path class="cls-1" d="M146.35,36.29l-.08.18c-.26.59-.42,1.22-.48,1.87-.53,6.11-.65,12.26-.36,18.39"/>
        <path class="cls-1" d="M147.41,111.41c0,2.38,0,4.76,0,7.14"/>
        <path class="cls-1" d="M147.39,129.7c0,15.59,0,31.18,0,46.78"/>
        <path class="cls-1" d="M147.4,191.16c.02,15.11.04,30.21.07,45.32,0,3.31-.1,6.61-.31,9.91"/>
        <path class="cls-1" d="M130.7,205.39c4.02-.23,8.02-.7,11.99-1.39"/>
        <path class="cls-1" d="M130.73,195.32c2.98-.85,5.87-2.02,8.61-3.47,1.15-.61,2.29-1.24,3.41-1.9"/>
        <path class="cls-1" d="M122.06,9.15c-.31-.05-.63,0-.91.15-.1.05-.18.12-.24.21-.09.12-.17.25-.24.38-.08.14-.1.31-.05.47"/>
        <path class="cls-1" d="M81.31,5.55c2.92,0,5.28-.62,5.28-1.38s-2.37-1.38-5.28-1.38"/>
        <path class="cls-1" d="M86.56,4.02h2.04c5.58,0,11.17.11,16.75.33,1.92.07,3.8.55,5.51,1.4"/>
        <path class="cls-1" d="M149,246.44c.04-1.29.4-2.55,1.06-3.66.07-.12.19-.22.32-.26.32-.11.66.06.77.38.32.93.52,1.89.6,2.87.34,4.33.51,8.67.52,13.01,0,1.11-.36,2.19-1.04,3.07-.16.2-.39.32-.64.34-.5.04-.96-.25-1.16-.7-.17-.39-.28-.8-.34-1.23-.11-.89-.16-1.78-.16-2.67,0-.2.1-.38.26-.49.3-.2.61-.37.93-.52.23-.11.39-.32.42-.57.06-.42.09-.84.09-1.26,0-2.28-.03-4.56-.11-6.84,0-.19-.1-.36-.26-.46-.29-.18-.6-.34-.92-.48-.21-.09-.34-.3-.34-.52"/>
        <line class="cls-1" x1="152.26" y1="258.37" x2="148.94" y2="258.38"/>
        <path class="cls-1" d="M149,246.45c-.35,3.7-.38,7.43-.07,11.13"/>
        <path class="cls-1" d="M147.31,177.36c.04-1.29.4-2.55,1.06-3.66.07-.12.19-.22.32-.27.32-.11.66.06.77.38.32.93.52,1.89.59,2.87.34,4.33.51,8.67.51,13.01,0,1.11-.36,2.19-1.04,3.07-.15.2-.38.32-.63.34-.5.03-.96-.25-1.16-.7-.18-.39-.29-.8-.34-1.23-.1-.89-.16-1.78-.16-2.67,0-.2.1-.38.27-.49.29-.2.61-.37.93-.52.23-.11.38-.32.42-.57.06-.42.09-.84.09-1.26,0-2.28-.03-4.56-.1-6.84,0-.19-.11-.36-.27-.46-.29-.18-.6-.34-.92-.48-.21-.09-.34-.29-.34-.52"/>
        <line class="cls-1" x1="150.57" y1="189.29" x2="147.25" y2="189.3"/>
        <path class="cls-1" d="M147.31,177.37c-.35,3.7-.38,7.43-.07,11.13"/>
        <path class="cls-1" d="M145.9,330.33c.11-3.85.25-7.69.4-11.54.03-.72.26-1.41.66-2.01.92-1.34,1.6-2.82,2.04-4.38,1.33-4.8,2.07-9.75,2.19-14.73.3-11.86.25-23.73-.15-35.59"/>
        <path class="cls-1" d="M150.63,242.49v-.53c0-2.41-.45-4.79-1.32-7.04-.06-.14-.22-.21-.36-.16-.09.03-.16.11-.18.2-.73,3.78-1.25,7.59-1.53,11.43,0,.02-.02.04-.05.04-.02,0-.04-.02-.04-.05"/>
        <path class="cls-1" d="M146.42,317.96c.22-3.95.14-7.92-.24-11.86"/>
        <line class="cls-1" x1="142.41" y1="249.73" x2="130.88" y2="251.07"/>
        <line class="cls-1" x1="142.4" y1="251.16" x2="131.27" y2="252.45"/>
        <path class="cls-1" d="M81.31,357.36h29.06c1.23,0,2.46-.18,3.64-.53,2.64-.78,5.33-1.36,8.06-1.73,4.03-.55,8.05-1.15,12.06-1.8"/>
        <path class="cls-1" d="M81.31,354.41h2.05c.33,0,.65.09.93.26.73.43,1.37,1,1.89,1.66.23.29.34.65.33,1.02"/>
        <path class="cls-1" d="M81.31,359.95h10.98c3.63,0,7.25-.2,10.86-.59,10.42-1.14,20.81-2.6,31.14-4.38"/>
        <path class="cls-1" d="M81.31,361.29h34.01c1.37,0,2.73-.14,4.07-.43,1.72-.37,3.42-.84,5.08-1.4,1.33-.45,2.16-1.79,1.98-3.18"/>
        <path class="cls-1" d="M134.13,352.19l-21.28,2.31c-1.53.17-3.05.39-4.56.65-.97.17-1.85.68-2.48,1.44-.18.21-.29.48-.32.77-.06.57-.39,1.07-.89,1.35-.61.34-1.27.57-1.96.7"/>
        <line class="cls-1" x1="109.25" y1="354.99" x2="122.84" y2="354.99"/>
        <path class="cls-1" d="M81.31,359.64c2.88,0,5.22-.5,5.22-1.11s-2.34-1.11-5.22-1.11"/>
        <path class="cls-1" d="M40.33,9.28c-4.31,2.23-8.45,4.76-12.4,7.56-4.66,3.32-9.06,7-13.14,11.01-.97.95-1.24,2.41-.68,3.64.71,1.57,1.41,3.14,2.12,4.71.12.28.37.49.67.57.43.12.88.21,1.33.26.84.09,1.69.11,2.54.06.42-.02.81-.25,1.05-.61,1.2-1.83,2.45-3.62,3.75-5.39,1.88-2.54,4.03-4.87,6.43-6.93,3.87-3.33,7.91-6.47,12.09-9.4,1.66-1.16,3.34-2.3,5.03-3.41.47-.31.92-.65,1.35-1.03.29-.25.31-.69.06-.98-.02-.02-.04-.04-.06-.06-.22-.2-.49-.34-.78-.4-.56-.12-1.12-.21-1.69-.24-2.23-.13-4.48-.04-6.7.27-.34.05-.67.17-.96.36"/>
        <path class="cls-1" d="M81.31,5.69h-5.73c-6.17,0-12.34.09-18.5.27-2.88.08-5.76-.14-8.59-.68-2.61-.5-5.21-1.06-7.8-1.68-.21-.05-.43-.02-.61.1-.69.45-1.28,1.04-1.72,1.73-1.43,2.23-2.86,4.46-4.31,6.68"/>
        <path class="cls-1" d="M81.31.35h-10.15c-8.11,0-16.21.34-24.29,1.02-2.22.18-4.36.95-6.19,2.22"/>
        <path class="cls-1" d="M16.21,26.48l-.15-.27c-.12-.23-.07-.51.12-.69,2.01-1.83,4-3.7,5.94-5.61.65-.63,1.17-1.38,1.54-2.21.06-.14.19-.23.34-.26l1.99-.12c.26-.01.51-.09.74-.22,2.2-1.72,4.52-3.28,6.96-4.65.14-.08.27-.19.38-.33"/>
        <path class="cls-1" d="M14.11,31.5c-2.39,2.88-4,6.33-4.64,10.02-.61,3.46-.92,6.96-.94,10.47-.06,13.28-.07,26.57-.02,39.85,0,1.9.18,3.8.53,5.67.3,1.62.96,3.16,1.93,4.5"/>
        <path class="cls-1" d="M21.47,118.12l7.04,18.86c.46,1.25.86,2.52,1.19,3.81.61,2.43,1.04,4.91,1.27,7.4.59,6.24.88,12.51.88,18.78,0,26.02.09,52.05.27,78.08,0,1.42-.04,2.85-.13,4.26-.14,2.1-.84,4.12-2.02,5.87-2.8,4.11-5.83,8.05-9.09,11.8-1.05,1.2-2.36,2.15-3.83,2.77-1.27.54-2.62.86-3.99.95-1.45.12-2.91.16-4.37.14"/>
        <path class="cls-1" d="M16.66,118.22c-2.31.47-4.57,1.18-6.73,2.13-1.5.66-2.9,1.52-4.16,2.56-.94.77-1.81,1.62-2.61,2.54-1.01,1.17-1.82,2.49-2.4,3.93-.39.96-.5,2-.33,3.02.01.08.09.13.16.12l16.97-3.26c.2-.04.36-.2.39-.4.09-.5.12-1,.11-1.51-.05-2.16-.22-4.32-.52-6.47-.11-.84-.31-1.66-.57-2.46-.04-.14-.18-.22-.32-.19"/>
        <path class="cls-1" d="M18.02,125.75l1.94-.4c.21-.04.36-.21.38-.42v-7.27c0-.21-.17-.37-.37-.37-.02,0-.04,0-.07,0-1.05.19-2.07.52-3.04.97"/>
        <path class="cls-1" d="M18,125.52l-6.5,2.29c-3.75,1.32-7.46,2.77-11.11,4.35"/>
        <line class="cls-1" x1="18.08" y1="127.52" x2="1.55" y2="131.66"/>
        <line class="cls-1" x1="24.92" y1="127.36" x2="18.02" y2="125.86"/>
        <path class="cls-1" d="M27.09,355.5l-10.5-4.91c-.83-.39-1.41-1.18-1.52-2.09-.79-6.16-1.54-12.33-2.24-18.5-.38-3.29-.79-6.58-1.24-9.86-.15-1.07-.32-2.14-.53-3.21-.19-.99-.31-1.98-.36-2.99-.14-17.86-.17-35.73-.08-53.59"/>
        <path class="cls-1" d="M10.69,248.49c.03-3.35.06-6.7.09-10.05"/>
        <path class="cls-1" d="M13,225.02c-.15-10.98-.26-21.96-.35-32.93"/>
        <path class="cls-1" d="M12.55,176.94c-.09-15.57-.11-31.14-.07-46.71"/>
        <path class="cls-1" d="M12.49,119.35c-.04-1-.17-1.99-.38-2.96-.59-2.81-.97-5.65-1.14-8.51-.34-19.5-.46-39-.35-58.51.02-2.78.22-5.56.61-8.31.42-2.93,1.13-5.82,2.12-8.61"/>
        <path class="cls-1" d="M11.24,41.06l-.55.22c-.46.18-.86.5-1.15.91-.14.21-.24.44-.29.69"/>
        <path class="cls-1" d="M13,225.02l.02,1.23c.01,1.04-.17,2.06-.52,3.03-.43,1.18-.79,2.4-1.06,3.63-.39,1.82-.61,3.67-.66,5.53"/>
        <line class="cls-1" x1="9.58" y1="232.38" x2="9.58" y2="130.79"/>
        <path class="cls-1" d="M9.58,120.52v-1.2c0-.83.21-1.66.6-2.39.4-.74.98-1.38,1.67-1.84"/>
        <path class="cls-1" d="M9.58,232.38v4.06c0,.38.04.75.13,1.12.14.59.53,1.09,1.07,1.36"/>
        <path class="cls-1" d="M10.71,245.59c-1.12,2.74-1.74,5.66-1.83,8.61-.18,17.5-.39,35-.61,52.49-.02,1.57.19,3.14.63,4.64.32,1.09.68,2.16,1.07,3.23.22.57.54,1.11.94,1.57"/>
        <path class="cls-1" d="M81.31,362.7h-34.46c-1.08,0-2.16-.1-3.23-.3-8.49-2.18-16.73-5.27-24.56-9.21-.17-.09-.34-.18-.51-.27-.13-.07-.24-.19-.3-.33-.21-.47-.39-.96-.52-1.47"/>
        <path class="cls-1" d="M81.31,363.29h-34.46c-1.12,0-2.25-.11-3.36-.31-3.07-.79-6.11-1.69-9.11-2.71"/>
        <path class="cls-1" d="M81.31,364.39h-33.24c-2.33,0-4.66-.23-6.94-.68-1.41-.28-2.81-.6-4.21-.96-.12-.03-.25-.06-.37-.09-.11-.03-.21-.09-.29-.17-.88-1.01-1.74-2.04-2.58-3.09"/>
        <path class="cls-1" d="M13.91,333.7c.69-1.31,1.65-2.46,2.82-3.37.27-.21.6-.34.95-.36.51-.03,1.02-.02,1.53.04.55.06.96.53.94,1.08-.02.98-.03,1.96-.03,2.93,0,.74.05,1.48.15,2.21.28,2,.65,4,1.11,5.96.32,1.38,1,2.64,1.95,3.69,1.32,1.45,2.73,2.8,4.23,4.07.55.46.88,1.13.92,1.86.03.58.03,1.17,0,1.75,0,.11-.01.21-.03.32,0,0,0,.02,0,.03-.03.11-.14.17-.25.14-3.28-1.29-6.53-2.66-9.74-4.11-1.22-.55-2.02-1.74-2.08-3.07-.22-5.03-.46-10.06-.74-15.08-.01-.26.07-.51.23-.71"/>
        <path class="cls-1" d="M13.91,333.7l-.32.67c-.12.25-.18.53-.16.8"/>
        <path class="cls-1" d="M81.31,321.68h-44.55c-.6,0-1.2.11-1.75.33-1.03.4-1.92,1.11-2.54,2.02-.78,1.16-1.46,2.38-2,3.67-1.85,4.36-3.98,8.59-6.38,12.66-.65,1.09-1.44,2.07-2.36,2.93"/>
        <path class="cls-1" d="M17.52,333.86c.07,4.15.2,8.3.4,12.45.07,1.45,1,2.72,2.35,3.24,2.71,1.04,5.46,2.02,8.23,2.92"/>
        <path class="cls-1" d="M17.52,333.86v-.25c0-.24.1-.48.29-.63.13-.11.29-.17.47-.18.57-.01,1.14,0,1.71.03.07,0,.12.05.14.12"/>
        <path class="cls-1" d="M17.6,333.25c-.59.66-1.11,1.38-1.58,2.12-.1.16-.16.35-.16.54"/>
        <path class="cls-1" d="M81.31,343.97h-18.74c-6.24,0-12.45-.7-18.54-2.09-2.71-.62-5.36-1.51-7.89-2.66-.97-.44-1.76-1.21-2.22-2.17-.45-1.11-.82-2.25-1.1-3.41-.59-2.34-1.22-4.68-1.89-7"/>
        <path class="cls-1" d="M81.31,342.62h-18.74c-4.06,0-8.12-.3-12.13-.9"/>
        <path class="cls-1" d="M81.31,352.21h-16.65c-9.57,0-19.14-.52-28.66-1.56-.99-.11-1.94-.4-2.81-.87-1.1-.59-2.07-1.39-2.87-2.36-.18-.22-.25-.52-.18-.8,1.11-3.36,2.32-6.69,3.62-9.98"/>
        <path class="cls-1" d="M81.31,349.89h-16.65c-9.37,0-18.73-.5-28.05-1.5"/>
        <path class="cls-1" d="M32.48,281.86l.12,30.14c.01,3.16-.58,6.29-1.74,9.23-.4,1.02-.82,2.02-1.25,3.03-1.31,3.06-2.83,6.02-4.55,8.86-.22.37-.49.7-.79,1-.03.03-.06.05-.09.08-.31.21-.75.14-.96-.18-.25-.36-.45-.75-.58-1.17-1.28-3.92-2.01-8.01-2.16-12.13-.29-7.88-.4-15.76-.33-23.64.02-2.33.36-4.65,1.01-6.89,1.8-6.21,4.82-11.99,8.89-17h0c.22-.27.61-.3.87-.09.21.18.4.38.57.59.22.29.37.63.41,1,.31,2.38.5,4.77.58,7.16"/>
        <path class="cls-1" d="M24.7,333.66c-1.71-4.12-2.64-8.52-2.76-12.98-.29-7.85-.4-15.71-.33-23.57.02-2.2.34-4.39.95-6.5,1.76-6.18,4.84-11.9,9.03-16.77"/>
        <path class="cls-1" d="M22.82,320.27c-.21-6.9-.29-13.8-.23-20.7.02-2.08.32-4.15.9-6.15,1.29-4.52,3.3-8.79,5.97-12.66"/>
        <path class="cls-1" d="M30.94,280.17c.03.57.06,1.15.08,1.72l.12,30.12c.01,2.97-.54,5.92-1.63,8.69-.36.97-.78,1.93-1.25,2.86"/>
        <path class="cls-1" d="M29.45,280.76l.21-.3c.17-.25.4-.46.66-.61.05-.03.11-.05.18-.05.23-.02.42.15.44.38"/>
        <path class="cls-1" d="M28.26,323.56l-.3.6c-.75,1.48-1.54,2.95-2.38,4.38,0,0,0,.01,0,.02-.2.31-.6.41-.92.21-.24-.14-.43-.36-.56-.6-.11-.21-.19-.43-.25-.66-.35-1.45-.61-2.92-.78-4.41-.11-.94-.2-1.89-.26-2.84"/>
        <path class="cls-1" d="M44.88,321.68v16.36c0,.56.25,1.09.69,1.45,1.41,1.15,3.08,1.92,4.87,2.24"/>
        <path class="cls-1" d="M44.88,338.04l-6.56-2.32c-.58-.2-1.22-.16-1.77.12-.24.12-.48.26-.7.4-.59.37-1.16.78-1.69,1.23"/>
        <path class="cls-1" d="M37.42,335.6c-.41-4.63-.8-9.26-1.16-13.89"/>
        <path class="cls-1" d="M23.72,108.82c2.95,9.43,6.02,18.82,9.22,28.16.32.93.52,1.89.61,2.87.57,6.5.91,13.02,1.03,19.55.2,11.8.29,23.6.26,35.4-.09,38.56.11,77.12.62,115.68.03,2.74.09,5.48.16,8.21.03,1.02.11,2.05.25,3.06"/>
        <path class="cls-1" d="M24.77,108.56c2.78,9.45,5.8,18.83,9.04,28.13.34,1,.56,2.04.65,3.08.57,6.52.92,13.07,1.03,19.61.2,11.8.29,23.61.26,35.41-.09,38.55.11,77.11.62,115.67.04,2.73.09,5.47.16,8.2.03.99.11,1.98.25,2.96"/>
        <path class="cls-1" d="M31.91,200.84c-3.43-.93-6.83-1.97-10.2-3.12-.75-.26-1.52-.44-2.3-.57-1.1-.17-2.19-.35-3.29-.53-1.12-.19-2.21-.54-3.24-1.06-.09-.05-.17-.12-.23-.2"/>
        <path class="cls-1" d="M81.31,91.29h-2.45c-8,0-16,.4-23.96,1.19-8.23.82-16.26,2.98-23.8,6.38-1.62.73-3.17,1.63-4.62,2.68-.29.21-.56.45-.81.71-.34.36-.5.85-.43,1.34.38,2.79.99,5.54,1.83,8.22,2.58,8.28,5.21,16.54,7.89,24.79"/>
        <path class="cls-1" d="M81.31,95.68h-2.45c-7.95,0-15.89.4-23.8,1.19-8.06.81-15.92,2.92-23.3,6.25-1.27.57-2.48,1.25-3.63,2.02"/>
        <path class="cls-1" d="M27.38,106.7c.32,1.56.73,3.11,1.2,4.64,2.48,7.95,5,15.89,7.57,23.81"/>
        <path class="cls-1" d="M81.31,135.08h-4.74c-4.87,0-9.73.14-14.59.42-8.39.48-16.77,1.1-25.14,1.84-.25.02-.49.04-.74.07-.53.05-1.02-.3-1.15-.81"/>
        <path class="cls-1" d="M81.31,133.49h-4.74c-4.9,0-9.8.14-14.68.42-8.39.49-16.77,1.1-25.14,1.84"/>
        <path class="cls-1" d="M36.15,135.15l.08.25c.07.22.29.37.52.36"/>
        <path class="cls-1" d="M28.12,105.14l-.21.14c-.46.31-.68.88-.54,1.42"/>
        <line class="cls-1" x1="42.61" y1="199.66" x2="42.61" y2="218.31"/>
        <path class="cls-1" d="M36.97,218.53h5.42c.12,0,.21-.1.21-.21"/>
        <path class="cls-1" d="M36.74,198.4h4.51c.71,0,1.31.55,1.36,1.26"/>
        <path class="cls-1" d="M36.49,217.28v-18.64c0-.13.11-.24.25-.24"/>
        <path class="cls-1" d="M36.49,217.28v.75c0,.27.21.49.48.5"/>
        <path class="cls-1" d="M38.02,218.53v-12.97c0-2.39-.52-4.75-1.53-6.91"/>
        <line class="cls-1" x1="43.32" y1="318.77" x2="43.32" y2="302.5"/>
        <path class="cls-1" d="M37.45,320.02h4.51c.71,0,1.3-.55,1.35-1.26"/>
        <path class="cls-1" d="M37.21,303.35v16.43c0,.13.11.24.24.24h0"/>
        <path class="cls-1" d="M38.73,301.89v10.97c0,2.39-.52,4.75-1.53,6.91"/>
        <path class="cls-1" d="M43.07,301.88h-4.18c-.14,0-.28.04-.4.11-.45.27-.84.62-1.16,1.03-.07.09-.12.21-.12.34"/>
        <path class="cls-1" d="M43.32,302.5v-.38c0-.13-.1-.24-.23-.24h-.02"/>
        <path class="cls-1" d="M38.37,198.4v-37.25c0-6.53-.29-13.05-.86-19.55-.12-1.43-.3-2.85-.52-4.27"/>
        <path class="cls-1" d="M36.97,218.53c-.18,28.16-.06,56.33.36,84.49"/>
        <path class="cls-1" d="M38.39,218.53c-.18,27.79-.06,55.58.34,83.37"/>
        <path class="cls-1" d="M42.1,218.53c-.18,27.79-.06,55.57.34,83.35"/>
        <path class="cls-1" d="M21.47,118.12l-.71-1.91c-.3-.8-.71-1.56-1.21-2.26-.49-.68-1.15-1.23-1.9-1.6-.58-.29-1.18-.53-1.8-.72-.43-.14-.86-.3-1.27-.49-1.08-.48-2.24-.78-3.41-.87"/>
        <path class="cls-1" d="M17.82,129.11c.02,47.2.24,94.39.62,141.58.04,4.6.24,9.2.62,13.78.25,3.07.7,6.12,1.34,9.14"/>
        <path class="cls-1" d="M19.74,126.23c.02,47.11.22,94.23.6,141.34"/>
        <path class="cls-1" d="M17.91,117.82c0-.1,0-.21,0-.31.02-1.52.29-3.04.79-4.47"/>
        <path class="cls-1" d="M81.31,85.85h-5.56c-6.58,0-13.16.32-19.7.96-3.71.36-7.39.92-11.04,1.67-6.24,1.29-12.14,3.81-17.38,7.42-.77.53-1.48,1.12-2.13,1.77-.73.72-1.27,1.61-1.58,2.59-.25.78-.43,1.57-.54,2.38-.29,2.06-.17,4.16.34,6.18"/>
        <path class="cls-1" d="M81.31,86.93h-5.56c-6.54,0-13.09.32-19.6.96-3.67.36-7.32.91-10.93,1.66-6.09,1.26-11.87,3.72-16.98,7.25-.71.49-1.38,1.04-1.98,1.65-.6.6-1.05,1.34-1.31,2.15-.23.72-.39,1.45-.5,2.2-.27,1.92-.16,3.88.32,5.76"/>
        <path class="cls-1" d="M51.65,13.89c-8.31,4.98-16.04,10.87-23.05,17.57-1,.95-1.93,1.97-2.8,3.03-.86,1.07-1.48,2.31-1.79,3.64-.36,1.49-.59,3.01-.7,4.54-.26,3.83-.39,7.68-.4,11.52,0,13.04-.53,26.08-1.58,39.09-.13,1.67-.16,3.35-.07,5.02.09,1.71.31,3.4.64,5.08.2,1.01.67,1.94,1.35,2.71"/>
        <path class="cls-1" d="M45.01,88.48l8.03-71.34c.05-.41.03-.83-.06-1.23-.15-.75-.51-1.43-1.03-1.98-.08-.08-.2-.1-.3-.04"/>
        <path class="cls-1" d="M51.88,13.85l-7.25,62.75c-.27,2.41-.37,4.82-.27,7.24.06,1.56.28,3.12.64,4.64"/>
        <line class="cls-1" x1="81.31" y1="41.83" x2="64.9" y2="41.83"/>
        <path class="cls-1" d="M81.31,54.23h-16.6c-.62,0-1.23-.14-1.79-.42-1.68-.82-2.9-2.37-3.29-4.21-.25-1.14-.25-2.32-.01-3.46.52-2.5,2.73-4.3,5.29-4.31"/>
        <path class="cls-1" d="M81.31,49.23h-14.97c-.39,0-.75-.18-.98-.49-.69-.93-1.11-2.03-1.2-3.19"/>
        <line class="cls-1" x1="81.31" y1="74.93" x2="61.59" y2="74.93"/>
        <path class="cls-1" d="M59.63,49.6l.37,23.77c.01.87.73,1.57,1.6,1.56"/>
        <line class="cls-1" x1="64.25" y1="54.2" x2="60.47" y2="74.48"/>
        <path class="cls-1" d="M34.61,338.09l-3.65,9.85c-.02.07-.02.14.02.2"/>
        <line class="cls-1" x1="38.54" y1="340.22" x2="34.91" y2="350.03"/>
        <path class="cls-1" d="M34.91,350.03l-.1.27c-.02.05-.08.09-.13.08"/>
        <line class="cls-1" x1="39.51" y1="340.58" x2="35.88" y2="350.38"/>
        <path class="cls-1" d="M35.88,350.38l-.06.17s-.05.06-.09.06"/>
        <path class="cls-1" d="M81.31,349.45h-12.65c-9.78,0-19.55-.49-29.27-1.47-.27-.03-.54-.08-.8-.16-.47-.14-.75-.62-.64-1.1.47-2.06,1.06-4.08,1.79-6.07"/>
        <path class="cls-1" d="M27.09,355.5l.21.1c.13.06.26.11.4.16.22.07.46-.05.53-.27v-.03c.13-.46.17-.95.13-1.43"/>
        <line class="cls-1" x1="28.29" y1="357.36" x2="28.15" y2="355.63"/>
        <path class="cls-1" d="M50.46,10.34c-10.56,4.99-20.82,10.6-30.74,16.79-.4.25-.77.54-1.1.88-.35.34-.46.86-.28,1.32.98,2.55,1.91,5.12,2.8,7.7"/>
        <path class="cls-1" d="M18.22,37.04l-2.36-5.54c-.14-.32-.02-.7.28-.89.72-.45,1.47-.83,2.25-1.16"/>
        <line class="cls-1" x1="49.68" y1="8.9" x2="24.14" y2="24.43"/>
        <path class="cls-1" d="M81.31,9.76h-3.88c-5.88,0-11.75.25-17.61.74-3.1.26-6.2.38-9.31.34-.24,0-.47,0-.71.03"/>
        <path class="cls-1" d="M46.66,4.92c-1.34,1.16-2.57,2.44-3.69,3.82"/>
        <line class="cls-1" x1="81.07" y1="318.4" x2="79.28" y2="318.4"/>
        <path class="cls-1" d="M81.31,310.33h-.13c-.26,0-.51.08-.71.23-.81.6-1.31,1.54-1.34,2.55v5.13c0,.09.07.16.15.16"/>
        <path class="cls-1" d="M81.07,318.4v-5.85c0-.13.11-.24.24-.25"/>
        <path class="cls-1" d="M81.07,318.4v.07c0,.13.11.24.24.24"/>
        <path class="cls-1" d="M36.1,137.41l-.62.09c-.69.1-1.36.3-1.98.6"/>
        <path class="cls-1" d="M33.5,138.1l-.14.07s0,0,0,0c-.04.01-.08,0-.09-.04"/>
        <path class="cls-1" d="M19.86,114.41c.44-2.4,1.78-4.54,3.77-5.97"/>
        <path class="cls-1" d="M81.31,2.44h-4.72c-6.61,0-13.21.19-19.81.57-1.32.08-2.63.28-3.91.61-1.39.36-2.72.95-3.91,1.75"/>
        <path class="cls-1" d="M46.22,11c-.62-.22-1.27-.34-1.93-.36-.11,0-.23,0-.34,0-.08,0-.16.02-.22.05-8.7,5.01-17.09,10.52-25.15,16.49-.41.31-.8.64-1.16,1.01-.29.29-.4.7-.31,1.09.06.23.12.45.21.67"/>
        <path class="cls-1" d="M42.08,10.36l1.5.14s.04,0,.05.01c.07.03.1.12.07.19"/>
        <path class="cls-1" d="M42.08,10.36h-.14c-.06-.02-.13,0-.19.02-1.89.9-3.73,1.9-5.52,2.99-4.45,2.72-8.79,5.6-13.01,8.66-2.06,1.49-4.05,3.1-5.94,4.81-.34.31-.68.63-.99.97-.19.21-.38.42-.57.63-.49.57-.6,1.38-.29,2.07.15.33.29.66.42,1"/>
        <path class="cls-1" d="M25.45,96.42c-1.23-4.18-1.7-8.53-1.39-12.88.79-11.13,1.13-22.28,1.02-33.44-.04-4.11,0-8.21.13-12.32.07-2.18.2-4.35.39-6.51.02-.15.07-.3.15-.43"/>
        <line class="cls-1" x1="25.45" y1="96.42" x2="25.77" y2="97.41"/>
        <path class="cls-1" d="M16.23,36.21c-.69,2.98-1.58,5.92-2.67,8.79-.57,1.49-.93,3.05-1.1,4.63-1.13,10.69-1.57,21.45-1.29,32.19.15,5.65.34,11.29.57,16.93.18,4.27,1.15,8.47,2.85,12.39"/>
        <path class="cls-1" d="M19.49,37.12c-1.23,8.38-2.15,16.8-2.75,25.25-.84,11.88-1.46,23.78-1.85,35.69-.14,4.4-.15,8.81-.02,13.21"/>
        <path class="cls-1" d="M16.27,36.29l.08.18c.26.59.42,1.22.48,1.87.53,6.11.65,12.26.35,18.39"/>
        <path class="cls-1" d="M15.22,111.41c0,2.38,0,4.76,0,7.14"/>
        <path class="cls-1" d="M15.23,129.7c.01,15.59.01,31.18,0,46.78"/>
        <path class="cls-1" d="M15.22,191.16c-.02,15.11-.04,30.21-.07,45.32,0,3.31.09,6.61.31,9.91"/>
        <path class="cls-1" d="M31.92,205.39c-4.02-.23-8.02-.7-11.99-1.39"/>
        <path class="cls-1" d="M31.89,195.32c-2.98-.85-5.87-2.02-8.61-3.47-1.15-.61-2.29-1.24-3.41-1.9"/>
        <path class="cls-1" d="M40.56,9.15c.31-.05.63,0,.91.15.1.05.18.12.24.21.09.12.16.25.24.38.08.14.1.31.06.47"/>
        <path class="cls-1" d="M81.31,5.55c-2.92,0-5.28-.62-5.28-1.38s2.37-1.38,5.28-1.38"/>
        <path class="cls-1" d="M76.06,4.02h-2.04c-5.59,0-11.17.11-16.75.33-1.92.07-3.8.55-5.51,1.4"/>
        <path class="cls-1" d="M13.63,246.44c-.04-1.29-.4-2.55-1.05-3.66-.17-.29-.54-.38-.83-.21-.12.07-.22.19-.26.32-.32.93-.52,1.89-.6,2.87-.34,4.33-.51,8.67-.52,13.01,0,1.11.36,2.19,1.04,3.07.15.2.38.32.63.34.5.04.96-.25,1.16-.7.18-.39.29-.8.34-1.23.11-.89.16-1.78.16-2.67,0-.2-.1-.38-.26-.49-.3-.2-.6-.37-.93-.52-.22-.11-.38-.32-.42-.57-.06-.42-.09-.84-.09-1.26,0-2.28.03-4.56.1-6.84,0-.19.11-.36.27-.46.29-.18.6-.34.92-.48.21-.09.34-.3.34-.52"/>
        <line class="cls-1" x1="10.36" y1="258.37" x2="13.68" y2="258.38"/>
        <path class="cls-1" d="M13.63,246.45c.35,3.7.38,7.43.07,11.13"/>
        <path class="cls-1" d="M15.31,177.36c-.03-1.29-.4-2.55-1.06-3.66-.17-.29-.54-.39-.83-.21-.12.07-.22.19-.27.32-.32.93-.52,1.89-.59,2.87-.34,4.33-.51,8.67-.52,13.01,0,1.11.37,2.19,1.04,3.07.15.2.38.32.63.34.5.03.96-.25,1.16-.7.17-.39.29-.8.34-1.23.1-.89.16-1.78.16-2.67,0-.2-.1-.38-.27-.49-.3-.2-.6-.37-.93-.52-.23-.11-.38-.32-.42-.57-.06-.42-.09-.84-.09-1.26,0-2.28.03-4.56.11-6.84,0-.19.1-.36.27-.46.29-.18.6-.34.92-.48.21-.09.34-.29.34-.52"/>
        <line class="cls-1" x1="12.05" y1="189.29" x2="15.37" y2="189.3"/>
        <path class="cls-1" d="M15.31,177.37c.35,3.7.37,7.43.07,11.13"/>
        <path class="cls-1" d="M16.72,330.33c-.11-3.85-.25-7.69-.4-11.54-.03-.72-.26-1.41-.66-2.01-.92-1.34-1.61-2.82-2.04-4.38-1.33-4.8-2.07-9.75-2.19-14.73-.3-11.86-.24-23.73.16-35.59"/>
        <path class="cls-1" d="M11.99,242.49v-.53c0-2.41.44-4.79,1.32-7.04.04-.09.11-.15.21-.17.15-.03.3.07.32.22.74,3.78,1.25,7.59,1.54,11.43,0,.02.02.04.05.04.02,0,.04-.02.04-.05"/>
        <path class="cls-1" d="M16.2,317.96c-.22-3.95-.14-7.92.24-11.86"/>
        <line class="cls-1" x1="20.21" y1="249.73" x2="31.75" y2="251.07"/>
        <line class="cls-1" x1="20.22" y1="251.16" x2="31.36" y2="252.45"/>
        <path class="cls-1" d="M81.31,357.36h-29.06c-1.24,0-2.46-.18-3.64-.53-2.64-.78-5.33-1.36-8.06-1.73-4.03-.55-8.05-1.15-12.06-1.8"/>
        <path class="cls-1" d="M81.31,354.41h-2.04c-.33,0-.65.09-.93.26-.73.43-1.37,1-1.89,1.66-.23.29-.34.65-.33,1.02"/>
        <path class="cls-1" d="M81.31,359.95h-10.98c-3.63,0-7.25-.2-10.86-.59-10.42-1.14-20.81-2.6-31.13-4.38"/>
        <path class="cls-1" d="M81.31,361.29h-34.02c-1.36,0-2.73-.14-4.07-.43-1.72-.37-3.41-.84-5.08-1.4-1.34-.45-2.16-1.79-1.98-3.18"/>
        <path class="cls-1" d="M28.5,352.19l21.28,2.31c1.53.17,3.05.39,4.56.65.97.17,1.85.68,2.47,1.44.18.21.29.48.32.77.05.57.39,1.07.89,1.35.61.34,1.27.57,1.95.7"/>
        <line class="cls-1" x1="53.37" y1="354.99" x2="39.78" y2="354.99"/>
        <path class="cls-1" d="M81.31,359.64c-2.88,0-5.22-.5-5.22-1.11s2.34-1.11,5.22-1.11"/>
      </g>
    </g>
  </g>
</svg>