<?xml version="1.0" encoding="UTF-8"?>
<svg id="Layer_1" data-name="Layer 1" xmlns="http://www.w3.org/2000/svg" xmlns:xlink="http://www.w3.org/1999/xlink" viewBox="0 0 364.74 162.62">
  <defs>
    <style>
      .cls-1 {
        stroke: #333;
        stroke-linecap: round;
        stroke-linejoin: round;
        stroke-width: .71px;
      }

      .cls-1, .cls-2 {
        fill: none;
      }

      .cls-3 {
        clip-path: url(#clippath-1);
      }

      .cls-4 {
        isolation: isolate;
      }

      .cls-5 {
        clip-path: url(#clippath);
      }
    </style>
    <clipPath id="clippath">
      <rect class="cls-2" width="364.74" height="162.62"/>
    </clipPath>
    <clipPath id="clippath-1">
      <rect class="cls-2" width="365" height="163"/>
    </clipPath>
  </defs>
  <g class="cls-4">
    <g class="cls-5">
      <g class="cls-3">
        <path class="cls-1" d="M9.28,40.33c2.23-4.31,4.76-8.45,7.56-12.4,3.32-4.66,7-9.06,11.01-13.14.95-.97,2.41-1.24,3.64-.69,1.57.71,3.14,1.42,4.71,2.12.28.12.49.37.57.67.12.43.21.88.26,1.32.09.84.11,1.7.06,2.54-.02.43-.25.82-.61,1.05-1.83,1.2-3.62,2.45-5.39,3.75-2.54,1.88-4.87,4.03-6.93,6.43-3.33,3.87-6.47,7.91-9.4,12.09-1.16,1.66-2.3,3.34-3.41,5.03-.31.47-.65.92-1.03,1.35-.02.02-.04.04-.06.06-.29.25-.72.23-.98-.06-.2-.22-.34-.49-.4-.79-.12-.55-.21-1.12-.24-1.69-.13-2.23-.04-4.48.27-6.69.05-.34.17-.67.36-.96"/>
        <path class="cls-1" d="M5.69,81.31v-5.73c0-6.17.09-12.34.27-18.5.08-2.88-.14-5.76-.68-8.59-.5-2.61-1.06-5.21-1.68-7.8-.05-.21-.02-.43.1-.61.45-.69,1.04-1.28,1.73-1.72,2.23-1.43,4.46-2.86,6.68-4.3"/>
        <path class="cls-1" d="M.35,81.31v-10.15c0-8.11.34-16.21,1.02-24.29.18-2.22.95-4.35,2.22-6.19"/>
        <path class="cls-1" d="M26.48,16.21l-.27-.15c-.23-.12-.51-.08-.69.12-1.83,2.01-3.7,3.99-5.61,5.94-.63.65-1.38,1.16-2.21,1.54-.14.06-.23.19-.26.34l-.12,1.99c-.01.26-.09.51-.22.74-1.72,2.2-3.28,4.52-4.65,6.96-.08.15-.19.28-.33.38"/>
        <path class="cls-1" d="M31.5,14.1c2.88-2.39,6.33-4,10.02-4.64,3.46-.61,6.96-.92,10.47-.94,13.28-.07,26.57-.07,39.85-.02,1.9,0,3.8.18,5.67.53,1.62.3,3.16.96,4.5,1.93"/>
        <path class="cls-1" d="M118.12,21.48l18.86,7.04c1.25.46,2.52.86,3.81,1.19,2.43.61,4.91,1.04,7.4,1.27,6.24.58,12.51.88,18.78.88,26.02,0,52.05.09,78.08.27,1.42,0,2.85-.04,4.26-.13,2.1-.14,4.12-.84,5.87-2.02,4.11-2.8,8.05-5.83,11.8-9.09,1.2-1.04,2.15-2.35,2.77-3.82.54-1.27.86-2.62.95-3.99.12-1.45.16-2.91.14-4.37"/>
        <path class="cls-1" d="M118.22,16.66c.47-2.31,1.18-4.57,2.13-6.72.66-1.5,1.52-2.9,2.56-4.17.77-.94,1.62-1.81,2.54-2.61,1.17-1.01,2.49-1.82,3.93-2.4.96-.39,2-.5,3.02-.33.08.01.13.08.12.16l-3.26,16.98c-.04.2-.2.36-.4.39-.5.09-1,.12-1.51.11-2.16-.05-4.32-.22-6.47-.51-.84-.12-1.66-.31-2.46-.57-.14-.04-.22-.18-.19-.32"/>
        <path class="cls-1" d="M125.75,18.02l-.4,1.94c-.04.21-.21.36-.42.39h-7.27s-.04,0-.07,0c-.2-.04-.34-.23-.3-.43.19-1.05.52-2.07.97-3.04"/>
        <path class="cls-1" d="M125.52,18l2.29-6.5c1.32-3.75,2.77-7.46,4.35-11.11"/>
        <line class="cls-1" x1="127.52" y1="18.08" x2="131.66" y2="1.55"/>
        <line class="cls-1" x1="127.36" y1="24.92" x2="125.86" y2="18.02"/>
        <path class="cls-1" d="M355.5,27.09l-4.91-10.49c-.39-.83-1.18-1.41-2.09-1.52-6.16-.8-12.33-1.54-18.5-2.25-3.29-.38-6.58-.79-9.86-1.24-1.07-.15-2.14-.32-3.21-.53-.99-.19-1.98-.31-2.99-.36-17.86-.15-35.73-.17-53.59-.08"/>
        <path class="cls-1" d="M248.49,10.69c-3.35.03-6.7.06-10.05.09"/>
        <path class="cls-1" d="M225.02,13c-10.98-.14-21.96-.26-32.93-.35"/>
        <path class="cls-1" d="M176.94,12.55c-15.57-.09-31.14-.11-46.71-.07"/>
        <path class="cls-1" d="M119.35,12.5c-1-.05-1.99-.17-2.96-.38-2.81-.59-5.65-.97-8.51-1.13-19.5-.34-39-.46-58.51-.36-2.78.02-5.56.22-8.31.61-2.93.42-5.82,1.13-8.61,2.12"/>
        <path class="cls-1" d="M41.06,11.23l.22-.55c.18-.46.5-.86.91-1.15.21-.14.44-.25.69-.3"/>
        <path class="cls-1" d="M225.02,13l1.23.02c1.04.01,2.06-.16,3.03-.52,1.18-.44,2.4-.79,3.63-1.06,1.82-.39,3.67-.61,5.53-.66"/>
        <line class="cls-1" x1="232.38" y1="9.58" x2="130.79" y2="9.58"/>
        <path class="cls-1" d="M120.52,9.58h-1.2c-.83,0-1.66.21-2.39.61-.74.39-1.38.97-1.84,1.67"/>
        <path class="cls-1" d="M232.38,9.58h4.06c.38,0,.75.05,1.12.13.59.14,1.09.53,1.36,1.07"/>
        <path class="cls-1" d="M245.59,10.71c2.74-1.12,5.66-1.74,8.61-1.83,17.5-.18,35-.39,52.49-.61,1.57-.02,3.14.2,4.64.64,1.09.32,2.16.68,3.23,1.07.57.22,1.11.53,1.57.93"/>
        <path class="cls-1" d="M362.7,81.31v-34.46c0-1.08-.1-2.16-.3-3.23-2.18-8.49-5.27-16.73-9.21-24.56-.09-.17-.18-.34-.27-.51-.07-.13-.19-.24-.33-.3-.47-.21-.96-.39-1.47-.52"/>
        <path class="cls-1" d="M363.29,81.31v-34.46c0-1.12-.11-2.25-.31-3.36-.79-3.07-1.69-6.11-2.71-9.1"/>
        <path class="cls-1" d="M364.39,81.31v-33.24c0-2.33-.23-4.66-.68-6.94-.28-1.41-.6-2.81-.96-4.2-.03-.12-.06-.25-.09-.37-.03-.11-.09-.22-.17-.29-1.01-.88-2.04-1.74-3.09-2.58"/>
        <path class="cls-1" d="M333.7,13.91c-1.31.7-2.46,1.65-3.37,2.82-.21.27-.34.6-.36.95-.03.51-.02,1.02.04,1.53.06.55.53.96,1.08.95.98-.02,1.96-.03,2.93-.03.74,0,1.48.05,2.21.15,2,.28,4,.65,5.96,1.11,1.38.32,2.64,1,3.69,1.95,1.45,1.32,2.8,2.73,4.07,4.23.46.55,1.13.88,1.86.92.58.03,1.17.03,1.75,0,.11,0,.21-.01.32-.03.11-.01.19-.11.18-.22,0-.01,0-.02,0-.04-1.29-3.28-2.66-6.53-4.11-9.74-.55-1.22-1.74-2.02-3.07-2.08-5.03-.21-10.06-.46-15.08-.73-.26-.02-.51.07-.71.22"/>
        <path class="cls-1" d="M333.7,13.91l.67-.32c.25-.12.53-.18.8-.16"/>
        <path class="cls-1" d="M321.68,81.31v-44.55c0-.6.11-1.2.33-1.75.4-1.03,1.11-1.92,2.02-2.54,1.16-.78,2.38-1.46,3.67-2,4.36-1.85,8.59-3.99,12.66-6.39,1.09-.64,2.07-1.44,2.93-2.36"/>
        <path class="cls-1" d="M333.86,17.52c4.15.07,8.3.2,12.45.41,1.45.07,2.72.99,3.24,2.35,1.04,2.72,2.02,5.46,2.92,8.23"/>
        <path class="cls-1" d="M333.86,17.52h-.25c-.24,0-.48.1-.63.29-.11.13-.17.3-.18.46-.01.57,0,1.14.03,1.71,0,.07.05.12.12.13"/>
        <path class="cls-1" d="M333.25,17.59c.66-.59,1.38-1.11,2.12-1.58.16-.1.35-.15.54-.15"/>
        <path class="cls-1" d="M343.97,81.31v-18.74c0-6.24-.7-12.45-2.09-18.54-.62-2.71-1.51-5.36-2.66-7.89-.44-.97-1.21-1.76-2.17-2.22-1.11-.45-2.25-.82-3.41-1.1-2.34-.59-4.68-1.22-7-1.88"/>
        <path class="cls-1" d="M342.62,81.31v-18.74c0-4.06-.3-8.12-.9-12.13"/>
        <path class="cls-1" d="M352.21,81.31v-16.65c0-9.57-.52-19.14-1.56-28.66-.11-.98-.4-1.94-.87-2.81-.59-1.1-1.39-2.07-2.36-2.87-.22-.18-.52-.25-.8-.18-3.36,1.1-6.69,2.32-9.98,3.62"/>
        <path class="cls-1" d="M349.89,81.31v-16.65c0-9.37-.5-18.73-1.5-28.04"/>
        <path class="cls-1" d="M281.86,32.48l30.14.12c3.16.01,6.29-.58,9.23-1.74,1.02-.4,2.02-.82,3.03-1.25,3.06-1.31,6.02-2.83,8.86-4.56.37-.22.7-.49,1-.79.27-.27.27-.71,0-.98-.03-.03-.06-.05-.09-.08-.36-.25-.75-.45-1.17-.58-3.92-1.28-8.01-2.01-12.13-2.16-7.88-.29-15.76-.4-23.64-.33-2.33.02-4.65.35-6.89,1-6.21,1.8-11.99,4.82-17,8.89-.27.22-.3.61-.09.88h0c.18.21.38.41.59.57.29.23.63.37,1,.41,2.38.31,4.77.5,7.16.58"/>
        <path class="cls-1" d="M333.66,24.7c-4.12-1.71-8.52-2.65-12.98-2.76-7.85-.29-15.71-.4-23.57-.33-2.2.02-4.39.34-6.5.95-6.18,1.75-11.9,4.84-16.77,9.02"/>
        <path class="cls-1" d="M320.27,22.82c-6.9-.21-13.8-.29-20.7-.23-2.08.02-4.15.32-6.15.9-4.52,1.29-8.79,3.3-12.66,5.96"/>
        <path class="cls-1" d="M280.17,30.94c.57.04,1.15.06,1.72.08l30.12.12c2.97.01,5.92-.54,8.69-1.64.97-.36,1.93-.78,2.86-1.25"/>
        <path class="cls-1" d="M280.76,29.44l-.3.22c-.25.17-.46.4-.61.66-.11.2-.05.45.14.56.05.03.12.05.18.05"/>
        <path class="cls-1" d="M323.56,28.26l.6-.3c1.48-.75,2.95-1.54,4.38-2.38.32-.18.43-.59.24-.91,0,0,0-.01-.01-.02-.14-.24-.36-.43-.6-.55-.21-.11-.43-.19-.66-.25-1.45-.35-2.92-.6-4.41-.78-.94-.11-1.89-.2-2.84-.26"/>
        <path class="cls-1" d="M321.68,44.88h16.36c.56,0,1.09.25,1.45.69,1.15,1.41,1.92,3.08,2.24,4.87"/>
        <path class="cls-1" d="M338.04,44.88l-2.32-6.56c-.2-.58-.16-1.22.12-1.77.12-.24.26-.47.4-.7.37-.59.78-1.16,1.23-1.69"/>
        <path class="cls-1" d="M335.6,37.43c-4.63-.41-9.26-.8-13.89-1.17"/>
        <path class="cls-1" d="M108.82,23.72c9.43,2.95,18.82,6.02,28.16,9.22.93.32,1.89.52,2.87.6,6.5.57,13.02.91,19.55,1.03,11.8.2,23.6.29,35.4.26,38.56-.09,77.12.11,115.68.62,2.74.03,5.48.09,8.21.16,1.02.03,2.05.11,3.06.25"/>
        <path class="cls-1" d="M108.56,24.77c9.45,2.78,18.83,5.8,28.13,9.04,1,.34,2.04.56,3.08.66,6.52.57,13.07.91,19.61,1.03,11.8.21,23.61.29,35.41.27,38.55-.1,77.11.11,115.67.62,2.73.04,5.47.09,8.2.17.99.03,1.98.11,2.96.24"/>
        <path class="cls-1" d="M200.84,31.91c-.93-3.43-1.97-6.83-3.12-10.2-.26-.75-.44-1.52-.57-2.3-.17-1.1-.35-2.19-.53-3.29-.19-1.12-.54-2.21-1.06-3.24-.05-.09-.12-.17-.2-.23"/>
        <path class="cls-1" d="M91.29,81.31v-2.45c0-8,.4-16,1.19-23.96.82-8.23,2.98-16.26,6.38-23.8.73-1.63,1.63-3.18,2.68-4.62.21-.29.45-.57.71-.82.36-.34.85-.5,1.34-.43,2.79.38,5.54.99,8.22,1.83,8.28,2.58,16.54,5.21,24.79,7.89"/>
        <path class="cls-1" d="M95.68,81.31v-2.45c0-7.95.4-15.89,1.19-23.8.81-8.06,2.92-15.93,6.25-23.31.57-1.27,1.25-2.48,2.02-3.63"/>
        <path class="cls-1" d="M106.7,27.38c1.56.32,3.11.73,4.64,1.2,7.95,2.48,15.89,5,23.81,7.57"/>
        <path class="cls-1" d="M135.08,81.31v-4.74c0-4.87.14-9.73.42-14.59.48-8.39,1.1-16.77,1.84-25.14.02-.25.04-.49.07-.74.05-.53-.3-1.02-.81-1.15"/>
        <path class="cls-1" d="M133.49,81.31v-4.74c0-4.9.14-9.8.42-14.68.49-8.39,1.1-16.77,1.84-25.14"/>
        <path class="cls-1" d="M135.15,36.15l.25.09c.22.07.37.28.36.52"/>
        <path class="cls-1" d="M105.14,28.12l.14-.21c.31-.46.88-.68,1.42-.54"/>
        <line class="cls-1" x1="199.66" y1="42.61" x2="218.31" y2="42.61"/>
        <path class="cls-1" d="M218.53,36.97v5.42c0,.12-.1.21-.21.22"/>
        <path class="cls-1" d="M198.4,36.74v4.51c0,.71.55,1.31,1.26,1.36"/>
        <path class="cls-1" d="M217.28,36.49h-18.64c-.13,0-.24.11-.24.24h0"/>
        <path class="cls-1" d="M217.28,36.49h.75c.27,0,.49.21.5.48"/>
        <path class="cls-1" d="M218.53,38.02h-12.97c-2.39,0-4.75-.52-6.91-1.53"/>
        <line class="cls-1" x1="318.77" y1="43.32" x2="302.5" y2="43.32"/>
        <path class="cls-1" d="M320.02,37.46v4.51c0,.72-.55,1.31-1.26,1.36"/>
        <path class="cls-1" d="M303.35,37.21h16.43c.14,0,.24.11.24.25"/>
        <path class="cls-1" d="M301.89,38.73h10.97c2.39,0,4.75-.52,6.91-1.53"/>
        <path class="cls-1" d="M301.88,43.07v-4.18c0-.14.04-.28.11-.4.27-.44.62-.84,1.03-1.16.09-.07.21-.12.34-.12"/>
        <path class="cls-1" d="M302.5,43.32h-.39c-.13,0-.23-.12-.22-.25"/>
        <path class="cls-1" d="M198.4,38.37h-37.25c-6.53,0-13.05-.29-19.55-.86-1.43-.12-2.85-.3-4.27-.51"/>
        <path class="cls-1" d="M218.53,36.97c28.16-.18,56.33-.06,84.49.36"/>
        <path class="cls-1" d="M218.53,38.39c27.79-.18,55.58-.06,83.37.34"/>
        <path class="cls-1" d="M218.53,42.1c27.79-.18,55.57-.06,83.35.34"/>
        <path class="cls-1" d="M118.12,21.48l-1.91-.72c-.8-.3-1.56-.7-2.26-1.21-.68-.49-1.23-1.15-1.6-1.9-.29-.58-.53-1.18-.72-1.8-.14-.43-.3-.86-.49-1.27-.48-1.08-.78-2.24-.87-3.42"/>
        <path class="cls-1" d="M129.11,17.82c47.2.03,94.39.24,141.58.62,4.6.04,9.2.24,13.78.62,3.07.25,6.12.7,9.14,1.34"/>
        <path class="cls-1" d="M126.23,19.75c47.11.02,94.23.21,141.34.6"/>
        <path class="cls-1" d="M117.82,17.91c-.1,0-.21,0-.31,0-1.52.02-3.04.29-4.47.8"/>
        <path class="cls-1" d="M85.85,81.31v-5.56c0-6.58.32-13.15.96-19.7.36-3.71.92-7.39,1.67-11.04,1.29-6.24,3.81-12.15,7.42-17.38.53-.76,1.12-1.48,1.77-2.13.72-.73,1.61-1.27,2.59-1.58.78-.25,1.57-.43,2.38-.54,2.06-.29,4.16-.17,6.18.34"/>
        <path class="cls-1" d="M86.93,81.31v-5.56c0-6.54.32-13.09.96-19.6.36-3.67.91-7.31,1.66-10.92,1.26-6.09,3.72-11.87,7.25-16.99.49-.71,1.04-1.38,1.65-1.98.6-.6,1.34-1.05,2.15-1.31.72-.23,1.45-.39,2.2-.5,1.92-.27,3.88-.16,5.76.32"/>
        <path class="cls-1" d="M13.89,51.66c4.98-8.31,10.87-16.04,17.57-23.05.95-.99,1.97-1.93,3.03-2.8,1.07-.86,2.31-1.47,3.64-1.79,1.49-.36,3.01-.59,4.54-.69,3.83-.26,7.68-.4,11.52-.4,13.04,0,26.08-.53,39.09-1.58,1.67-.14,3.35-.16,5.02-.07,1.71.09,3.4.31,5.08.64,1.01.2,1.94.67,2.71,1.35"/>
        <path class="cls-1" d="M88.48,45.01l-71.34,8.03c-.41.05-.83.03-1.23-.06-.75-.15-1.43-.51-1.98-1.03-.08-.08-.1-.2-.04-.3"/>
        <path class="cls-1" d="M13.85,51.88l62.75-7.24c2.41-.28,4.82-.37,7.24-.27,1.56.06,3.12.28,4.64.64"/>
        <line class="cls-1" x1="41.83" y1="81.31" x2="41.83" y2="64.9"/>
        <path class="cls-1" d="M54.23,81.31v-16.6c0-.62-.14-1.23-.42-1.79-.82-1.68-2.37-2.9-4.21-3.29-1.14-.25-2.32-.25-3.46-.01-2.5.52-4.3,2.73-4.31,5.29"/>
        <path class="cls-1" d="M49.23,81.31v-14.97c0-.38-.18-.75-.49-.98-.93-.69-2.03-1.11-3.19-1.2"/>
        <line class="cls-1" x1="74.93" y1="81.31" x2="74.93" y2="61.6"/>
        <path class="cls-1" d="M49.6,59.62l23.77.37c.87.02,1.57.73,1.56,1.6"/>
        <line class="cls-1" x1="54.2" y1="64.25" x2="74.48" y2="60.47"/>
        <path class="cls-1" d="M338.09,34.61l9.85-3.65c.07-.02.14-.02.2.02"/>
        <line class="cls-1" x1="340.22" y1="38.54" x2="350.03" y2="34.91"/>
        <path class="cls-1" d="M350.03,34.91l.27-.1c.05-.02.09-.08.08-.14"/>
        <line class="cls-1" x1="340.58" y1="39.51" x2="350.38" y2="35.88"/>
        <path class="cls-1" d="M350.38,35.88l.17-.06s.06-.05.06-.09"/>
        <path class="cls-1" d="M349.45,81.31v-12.66c0-9.78-.49-19.55-1.47-29.27-.03-.27-.08-.54-.16-.8-.14-.47-.62-.75-1.1-.64-2.06.47-4.08,1.06-6.07,1.78"/>
        <path class="cls-1" d="M355.5,27.09l.1.21c.06.13.11.26.16.4,0,.01,0,.02,0,.03.06.23-.08.46-.3.51-.46.12-.95.16-1.43.12"/>
        <line class="cls-1" x1="357.36" y1="28.29" x2="355.63" y2="28.15"/>
        <path class="cls-1" d="M10.34,50.46c4.99-10.56,10.6-20.82,16.79-30.73.25-.4.54-.77.88-1.11.34-.35.86-.46,1.32-.28,2.55.98,5.12,1.91,7.7,2.81"/>
        <path class="cls-1" d="M37.04,18.22l-5.54-2.36c-.32-.14-.7-.02-.89.28-.45.72-.83,1.47-1.16,2.25"/>
        <line class="cls-1" x1="8.9" y1="49.68" x2="24.43" y2="24.14"/>
        <path class="cls-1" d="M9.76,81.31v-3.88c0-5.88.25-11.75.74-17.61.26-3.1.38-6.2.34-9.31,0-.24,0-.47.03-.71"/>
        <path class="cls-1" d="M4.92,46.66c1.16-1.34,2.44-2.57,3.82-3.69"/>
        <line class="cls-1" x1="318.4" y1="81.07" x2="318.4" y2="79.28"/>
        <path class="cls-1" d="M310.33,81.31v-.14c0-.26.08-.5.23-.71.6-.81,1.54-1.3,2.55-1.34h5.13c.09,0,.16.07.16.15"/>
        <path class="cls-1" d="M318.4,81.07h-5.85c-.13,0-.24.1-.25.24"/>
        <path class="cls-1" d="M318.4,81.07h.07c.13,0,.24.11.24.24"/>
        <path class="cls-1" d="M137.41,36.1l.09-.62c.1-.69.3-1.35.6-1.98"/>
        <path class="cls-1" d="M138.1,33.5l.07-.14s0-.08-.03-.09t0,0"/>
        <path class="cls-1" d="M114.41,19.86c-2.4.43-4.54,1.78-5.97,3.76"/>
        <path class="cls-1" d="M2.44,81.31v-4.72c0-6.61.19-13.21.57-19.8.08-1.32.28-2.63.61-3.92.36-1.39.95-2.72,1.75-3.91"/>
        <path class="cls-1" d="M11,46.21c-.22-.62-.34-1.27-.36-1.93,0-.11,0-.23,0-.34,0-.08.02-.16.05-.22,5.01-8.7,10.52-17.09,16.49-25.15.31-.41.64-.8,1.01-1.16.29-.29.7-.4,1.09-.3.23.06.45.13.67.21"/>
        <path class="cls-1" d="M10.36,42.08l.14,1.5c0,.08.08.14.16.13.02,0,.04,0,.05-.01"/>
        <path class="cls-1" d="M10.36,42.08v-.14c-.02-.06,0-.13.02-.18.9-1.89,1.9-3.74,2.99-5.53,2.72-4.45,5.6-8.79,8.66-13.01,1.49-2.06,3.1-4.05,4.81-5.94.31-.34.63-.67.97-.99.21-.19.42-.38.63-.57.57-.49,1.38-.6,2.07-.29.33.15.66.29,1,.42"/>
        <path class="cls-1" d="M96.42,25.45c-4.18-1.23-8.53-1.7-12.88-1.39-11.13.79-22.28,1.13-33.44,1.02-4.11-.04-8.21,0-12.32.13-2.18.07-4.35.2-6.51.39-.15.01-.3.06-.43.15"/>
        <line class="cls-1" x1="96.42" y1="25.45" x2="97.41" y2="25.77"/>
        <path class="cls-1" d="M36.21,16.23c2.98-.7,5.92-1.59,8.79-2.67,1.49-.56,3.05-.93,4.63-1.1,10.69-1.13,21.45-1.57,32.19-1.29,5.65.15,11.29.34,16.93.58,4.27.18,8.47,1.14,12.39,2.85"/>
        <path class="cls-1" d="M37.12,19.49c8.38-1.23,16.8-2.15,25.25-2.75,11.88-.85,23.78-1.47,35.69-1.86,4.4-.14,8.81-.15,13.21-.02"/>
        <path class="cls-1" d="M36.29,16.27l.18.08c.59.26,1.22.42,1.87.48,6.11.53,12.26.65,18.39.36"/>
        <path class="cls-1" d="M111.41,15.21c2.38,0,4.76,0,7.14,0"/>
        <path class="cls-1" d="M129.7,15.23c15.59,0,31.18,0,46.78,0"/>
        <path class="cls-1" d="M191.16,15.22c15.11-.02,30.21-.04,45.32-.07,3.31,0,6.61.1,9.91.31"/>
        <path class="cls-1" d="M205.39,31.93c-.23-4.02-.7-8.02-1.39-11.99"/>
        <path class="cls-1" d="M195.32,31.9c-.85-2.98-2.02-5.87-3.47-8.61-.61-1.15-1.24-2.29-1.9-3.41"/>
        <path class="cls-1" d="M9.15,40.56c-.05.31,0,.63.15.91.05.1.12.18.21.24.12.09.25.17.38.24.14.08.31.1.47.05"/>
        <path class="cls-1" d="M5.55,81.31c0-2.92-.62-5.28-1.38-5.28s-1.38,2.37-1.38,5.28"/>
        <path class="cls-1" d="M4.02,76.06v-2.04c0-5.58.11-11.17.33-16.75.07-1.92.55-3.8,1.4-5.51"/>
        <path class="cls-1" d="M246.44,13.62c-1.29-.04-2.55-.4-3.66-1.06-.12-.07-.22-.19-.26-.32-.11-.32.06-.66.38-.77.93-.32,1.89-.52,2.87-.6,4.33-.34,8.67-.51,13.01-.52,1.11,0,2.19.36,3.07,1.04.2.16.32.39.34.64.04.5-.25.96-.7,1.16-.39.17-.8.28-1.23.34-.89.11-1.78.16-2.67.16-.2,0-.38-.1-.49-.26-.2-.3-.37-.61-.52-.93-.11-.23-.32-.39-.57-.42-.42-.06-.84-.09-1.26-.09-2.28,0-4.56.03-6.84.11-.19,0-.36.1-.46.26-.18.29-.34.6-.48.92-.09.21-.3.34-.52.34"/>
        <line class="cls-1" x1="258.37" y1="10.36" x2="258.38" y2="13.68"/>
        <path class="cls-1" d="M246.45,13.62c3.7.35,7.43.38,11.13.07"/>
        <path class="cls-1" d="M177.36,15.31c-1.29-.04-2.55-.4-3.66-1.06-.12-.07-.22-.19-.27-.32-.11-.32.06-.66.38-.77.93-.32,1.89-.52,2.87-.59,4.33-.34,8.67-.51,13.01-.51,1.11,0,2.19.36,3.07,1.04.2.15.32.38.34.63.03.5-.25.96-.7,1.16-.39.18-.8.29-1.23.34-.89.1-1.78.16-2.67.16-.2,0-.38-.1-.49-.27-.2-.29-.37-.61-.52-.93-.11-.23-.32-.38-.57-.42-.42-.06-.84-.09-1.26-.09-2.28,0-4.56.03-6.84.1-.19,0-.36.11-.46.27-.18.29-.34.6-.48.92-.09.21-.29.34-.52.34"/>
        <line class="cls-1" x1="189.29" y1="12.05" x2="189.3" y2="15.37"/>
        <path class="cls-1" d="M177.37,15.31c3.7.35,7.43.38,11.13.07"/>
        <path class="cls-1" d="M330.33,16.72c-3.85-.11-7.69-.25-11.54-.4-.72-.03-1.41-.26-2.01-.66-1.34-.92-2.82-1.6-4.38-2.04-4.8-1.33-9.75-2.07-14.73-2.19-11.86-.3-23.73-.25-35.59.15"/>
        <path class="cls-1" d="M242.49,11.99h-.53c-2.41,0-4.79.45-7.04,1.32-.14.06-.21.22-.16.36.03.09.11.16.2.18,3.78.73,7.59,1.25,11.43,1.53.02,0,.04.02.04.05,0,.02-.02.04-.05.04"/>
        <path class="cls-1" d="M317.96,16.2c-3.95-.22-7.92-.14-11.86.24"/>
        <line class="cls-1" x1="249.73" y1="20.21" x2="251.07" y2="31.75"/>
        <line class="cls-1" x1="251.16" y1="20.22" x2="252.45" y2="31.35"/>
        <path class="cls-1" d="M357.36,81.31v-29.06c0-1.23-.18-2.46-.53-3.64-.78-2.64-1.36-5.33-1.73-8.06-.55-4.03-1.15-8.05-1.8-12.06"/>
        <path class="cls-1" d="M354.41,81.31v-2.05c0-.33.09-.65.26-.93.43-.73,1-1.37,1.66-1.89.29-.23.65-.34,1.02-.33"/>
        <path class="cls-1" d="M359.95,81.31v-10.98c0-3.63-.2-7.25-.59-10.86-1.14-10.42-2.6-20.81-4.38-31.14"/>
        <path class="cls-1" d="M361.29,81.31v-34.01c0-1.37-.14-2.73-.43-4.07-.37-1.72-.84-3.42-1.4-5.08-.45-1.33-1.79-2.16-3.18-1.98"/>
        <path class="cls-1" d="M352.19,28.5l2.31,21.28c.17,1.53.39,3.05.65,4.56.17.97.68,1.85,1.44,2.48.21.18.48.29.77.32.57.06,1.07.39,1.35.89.34.61.57,1.27.7,1.96"/>
        <line class="cls-1" x1="354.99" y1="53.38" x2="354.99" y2="39.78"/>
        <path class="cls-1" d="M359.64,81.31c0-2.88-.5-5.22-1.11-5.22s-1.11,2.34-1.11,5.22"/>
        <path class="cls-1" d="M9.28,122.29c2.23,4.31,4.76,8.45,7.56,12.4,3.32,4.66,7,9.06,11.01,13.14.95.97,2.41,1.24,3.64.68,1.57-.71,3.14-1.41,4.71-2.12.28-.12.49-.37.57-.67.12-.43.21-.88.26-1.33.09-.84.11-1.69.06-2.54-.02-.42-.25-.81-.61-1.05-1.83-1.2-3.62-2.45-5.39-3.75-2.54-1.88-4.87-4.03-6.93-6.43-3.33-3.87-6.47-7.91-9.4-12.09-1.16-1.66-2.3-3.34-3.41-5.03-.31-.47-.65-.92-1.03-1.35-.25-.29-.69-.31-.98-.06-.02.02-.04.04-.06.06-.2.22-.34.49-.4.78-.12.56-.21,1.12-.24,1.69-.13,2.23-.04,4.48.27,6.7.05.34.17.67.36.96"/>
        <path class="cls-1" d="M5.69,81.31v5.73c0,6.17.09,12.34.27,18.5.08,2.88-.14,5.76-.68,8.59-.5,2.61-1.06,5.21-1.68,7.8-.05.21-.02.43.1.61.45.69,1.04,1.28,1.73,1.72,2.23,1.43,4.46,2.86,6.68,4.31"/>
        <path class="cls-1" d="M.35,81.31v10.15c0,8.11.34,16.21,1.02,24.29.18,2.22.95,4.36,2.22,6.19"/>
        <path class="cls-1" d="M26.48,146.41l-.27.15c-.23.12-.51.07-.69-.12-1.83-2.01-3.7-4-5.61-5.94-.63-.65-1.38-1.17-2.21-1.54-.14-.06-.23-.19-.26-.34l-.12-1.99c-.01-.26-.09-.51-.22-.74-1.72-2.2-3.28-4.52-4.65-6.96-.08-.14-.19-.27-.33-.38"/>
        <path class="cls-1" d="M31.5,148.52c2.88,2.39,6.33,4,10.02,4.64,3.46.61,6.96.92,10.47.94,13.28.06,26.57.07,39.85.02,1.9,0,3.8-.18,5.67-.53,1.62-.3,3.16-.96,4.5-1.93"/>
        <path class="cls-1" d="M118.12,141.15l18.86-7.04c1.25-.46,2.52-.86,3.81-1.19,2.43-.61,4.91-1.04,7.4-1.27,6.24-.59,12.51-.88,18.78-.88,26.02,0,52.05-.09,78.08-.27,1.42,0,2.85.04,4.26.13,2.1.14,4.12.84,5.87,2.02,4.11,2.8,8.05,5.83,11.8,9.09,1.2,1.05,2.15,2.36,2.77,3.83.54,1.27.86,2.62.95,3.99.12,1.45.16,2.91.14,4.37"/>
        <path class="cls-1" d="M118.22,145.96c.47,2.31,1.18,4.57,2.13,6.73.66,1.5,1.52,2.9,2.56,4.16.77.94,1.62,1.81,2.54,2.61,1.17,1.01,2.49,1.82,3.93,2.4.96.39,2,.5,3.02.33.08-.01.13-.09.12-.16l-3.26-16.97c-.04-.2-.2-.36-.4-.39-.5-.09-1-.12-1.51-.11-2.16.05-4.32.22-6.47.52-.84.11-1.66.31-2.46.57-.14.04-.22.18-.19.32"/>
        <path class="cls-1" d="M125.75,144.6l-.4-1.94c-.04-.21-.21-.36-.42-.38h-7.27c-.21,0-.37.17-.37.37,0,.02,0,.04,0,.07.19,1.05.52,2.07.97,3.04"/>
        <path class="cls-1" d="M125.52,144.62l2.29,6.5c1.32,3.75,2.77,7.46,4.35,11.11"/>
        <line class="cls-1" x1="127.52" y1="144.54" x2="131.66" y2="161.07"/>
        <line class="cls-1" x1="127.36" y1="137.7" x2="125.86" y2="144.6"/>
        <path class="cls-1" d="M355.5,135.54l-4.91,10.5c-.39.83-1.18,1.41-2.09,1.52-6.16.79-12.33,1.54-18.5,2.24-3.29.38-6.58.79-9.86,1.24-1.07.15-2.14.32-3.21.53-.99.19-1.98.31-2.99.36-17.86.14-35.73.17-53.59.08"/>
        <path class="cls-1" d="M248.49,151.93c-3.35-.03-6.7-.06-10.05-.09"/>
        <path class="cls-1" d="M225.02,149.62c-10.98.15-21.96.26-32.93.35"/>
        <path class="cls-1" d="M176.94,150.07c-15.57.09-31.14.11-46.71.07"/>
        <path class="cls-1" d="M119.35,150.13c-1,.04-1.99.17-2.96.38-2.81.59-5.65.97-8.51,1.14-19.5.34-39,.46-58.51.35-2.78-.02-5.56-.22-8.31-.61-2.93-.42-5.82-1.13-8.61-2.12"/>
        <path class="cls-1" d="M41.06,151.39l.22.55c.18.46.5.86.91,1.15.21.14.44.24.69.29"/>
        <path class="cls-1" d="M225.02,149.62l1.23-.02c1.04-.01,2.06.17,3.03.52,1.18.43,2.4.79,3.63,1.06,1.82.39,3.67.61,5.53.66"/>
        <line class="cls-1" x1="232.38" y1="153.04" x2="130.79" y2="153.04"/>
        <path class="cls-1" d="M120.52,153.04h-1.2c-.83,0-1.66-.21-2.39-.6-.74-.4-1.38-.98-1.84-1.67"/>
        <path class="cls-1" d="M232.38,153.04h4.06c.38,0,.75-.04,1.12-.13.59-.14,1.09-.53,1.36-1.07"/>
        <path class="cls-1" d="M245.59,151.91c2.74,1.12,5.66,1.74,8.61,1.83,17.5.18,35,.39,52.49.61,1.57.02,3.14-.19,4.64-.63,1.09-.32,2.16-.68,3.23-1.07.57-.22,1.11-.54,1.57-.94"/>
        <path class="cls-1" d="M362.7,81.31v34.46c0,1.08-.1,2.16-.3,3.23-2.18,8.49-5.27,16.73-9.21,24.56-.09.17-.18.34-.27.51-.07.13-.19.24-.33.3-.47.21-.96.39-1.47.52"/>
        <path class="cls-1" d="M363.29,81.31v34.46c0,1.12-.11,2.25-.31,3.36-.79,3.07-1.69,6.11-2.71,9.11"/>
        <path class="cls-1" d="M364.39,81.31v33.24c0,2.33-.23,4.66-.68,6.94-.28,1.41-.6,2.81-.96,4.21-.03.12-.06.25-.09.37-.03.11-.09.21-.17.29-1.01.88-2.04,1.74-3.09,2.58"/>
        <path class="cls-1" d="M333.7,148.71c-1.31-.69-2.46-1.65-3.37-2.82-.21-.27-.34-.6-.36-.95-.03-.51-.02-1.02.04-1.53.06-.55.53-.96,1.08-.94.98.02,1.96.03,2.93.03.74,0,1.48-.05,2.21-.15,2-.28,4-.65,5.96-1.11,1.38-.32,2.64-1,3.69-1.95,1.45-1.32,2.8-2.73,4.07-4.23.46-.55,1.13-.88,1.86-.92.58-.03,1.17-.03,1.75,0,.11,0,.21.01.32.03,0,0,.02,0,.03,0,.11.03.17.14.14.25-1.29,3.28-2.66,6.53-4.11,9.74-.55,1.22-1.74,2.02-3.07,2.08-5.03.22-10.06.46-15.08.74-.26.01-.51-.07-.71-.23"/>
        <path class="cls-1" d="M333.7,148.71l.67.32c.25.12.53.18.8.16"/>
        <path class="cls-1" d="M321.68,81.31v44.55c0,.6.11,1.2.33,1.75.4,1.03,1.11,1.92,2.02,2.54,1.16.78,2.38,1.46,3.67,2,4.36,1.85,8.59,3.98,12.66,6.38,1.09.65,2.07,1.44,2.93,2.36"/>
        <path class="cls-1" d="M333.86,145.1c4.15-.07,8.3-.2,12.45-.4,1.45-.07,2.72-1,3.24-2.35,1.04-2.71,2.02-5.46,2.92-8.23"/>
        <path class="cls-1" d="M333.86,145.1h-.25c-.24,0-.48-.1-.63-.29-.11-.13-.17-.29-.18-.47-.01-.57,0-1.14.03-1.71,0-.07.05-.12.12-.14"/>
        <path class="cls-1" d="M333.25,145.03c.66.59,1.38,1.11,2.12,1.58.16.1.35.16.54.16"/>
        <path class="cls-1" d="M343.97,81.31v18.74c0,6.24-.7,12.45-2.09,18.54-.62,2.71-1.51,5.36-2.66,7.89-.44.97-1.21,1.76-2.17,2.22-1.11.45-2.25.82-3.41,1.1-2.34.59-4.68,1.22-7,1.89"/>
        <path class="cls-1" d="M342.62,81.31v18.74c0,4.06-.3,8.12-.9,12.13"/>
        <path class="cls-1" d="M352.21,81.31v16.65c0,9.57-.52,19.14-1.56,28.66-.11.99-.4,1.94-.87,2.81-.59,1.1-1.39,2.07-2.36,2.87-.22.18-.52.25-.8.18-3.36-1.11-6.69-2.32-9.98-3.62"/>
        <path class="cls-1" d="M349.89,81.31v16.65c0,9.37-.5,18.73-1.5,28.05"/>
        <path class="cls-1" d="M281.86,130.14l30.14-.12c3.16-.01,6.29.58,9.23,1.74,1.02.4,2.02.82,3.03,1.25,3.06,1.31,6.02,2.83,8.86,4.55.37.22.7.49,1,.79.03.03.05.06.08.09.21.31.14.75-.18.96-.36.25-.75.45-1.17.58-3.92,1.28-8.01,2.01-12.13,2.16-7.88.29-15.76.4-23.64.33-2.33-.02-4.65-.36-6.89-1.01-6.21-1.8-11.99-4.82-17-8.89h0c-.26-.23-.3-.62-.08-.88.18-.21.38-.4.59-.57.29-.22.63-.37,1-.41,2.38-.31,4.77-.5,7.16-.58"/>
        <path class="cls-1" d="M333.66,137.92c-4.12,1.71-8.52,2.64-12.98,2.76-7.85.29-15.71.4-23.57.33-2.2-.02-4.39-.34-6.5-.95-6.18-1.76-11.9-4.84-16.77-9.03"/>
        <path class="cls-1" d="M320.27,139.8c-6.9.21-13.8.29-20.7.23-2.08-.02-4.15-.32-6.15-.9-4.52-1.29-8.79-3.3-12.66-5.97"/>
        <path class="cls-1" d="M280.17,131.68c.57-.03,1.15-.06,1.72-.08l30.12-.12c2.97-.01,5.92.54,8.69,1.63.97.36,1.93.78,2.86,1.25"/>
        <path class="cls-1" d="M280.76,133.18l-.3-.21c-.25-.17-.46-.4-.61-.66-.03-.05-.05-.11-.05-.18-.02-.23.15-.42.38-.44"/>
        <path class="cls-1" d="M323.56,134.36l.6.3c1.48.75,2.95,1.54,4.38,2.38,0,0,.01,0,.02,0,.31.2.41.6.21.92-.14.24-.36.43-.6.56-.21.11-.43.19-.66.25-1.45.35-2.92.61-4.41.78-.94.11-1.89.2-2.84.26"/>
        <path class="cls-1" d="M321.68,117.74h16.36c.56,0,1.09-.25,1.45-.69,1.15-1.41,1.92-3.08,2.24-4.87"/>
        <path class="cls-1" d="M338.04,117.74l-2.32,6.56c-.2.58-.16,1.22.12,1.77.12.24.26.48.4.7.37.59.78,1.16,1.23,1.69"/>
        <path class="cls-1" d="M335.6,125.2c-4.63.41-9.26.8-13.89,1.16"/>
        <path class="cls-1" d="M108.82,138.91c9.43-2.95,18.82-6.02,28.16-9.22.93-.32,1.89-.52,2.87-.61,6.5-.57,13.02-.91,19.55-1.03,11.8-.2,23.6-.29,35.4-.26,38.56.09,77.12-.11,115.68-.62,2.74-.03,5.48-.09,8.21-.16,1.02-.03,2.05-.11,3.06-.25"/>
        <path class="cls-1" d="M108.56,137.85c9.45-2.78,18.83-5.8,28.13-9.04,1-.34,2.04-.56,3.08-.65,6.52-.57,13.07-.92,19.61-1.03,11.8-.2,23.61-.29,35.41-.26,38.55.09,77.11-.11,115.67-.62,2.73-.04,5.47-.09,8.2-.16.99-.03,1.98-.11,2.96-.25"/>
        <path class="cls-1" d="M200.84,130.71c-.93,3.43-1.97,6.83-3.12,10.2-.26.75-.44,1.52-.57,2.3-.17,1.1-.35,2.19-.53,3.29-.19,1.12-.54,2.21-1.06,3.24-.05.09-.12.17-.2.23"/>
        <path class="cls-1" d="M91.29,81.31v2.45c0,8,.4,16,1.19,23.96.82,8.23,2.98,16.26,6.38,23.8.73,1.62,1.63,3.17,2.68,4.62.21.29.45.56.71.81.36.34.85.5,1.34.43,2.79-.38,5.54-.99,8.22-1.83,8.28-2.58,16.54-5.21,24.79-7.89"/>
        <path class="cls-1" d="M95.68,81.31v2.45c0,7.95.4,15.89,1.19,23.8.81,8.06,2.92,15.92,6.25,23.3.57,1.27,1.25,2.48,2.02,3.63"/>
        <path class="cls-1" d="M106.7,135.25c1.56-.32,3.11-.73,4.64-1.2,7.95-2.48,15.89-5,23.81-7.57"/>
        <path class="cls-1" d="M135.08,81.31v4.74c0,4.87.14,9.73.42,14.59.48,8.39,1.1,16.77,1.84,25.14.02.25.04.49.07.74.05.53-.3,1.02-.81,1.15"/>
        <path class="cls-1" d="M133.49,81.31v4.74c0,4.9.14,9.8.42,14.68.49,8.39,1.1,16.77,1.84,25.14"/>
        <path class="cls-1" d="M135.15,126.47l.25-.08c.22-.07.37-.29.36-.52"/>
        <path class="cls-1" d="M105.14,134.5l.14.21c.31.46.88.68,1.42.54"/>
        <line class="cls-1" x1="199.66" y1="120.02" x2="218.31" y2="120.02"/>
        <path class="cls-1" d="M218.53,125.65v-5.42c0-.12-.1-.21-.21-.21"/>
        <path class="cls-1" d="M198.4,125.88v-4.51c0-.71.55-1.31,1.26-1.36"/>
        <path class="cls-1" d="M217.28,126.13h-18.64c-.13,0-.24-.11-.24-.25"/>
        <path class="cls-1" d="M217.28,126.13h.75c.27,0,.49-.21.5-.48"/>
        <path class="cls-1" d="M218.53,124.6h-12.97c-2.39,0-4.75.52-6.91,1.53"/>
        <line class="cls-1" x1="318.77" y1="119.3" x2="302.5" y2="119.3"/>
        <path class="cls-1" d="M320.02,125.17v-4.51c0-.71-.55-1.3-1.26-1.35"/>
        <path class="cls-1" d="M303.35,125.41h16.43c.13,0,.24-.11.24-.24h0"/>
        <path class="cls-1" d="M301.89,123.89h10.97c2.39,0,4.75.52,6.91,1.53"/>
        <path class="cls-1" d="M301.88,119.55v4.18c0,.14.04.28.11.4.27.45.62.84,1.03,1.16.09.07.21.12.34.12"/>
        <path class="cls-1" d="M302.5,119.3h-.38c-.13,0-.24.1-.24.23v.02"/>
        <path class="cls-1" d="M198.4,124.25h-37.25c-6.53,0-13.05.29-19.55.86-1.43.12-2.85.3-4.27.52"/>
        <path class="cls-1" d="M218.53,125.65c28.16.18,56.33.06,84.49-.36"/>
        <path class="cls-1" d="M218.53,124.23c27.79.18,55.58.06,83.37-.34"/>
        <path class="cls-1" d="M218.53,120.52c27.79.18,55.57.06,83.35-.34"/>
        <path class="cls-1" d="M118.12,141.15l-1.91.71c-.8.3-1.56.71-2.26,1.21-.68.49-1.23,1.15-1.6,1.9-.29.58-.53,1.18-.72,1.8-.14.43-.3.86-.49,1.27-.48,1.08-.78,2.24-.87,3.41"/>
        <path class="cls-1" d="M129.11,144.8c47.2-.02,94.39-.24,141.58-.62,4.6-.04,9.2-.24,13.78-.62,3.07-.25,6.12-.7,9.14-1.34"/>
        <path class="cls-1" d="M126.23,142.88c47.11-.02,94.23-.22,141.34-.6"/>
        <path class="cls-1" d="M117.82,144.71c-.1,0-.21,0-.31,0-1.52-.02-3.04-.29-4.47-.79"/>
        <path class="cls-1" d="M85.85,81.31v5.56c0,6.58.32,13.16.96,19.7.36,3.71.92,7.39,1.67,11.04,1.29,6.24,3.81,12.14,7.42,17.38.53.77,1.12,1.48,1.77,2.13.72.73,1.61,1.27,2.59,1.58.78.25,1.57.43,2.38.54,2.06.29,4.16.17,6.18-.34"/>
        <path class="cls-1" d="M86.93,81.31v5.56c0,6.54.32,13.09.96,19.6.36,3.67.91,7.32,1.66,10.93,1.26,6.09,3.72,11.87,7.25,16.98.49.71,1.04,1.38,1.65,1.98.6.6,1.34,1.05,2.15,1.31.72.23,1.45.39,2.2.5,1.92.27,3.88.16,5.76-.32"/>
        <path class="cls-1" d="M13.89,110.97c4.98,8.31,10.87,16.04,17.57,23.05.95,1,1.97,1.93,3.03,2.8,1.07.86,2.31,1.48,3.64,1.79,1.49.36,3.01.59,4.54.7,3.83.26,7.68.39,11.52.4,13.04,0,26.08.53,39.09,1.58,1.67.13,3.35.16,5.02.07,1.71-.09,3.4-.31,5.08-.64,1.01-.2,1.94-.67,2.71-1.35"/>
        <path class="cls-1" d="M88.48,117.61l-71.34-8.03c-.41-.05-.83-.03-1.23.06-.75.15-1.43.51-1.98,1.03-.08.08-.1.2-.04.3"/>
        <path class="cls-1" d="M13.85,110.74l62.75,7.25c2.41.27,4.82.37,7.24.27,1.56-.06,3.12-.28,4.64-.64"/>
        <line class="cls-1" x1="41.83" y1="81.31" x2="41.83" y2="97.72"/>
        <path class="cls-1" d="M54.23,81.31v16.6c0,.62-.14,1.23-.42,1.79-.82,1.68-2.37,2.9-4.21,3.29-1.14.25-2.32.25-3.46.01-2.5-.52-4.3-2.73-4.31-5.29"/>
        <path class="cls-1" d="M49.23,81.31v14.97c0,.39-.18.75-.49.98-.93.69-2.03,1.11-3.19,1.2"/>
        <line class="cls-1" x1="74.93" y1="81.31" x2="74.93" y2="101.03"/>
        <path class="cls-1" d="M49.6,103l23.77-.37c.87-.01,1.57-.73,1.56-1.6"/>
        <line class="cls-1" x1="54.2" y1="98.38" x2="74.48" y2="102.15"/>
        <path class="cls-1" d="M338.09,128.01l9.85,3.65c.07.02.14.02.2-.02"/>
        <line class="cls-1" x1="340.22" y1="124.08" x2="350.03" y2="127.71"/>
        <path class="cls-1" d="M350.03,127.71l.27.1c.05.02.09.08.08.13"/>
        <line class="cls-1" x1="340.58" y1="123.11" x2="350.38" y2="126.74"/>
        <path class="cls-1" d="M350.38,126.74l.17.06s.06.05.06.09"/>
        <path class="cls-1" d="M349.45,81.31v12.65c0,9.78-.49,19.55-1.47,29.27-.03.27-.08.54-.16.8-.14.47-.62.75-1.1.64-2.06-.47-4.08-1.06-6.07-1.79"/>
        <path class="cls-1" d="M355.5,135.54l.1-.21c.06-.13.11-.26.16-.4.07-.22-.05-.46-.27-.53h-.03c-.46-.13-.95-.17-1.43-.13"/>
        <line class="cls-1" x1="357.36" y1="134.33" x2="355.63" y2="134.47"/>
        <path class="cls-1" d="M10.34,112.16c4.99,10.56,10.6,20.82,16.79,30.74.25.4.54.77.88,1.1.34.35.86.46,1.32.28,2.55-.98,5.12-1.91,7.7-2.8"/>
        <path class="cls-1" d="M37.04,144.4l-5.54,2.36c-.32.14-.7.02-.89-.28-.45-.72-.83-1.47-1.16-2.25"/>
        <line class="cls-1" x1="8.9" y1="112.94" x2="24.43" y2="138.48"/>
        <path class="cls-1" d="M9.76,81.31v3.88c0,5.88.25,11.75.74,17.61.26,3.1.38,6.2.34,9.31,0,.24,0,.47.03.71"/>
        <path class="cls-1" d="M4.92,115.96c1.16,1.34,2.44,2.57,3.82,3.69"/>
        <line class="cls-1" x1="318.4" y1="81.55" x2="318.4" y2="83.34"/>
        <path class="cls-1" d="M310.33,81.31v.13c0,.26.08.51.23.71.6.81,1.54,1.31,2.55,1.34h5.13c.09,0,.16-.07.16-.15"/>
        <path class="cls-1" d="M318.4,81.55h-5.85c-.13,0-.24-.11-.25-.24"/>
        <path class="cls-1" d="M318.4,81.55h.07c.13,0,.24-.11.24-.24"/>
        <path class="cls-1" d="M137.41,126.52l.09.62c.1.69.3,1.36.6,1.98"/>
        <path class="cls-1" d="M138.1,129.12l.07.14s0,0,0,0c.01.04,0,.08-.04.09"/>
        <path class="cls-1" d="M114.41,142.76c-2.4-.44-4.54-1.78-5.97-3.77"/>
        <path class="cls-1" d="M2.44,81.31v4.72c0,6.61.19,13.21.57,19.81.08,1.32.28,2.63.61,3.91.36,1.39.95,2.72,1.75,3.91"/>
        <path class="cls-1" d="M11,116.41c-.22.62-.34,1.27-.36,1.93,0,.11,0,.23,0,.34,0,.08.02.16.05.22,5.01,8.7,10.52,17.09,16.49,25.15.31.41.64.8,1.01,1.16.29.29.7.4,1.09.31.23-.06.45-.12.67-.21"/>
        <path class="cls-1" d="M10.36,120.54l.14-1.5s0-.04.01-.05c.03-.07.12-.1.19-.07"/>
        <path class="cls-1" d="M10.36,120.54v.14c-.02.06,0,.13.02.19.9,1.89,1.9,3.73,2.99,5.52,2.72,4.45,5.6,8.79,8.66,13.01,1.49,2.06,3.1,4.05,4.81,5.94.31.34.63.68.97.99.21.19.42.38.63.57.57.49,1.38.6,2.07.29.33-.15.66-.29,1-.42"/>
        <path class="cls-1" d="M96.42,137.17c-4.18,1.23-8.53,1.7-12.88,1.39-11.13-.79-22.28-1.13-33.44-1.02-4.11.04-8.21,0-12.32-.13-2.18-.07-4.35-.2-6.51-.39-.15-.02-.3-.07-.43-.15"/>
        <line class="cls-1" x1="96.42" y1="137.17" x2="97.41" y2="136.85"/>
        <path class="cls-1" d="M36.21,146.4c2.98.69,5.92,1.58,8.79,2.67,1.49.57,3.05.93,4.63,1.1,10.69,1.13,21.45,1.57,32.19,1.29,5.65-.15,11.29-.34,16.93-.57,4.27-.18,8.47-1.15,12.39-2.85"/>
        <path class="cls-1" d="M37.12,143.13c8.38,1.23,16.8,2.15,25.25,2.75,11.88.84,23.78,1.46,35.69,1.85,4.4.14,8.81.15,13.21.02"/>
        <path class="cls-1" d="M36.29,146.35l.18-.08c.59-.26,1.22-.42,1.87-.48,6.11-.53,12.26-.65,18.39-.35"/>
        <path class="cls-1" d="M111.41,147.41c2.38,0,4.76,0,7.14,0"/>
        <path class="cls-1" d="M129.7,147.39c15.59-.01,31.18-.01,46.78,0"/>
        <path class="cls-1" d="M191.16,147.4c15.11.02,30.21.04,45.32.07,3.31,0,6.61-.09,9.91-.31"/>
        <path class="cls-1" d="M205.39,130.7c-.23,4.02-.7,8.02-1.39,11.99"/>
        <path class="cls-1" d="M195.32,130.73c-.85,2.98-2.02,5.87-3.47,8.61-.61,1.15-1.24,2.29-1.9,3.41"/>
        <path class="cls-1" d="M9.15,122.06c-.05-.31,0-.63.15-.91.05-.1.12-.18.21-.24.12-.09.25-.16.38-.24.14-.08.31-.1.47-.06"/>
        <path class="cls-1" d="M5.55,81.31c0,2.92-.62,5.28-1.38,5.28s-1.38-2.37-1.38-5.28"/>
        <path class="cls-1" d="M4.02,86.56v2.04c0,5.59.11,11.17.33,16.75.07,1.92.55,3.8,1.4,5.51"/>
        <path class="cls-1" d="M246.44,149c-1.29.04-2.55.4-3.66,1.05-.29.17-.38.54-.21.83.07.12.19.22.32.26.93.32,1.89.52,2.87.6,4.33.34,8.67.51,13.01.52,1.11,0,2.19-.36,3.07-1.04.2-.15.32-.38.34-.63.04-.5-.25-.96-.7-1.16-.39-.18-.8-.29-1.23-.34-.89-.11-1.78-.16-2.67-.16-.2,0-.38.1-.49.26-.2.3-.37.6-.52.93-.11.22-.32.38-.57.42-.42.06-.84.09-1.26.09-2.28,0-4.56-.03-6.84-.1-.19,0-.36-.11-.46-.27-.18-.29-.34-.6-.48-.92-.09-.21-.3-.34-.52-.34"/>
        <line class="cls-1" x1="258.37" y1="152.26" x2="258.38" y2="148.94"/>
        <path class="cls-1" d="M246.45,149c3.7-.35,7.43-.38,11.13-.07"/>
        <path class="cls-1" d="M177.36,147.31c-1.29.03-2.55.4-3.66,1.06-.29.17-.39.54-.21.83.07.12.19.22.32.27.93.32,1.89.52,2.87.59,4.33.34,8.67.51,13.01.52,1.11,0,2.19-.37,3.07-1.04.2-.15.32-.38.34-.63.03-.5-.25-.96-.7-1.16-.39-.17-.8-.29-1.23-.34-.89-.1-1.78-.16-2.67-.16-.2,0-.38.1-.49.27-.2.3-.37.6-.52.93-.11.23-.32.38-.57.42-.42.06-.84.09-1.26.09-2.28,0-4.56-.03-6.84-.11-.19,0-.36-.1-.46-.27-.18-.29-.34-.6-.48-.92-.09-.21-.29-.34-.52-.34"/>
        <line class="cls-1" x1="189.29" y1="150.57" x2="189.3" y2="147.25"/>
        <path class="cls-1" d="M177.37,147.31c3.7-.35,7.43-.37,11.13-.07"/>
        <path class="cls-1" d="M330.33,145.9c-3.85.11-7.69.25-11.54.4-.72.03-1.41.26-2.01.66-1.34.92-2.82,1.61-4.38,2.04-4.8,1.33-9.75,2.07-14.73,2.19-11.86.3-23.73.24-35.59-.16"/>
        <path class="cls-1" d="M242.49,150.63h-.53c-2.41,0-4.79-.44-7.04-1.32-.09-.04-.15-.11-.17-.21-.03-.15.07-.3.22-.32,3.78-.74,7.59-1.25,11.43-1.54.02,0,.04-.02.04-.05,0-.02-.02-.04-.05-.04"/>
        <path class="cls-1" d="M317.96,146.42c-3.95.22-7.92.14-11.86-.24"/>
        <line class="cls-1" x1="249.73" y1="142.41" x2="251.07" y2="130.88"/>
        <line class="cls-1" x1="251.16" y1="142.4" x2="252.45" y2="131.27"/>
        <path class="cls-1" d="M357.36,81.31v29.06c0,1.24-.18,2.46-.53,3.64-.78,2.64-1.36,5.33-1.73,8.06-.55,4.03-1.15,8.05-1.8,12.06"/>
        <path class="cls-1" d="M354.41,81.31v2.04c0,.33.09.65.26.93.43.73,1,1.37,1.66,1.89.29.23.65.34,1.02.33"/>
        <path class="cls-1" d="M359.95,81.31v10.98c0,3.63-.2,7.25-.59,10.86-1.14,10.42-2.6,20.81-4.38,31.13"/>
        <path class="cls-1" d="M361.29,81.31v34.02c0,1.36-.14,2.73-.43,4.07-.37,1.72-.84,3.41-1.4,5.08-.45,1.34-1.79,2.16-3.18,1.98"/>
        <path class="cls-1" d="M352.19,134.12l2.31-21.28c.17-1.53.39-3.05.65-4.56.17-.97.68-1.85,1.44-2.47.21-.18.48-.29.77-.32.57-.05,1.07-.39,1.35-.89.34-.61.57-1.27.7-1.95"/>
        <line class="cls-1" x1="354.99" y1="109.25" x2="354.99" y2="122.84"/>
        <path class="cls-1" d="M359.64,81.31c0,2.88-.5,5.22-1.11,5.22s-1.11-2.34-1.11-5.22"/>
      </g>
    </g>
  </g>
</svg>