<?xml version="1.0" encoding="UTF-8"?>
<svg id="Layer_1" data-name="Layer 1" xmlns="http://www.w3.org/2000/svg" xmlns:xlink="http://www.w3.org/1999/xlink" viewBox="0 0 162.33 141.05">
  <defs>
    <style>
      .cls-1 {
        stroke: #333;
        stroke-linecap: round;
        stroke-linejoin: round;
        stroke-width: .71px;
      }

      .cls-1, .cls-2 {
        fill: none;
      }

      .cls-3 {
        clip-path: url(#clippath-1);
      }

      .cls-4 {
        isolation: isolate;
      }

      .cls-5 {
        clip-path: url(#clippath);
      }
    </style>
    <clipPath id="clippath">
      <rect class="cls-2" width="162.33" height="141.05"/>
    </clipPath>
    <clipPath id="clippath-1">
      <rect class="cls-2" width="163" height="142"/>
    </clipPath>
  </defs>
  <g class="cls-4">
    <g class="cls-5">
      <line class="cls-1" x1="12.1" y1="113.91" x2="12.1" y2="125.85"/>
      <line class="cls-1" x1="35.28" y1="110.51" x2="35.28" y2="125.86"/>
      <g class="cls-3">
        <path class="cls-1" d="M26.89,140.69h-2.57c-.07-.01-.11-.07-.12-.13,0-.12-.04-.23-.11-.33-.08-.09-.19-.14-.32-.14h-.15c-.12,0-.24.05-.32.14-.07.1-.11.21-.12.33,0,.07-.05.12-.11.13h-2.96c-.13,0-.23-.12-.22-.25,0-.07-.02-.15-.05-.22-.03-.06-.07-.11-.13-.15-.08-.04-.16-.07-.25-.09-.15-.03-.29.04-.36.16l-.2.36c-.04.07-.13.12-.22.11-.83-.1-1.65-.28-2.44-.54-1.59-.48-2.77-1.79-3.09-3.42-.68-3.56-1.03-7.17-1.05-10.8"/>
        <path class="cls-1" d="M19.89,140.45c-.24-6.37-.41-12.75-.51-19.12"/>
        <line class="cls-1" x1="23.18" y1="140.56" x2="23.18" y2="121.32"/>
        <line class="cls-1" x1="24.2" y1="140.55" x2="24.2" y2="121.32"/>
        <path class="cls-1" d="M18.89,140.5c-.16-6.39-.27-12.78-.33-19.18"/>
        <path class="cls-1" d="M12.27,114.41s-.02.04-.02.06v.29s.02.07.05.07l.12.02"/>
        <path class="cls-1" d="M13.44,117.27c-.34.04-.68.08-1.02.14-.04,0-.07.03-.07.07v.23s.02.07.06.07c.45.11.92.17,1.38.18"/>
        <path class="cls-1" d="M19.4,122.24l1.78-.46s.04,0,.05.02c.02.03,0,.05-.02.07-.12.07-.24.12-.37.17-.48.19-.96.37-1.44.54"/>
        <path class="cls-1" d="M19.44,125.1l1.86-.43s.04,0,.05.03c.02.02,0,.05-.02.07-.14.06-.28.1-.43.14-.48.19-.97.37-1.46.55"/>
        <path class="cls-1" d="M26.89,140.69c.11,0,.2-.09.22-.2.02-.11.04-.22.05-.33.24-.17.56-.17.8-.01.07.15.11.3.11.46.02.05.07.09.12.08"/>
        <path class="cls-1" d="M28.19,140.69c1.02,0,2.02-.21,2.96-.62,1.58-.48,2.77-1.79,3.08-3.42.68-3.56,1.03-7.17,1.05-10.8"/>
        <path class="cls-1" d="M19.5,128.02l1.86-.43s.04,0,.06.03c.02.02,0,.05-.02.07-.14.06-.28.11-.43.14-.48.14-.97.28-1.46.4"/>
        <path class="cls-1" d="M19.55,130.42l1.35-.22c.06,0,.11,0,.17-.01.02,0,.04.01.05.03,0,.02-.01.05-.03.05l-1.3.28c-.08.02-.16.03-.24.03"/>
        <path class="cls-1" d="M19.62,132.76l1.35-.22c.06,0,.11,0,.17-.01.02,0,.04.01.05.04,0,.02,0,.05-.04.05l-1.3.28c-.08.01-.16.03-.23.03"/>
        <path class="cls-1" d="M19.68,134.84l1.38-.18c.06,0,.11,0,.17,0,.02,0,.04.01.05.04,0,.02,0,.05-.03.05l-1.32.24c-.08.01-.16.03-.23.03"/>
        <path class="cls-1" d="M19.73,136.53c.13-.08.28-.12.43-.12.41-.04.82-.07,1.22-.09.02,0,.03.01.03.03,0,.02-.01.03-.03.03-.4.06-.8.11-1.21.16-.15.04-.3.09-.43.18"/>
        <path class="cls-1" d="M19.79,138.09c.13-.07.27-.12.43-.12.41-.04.81-.07,1.22-.09.02,0,.04.01.04.04s-.01.04-.03.04c-.4.06-.8.11-1.21.16-.16.03-.3.09-.44.18"/>
        <path class="cls-1" d="M19.84,139.3c.14-.02.28-.05.43-.07.41-.04.82-.07,1.22-.09.02,0,.03.01.04.03,0,.02-.02.04-.03.04-.4.06-.8.11-1.21.16-.14.02-.29.06-.44.09"/>
        <line class="cls-1" x1="24.21" y1="121.41" x2="24.56" y2="121.32"/>
        <path class="cls-1" d="M25.38,121.32c-.39.15-.78.29-1.17.43"/>
        <path class="cls-1" d="M24.25,124.27l1.86-.43s.04,0,.06.02c.02.02,0,.06-.02.07-.14.06-.28.11-.43.14-.49.19-.97.37-1.46.55"/>
        <path class="cls-1" d="M24.31,127.19l1.86-.43s.04,0,.06.02c.02.02,0,.06-.02.07-.14.06-.28.11-.43.14-.48.15-.97.28-1.47.4"/>
        <path class="cls-1" d="M24.2,129.86l1.36-.22c.05,0,.11,0,.17-.01.02,0,.05.01.05.04,0,.03-.01.05-.03.05l-1.3.28c-.08.02-.16.03-.23.04"/>
        <path class="cls-1" d="M24.2,132.25l1.35-.23c.06,0,.11,0,.17,0,.02,0,.04.01.05.04,0,.02,0,.05-.03.06l-1.54.33"/>
        <path class="cls-1" d="M24.2,134.32l1.38-.18c.06,0,.11,0,.17,0,.02,0,.04.01.05.04,0,.02,0,.05-.03.06l-1.56.27"/>
        <path class="cls-1" d="M24.2,136.09c.13-.03.27-.06.4-.07.41-.04.82-.07,1.23-.09.02,0,.03.02.03.04,0,.02-.01.04-.03.04-.4.06-.81.11-1.2.16-.15.04-.29.09-.43.17"/>
        <path class="cls-1" d="M24.2,137.52c.14-.05.28-.09.43-.1.41-.04.81-.07,1.22-.09.02,0,.03.01.03.03,0,.02-.01.04-.03.04-.4.06-.8.11-1.21.16-.16.02-.3.07-.45.15"/>
        <path class="cls-1" d="M24.2,138.74c.15-.02.29-.04.43-.06.41-.04.81-.07,1.22-.09.02,0,.03.02.04.03,0,.02-.01.04-.04.04-.4.06-.8.11-1.2.16-.15.02-.3.04-.45.07"/>
        <path class="cls-1" d="M24.2,139.75c.15-.02.29-.04.43-.05.41-.04.81-.07,1.22-.09.02,0,.03.01.04.03,0,.02-.01.03-.04.04-.4.05-.8.11-1.2.16-.15.01-.3.03-.45.05"/>
        <path class="cls-1" d="M15.99,120.96l-1.13.11c-.46.04-.93,0-1.38-.11-.37-.09-.72-.23-1.06-.4-.03-.02-.04-.05-.04-.08v-.21s0,0,0,0c.01-.06.07-.1.14-.09.59.09,1.19.14,1.8.15.35,0,.7.02,1.05.03"/>
        <path class="cls-1" d="M23.18,122.43l-1.84.85s-.03.04-.02.07c.01.02.03.03.06.03.19-.04.37-.09.55-.15.42-.15.84-.3,1.26-.45"/>
        <path class="cls-1" d="M23.18,125.38l-1.84.86s-.03.04-.02.07c.01.02.03.03.06.03.19-.04.37-.09.55-.15.42-.15.84-.3,1.26-.45"/>
        <path class="cls-1" d="M23.18,128.05l-1.84.86s-.03.04-.02.07c.01.02.03.03.06.03.19-.04.37-.09.55-.15.42-.15.84-.3,1.26-.45"/>
        <path class="cls-1" d="M23.18,130.75l-1.86.7s-.03.04-.02.07c0,.02.03.03.05.03.27,0,.54-.06.81-.15.34-.12.68-.25,1.02-.37"/>
        <path class="cls-1" d="M23.18,132.85l-1.86.7s-.03.04-.02.07c0,.02.03.03.05.02.27,0,.54-.06.81-.15.34-.12.68-.24,1.02-.37"/>
        <path class="cls-1" d="M23.18,135.06l-1.9.48s-.04.04-.03.06c0,.02.03.03.05.03.27.02.55,0,.82-.06.35-.08.71-.16,1.06-.25"/>
        <path class="cls-1" d="M23.18,136.69l-1.7.43s-.04.04-.03.06c0,.02.03.04.05.04.27.02.55,0,.82-.06.29-.07.58-.14.86-.2"/>
        <path class="cls-1" d="M23.18,138.08l-1.9.48s-.04.04-.03.06c0,.02.03.04.05.03.63-.07,1.26-.18,1.88-.31"/>
        <path class="cls-1" d="M23.18,139.21l-1.72.39s-.03.03-.02.05c0,.01.02.02.03.02.57-.05,1.14-.14,1.7-.26"/>
        <path class="cls-1" d="M12.43,123.1c.01.07.04.12.09.17.18.17.38.31.6.4.35.16.74.26,1.12.28.69.03,1.38.03,2.07,0l.9-.05c.09-.01.17-.04.25-.07.09-.11.07-.28-.05-.37-.66,0-1.32-.02-1.98-.06-.44-.03-.88-.08-1.31-.15-.41-.07-.82-.16-1.22-.28l-.37-.11c-.05,0-.1.03-.11.08"/>
        <line class="cls-1" x1="27.16" y1="140.16" x2="27.14" y2="121.32"/>
        <line class="cls-1" x1="28.07" y1="140.61" x2="28.07" y2="121.32"/>
        <path class="cls-1" d="M12.62,125.5l.62.32c.28.15.59.24.9.29.9.13,1.8.2,2.71.21.24,0,.47.01.71.03.04,0,.08.02.1.05.06.06.05.15-.02.21-.05.05-.13.08-.21.08-1.02.04-2.05.03-3.07-.02-.42-.02-.82-.15-1.17-.38-.19-.13-.39-.25-.59-.36-.05-.03-.08-.09-.08-.15v-.21s0-.02,0-.03c.02-.04.07-.05.1-.03Z"/>
        <path class="cls-1" d="M34.39,114.62c.12-.03.25-.06.37-.09h.01s.07.03.07.08c0,.03,0,.07-.01.1,0,.02-.02.04-.03.05-.19.11-.38.21-.57.31"/>
        <path class="cls-1" d="M32.84,118.16c.64-.16,1.28-.32,1.91-.48,0,0,0,0,.01,0,.04,0,.08.03.07.08,0,.04,0,.07-.01.1,0,.02-.02.04-.03.06-.09.07-.19.12-.29.15-.69.36-1.4.68-2.13.95"/>
        <path class="cls-1" d="M28.07,122.47c2.08-.38,4.11-.98,6.06-1.81.21-.08.4-.18.58-.31,0,0,0,0,.01,0,.03-.02.08,0,.1.04,0,.02.02.05.02.07,0,.04-.02.09-.05.12-1.94,1.5-4.27,2.41-6.72,2.61"/>
        <path class="cls-1" d="M28.07,125.38c1.98-.32,3.9-.91,5.71-1.77.32-.12.63-.3.91-.5,0,0,.02,0,.02,0,.03-.02.08,0,.09.04,0,.02.01.05.02.07,0,.05,0,.09-.04.12-1.89,1.61-4.24,2.56-6.72,2.72"/>
        <path class="cls-1" d="M28.07,128.1c1.98-.36,3.9-1,5.71-1.9.31-.15.62-.32.91-.5.04-.03.09-.03.13,0,0,.04,0,.09-.04.11-1.87,1.68-4.22,2.71-6.72,2.96"/>
        <path class="cls-1" d="M28.07,130.68c2.04-.29,4-1,5.76-2.09.24-.13.44-.3.61-.52.01-.01.03-.02.05-.02.03,0,.06.03.06.06,0,.06-.02.12-.05.17-.23.34-.51.65-.82.91-.58.48-1.24.86-1.95,1.1-1.05.46-2.16.78-3.29.95-.12.01-.23.02-.35.04"/>
        <path class="cls-1" d="M28.07,132.96c1.98-.3,3.88-1.01,5.58-2.07.24-.13.45-.31.61-.52.01-.01.03-.02.04-.02.03,0,.06.02.06.05,0,.06-.02.12-.05.17-.23.34-.51.65-.82.91-.58.48-1.24.86-1.96,1.1-1.05.46-2.16.78-3.29.95-.06,0-.12.02-.18.02"/>
        <path class="cls-1" d="M28.07,135.02c1.77-.25,3.48-.85,5.01-1.78.44-.25.81-.59,1.1-1,.01-.01.03-.02.05-.02.03,0,.06.03.06.06-.07.18-.17.35-.29.5-.55.65-1.25,1.15-2.03,1.47-1.2.66-2.52,1.07-3.89,1.21"/>
        <path class="cls-1" d="M28.07,136.69c1.77-.25,3.48-.85,5.01-1.78.44-.3.82-.68,1.11-1.13.01-.01.03-.02.04-.02.03,0,.06.02.06.06-.07.18-.17.35-.29.5-.54.69-1.25,1.24-2.04,1.61-1.2.66-2.52,1.07-3.89,1.21"/>
        <path class="cls-1" d="M28.07,138.08c1.34-.15,2.65-.54,3.86-1.12.82-.35,1.53-.94,2.03-1.68.01-.01.03-.02.05-.02.03,0,.05.02.05.05-.07.18-.17.35-.29.5-.46.65-1.09,1.16-1.82,1.49-1.2.67-2.52,1.07-3.89,1.17"/>
        <path class="cls-1" d="M28.07,139.23c1.34-.16,2.65-.55,3.86-1.15.79-.36,1.48-.92,1.98-1.63.01-.01.03-.02.05,0,.02.01.03.03.02.06-.45.83-1.16,1.49-2.02,1.88-1.2.67-2.52,1.07-3.89,1.17"/>
        <path class="cls-1" d="M28.07,139.98c1.34-.11,2.65-.49,3.84-1.12.64-.31,1.21-.73,1.7-1.25.01-.01.03-.02.05-.01.02.01.03.04.02.06-.43.57-.99,1.02-1.62,1.34-1.23.69-2.58,1.1-3.98,1.23"/>
        <path class="cls-1" d="M24.2,140.37l1.71-.08s.04.02.05.04c0,.02-.02.04-.04.04-.57.04-1.14.09-1.72.13"/>
        <path class="cls-1" d="M12.62,128.05s0-.03.01-.05c.02-.03.07-.04.1-.02.45.31.96.5,1.49.59,1.07.17,2.14.29,3.21.37.12,0,.21.09.25.19.02.06-.01.12-.08.14-1.28.07-2.55-.06-3.79-.39-.41-.11-.78-.3-1.1-.57-.05-.04-.08-.1-.08-.17v-.1"/>
        <path class="cls-1" d="M12.74,130.23s0-.03.02-.04c.02-.03.07-.04.1-.02.4.34.87.58,1.38.71,1.05.29,2.13.46,3.21.51.12,0,.21.09.25.2.02.06-.01.12-.08.14-1.28-.07-2.56-.28-3.79-.64-.34-.14-.65-.33-.94-.55-.06-.05-.11-.12-.12-.2v-.1"/>
        <path class="cls-1" d="M12.86,132.21s0-.03.02-.04c.02-.04.07-.04.1-.02.35.36.78.63,1.25.79,1.05.29,2.13.45,3.21.51.12,0,.21.09.25.2.02.06-.01.12-.08.14-1.18-.06-2.35-.25-3.49-.56-.43-.14-.82-.39-1.12-.72-.06-.05-.1-.12-.12-.2v-.1"/>
        <path class="cls-1" d="M12.98,133.84s0-.03.01-.05c.02-.03.07-.04.1-.02.34.49.81.86,1.37,1.06.97.27,1.97.45,2.98.52.11,0,.21.09.24.19.02.06-.02.12-.07.14-1.09-.08-2.18-.27-3.23-.56-.52-.18-.97-.52-1.27-.97-.05-.07-.1-.14-.13-.22v-.1"/>
        <path class="cls-1" d="M13.12,135.27s0-.03.02-.05c.02-.03.07-.04.1-.02.37.52.88.93,1.47,1.18.89.27,1.81.45,2.73.52.12,0,.21.09.25.19.01.06-.02.12-.08.14-1.01-.08-2.01-.27-2.98-.57-.52-.19-.97-.54-1.27-1.01-.11-.11-.19-.25-.23-.4"/>
        <path class="cls-1" d="M13.26,136.39s.01-.03.03-.04c.03-.02.06,0,.08.02.34.57.86,1.02,1.47,1.29.86.32,1.76.51,2.68.56.11,0,.21.09.24.2.02.06-.02.12-.07.14-1-.05-1.99-.27-2.93-.63-.69-.29-1.23-.84-1.5-1.53"/>
        <path class="cls-1" d="M13.67,137.62s0-.02.01-.03c.01-.02.04-.02.05,0,.3.46.72.84,1.22,1.07.87.32,1.78.48,2.7.49.11,0,.2.07.24.17,0,0,0,.01,0,.02,0,.04-.03.07-.07.08-1,.01-2-.18-2.93-.56-.53-.27-.96-.7-1.23-1.23"/>
        <path class="cls-1" d="M79.6,4.15h-4.57c-10.42,0-20.84.33-31.24.98"/>
        <path class="cls-1" d="M36.47,5.65c-1.67.19-3.13,1.19-3.9,2.68-5.47,10.55-9.88,21.61-13.16,33.03-.17.59-.46,1.13-.85,1.6-1.66,1.96-3.1,4.09-4.31,6.36-.32.6-.67,1.18-1.05,1.75-1.29,1.93-2.1,4.14-2.36,6.45-.19,1.74-.38,3.47-.55,5.21"/>
        <path class="cls-1" d="M16.25,45.99l-9.43-.69c-1.97-.14-3.87-.82-5.5-1.94-.59-.41-.94-1.07-.96-1.79-.03-1.43.07-2.85.3-4.26.1-.58.42-1.1.89-1.44,1.31-.95,2.82-1.59,4.42-1.87,3.03-.53,6.1-.82,9.17-.87.45,0,.9.08,1.32.24,1.01.39,1.72,1.31,1.82,2.39.08.84.08,1.68,0,2.52-.1,1.51-.25,3.02-.44,4.53"/>
        <path class="cls-1" d="M14.81,45.19l-7.95-.58c-1.85-.14-3.62-.76-5.15-1.82-.41-.28-.65-.74-.66-1.23-.03-1.38.07-2.76.29-4.13.07-.4.28-.75.61-.99,1.23-.88,2.64-1.48,4.13-1.75,3-.52,6.03-.81,9.07-.85.36,0,.72.06,1.06.19.76.29,1.3,1,1.38,1.82.08.8.08,1.6,0,2.39-.1,1.5-.25,3-.44,4.5"/>
        <line class="cls-1" x1="18.6" y1="42.89" x2="17.84" y2="42.83"/>
        <path class="cls-1" d="M10.23,89.9c-.02-.08-.04-.16-.06-.24-.74-3.15-1.25-6.35-1.55-9.57-.36-3.86-.56-7.74-.61-11.61-.02-1.62.28-3.24.88-4.75.11-.27.27-.51.46-.73.18-.19.44-.31.71-.31.07,0,.15.01.21.04"/>
        <path class="cls-1" d="M81.16,118.48h-27.94c-.45,0-.86-.23-1.09-.61-.87-1.97-1.31-4.09-1.31-6.24"/>
        <line class="cls-1" x1="49" y1="107.88" x2="45.55" y2="107.88"/>
        <path class="cls-1" d="M12.19,52.81l-.58-.03c-.7-.04-1.3.47-1.39,1.16-.03.3-.02.59.06.88.11.42.47.72.9.75"/>
        <path class="cls-1" d="M43.13,105.14v1.41c0,.31.18.6.47.73.61.28,1.25.48,1.91.59"/>
        <path class="cls-1" d="M23,121.32h-5.88c-.52,0-1.02-.21-1.39-.57-.6-.59-1.11-1.26-1.52-1.99-1.07-1.89-1.89-3.91-2.46-6-.15-.57-.25-1.15-.28-1.73-.25-4.45-.52-8.9-.79-13.35-.14-2.59-.29-5.19-.46-7.78"/>
        <path class="cls-1" d="M11.43,110.14h-1.06c-.61,0-1.11.5-1.11,1.11,0,.02,0,.04,0,.07v1.44c0,.59.48,1.07,1.06,1.07.02,0,.03,0,.05,0h1.7"/>
        <line class="cls-1" x1="35.56" y1="105.75" x2="43.13" y2="105.75"/>
        <path class="cls-1" d="M81.16,110.34c-10.59,0-19.17,1.03-19.17,2.29s8.58,2.29,19.17,2.29"/>
        <path class="cls-1" d="M81.16,108.21h-2.38c-7.83,0-15.64.47-23.42,1.4-1.31.16-2.6.49-3.82.98-.57.23-.85.88-.62,1.46.11.28.34.51.62.62,1.64.66,3.35,1.1,5.1,1.31,6.77.86,13.6,1.29,20.42,1.29"/>
        <path class="cls-1" d="M62.93,106.69c-2.61.21-5.22.47-7.82.79-1.15.14-2.29.39-3.39.76"/>
        <line class="cls-1" x1="81.16" y1="115.27" x2="77.06" y2="115.27"/>
        <line class="cls-1" x1="81.16" y1="118.18" x2="54.68" y2="118.18"/>
        <path class="cls-1" d="M53.54,113.36v3.1c0,.41.12.8.35,1.13.12.18.27.34.44.47.1.08.22.12.34.12"/>
        <path class="cls-1" d="M51.72,108.24l-.33.11c-.41.14-.7.52-.71.96-.03.77.03,1.55.16,2.32"/>
        <line class="cls-1" x1="50.68" y1="109.31" x2="50.68" y2="105.88"/>
        <path class="cls-1" d="M50.68,106.59h-.68c-.49,0-.89.4-.89.89v2.66c0,.13.1.25.24.25h1.35"/>
        <path class="cls-1" d="M17.84,42.83l-.02.14c-.05.44-.24.85-.53,1.18-.44.49-.91.95-1.41,1.38-.28.24-.65.37-1.02.36"/>
        <path class="cls-1" d="M17.15,42.74l-.02.14c-.04.3-.17.59-.37.82-.41.47-.86.9-1.34,1.31-.17.14-.39.21-.61.19"/>
        <path class="cls-1" d="M80.76,2.72V.76c0-.22.18-.4.4-.41"/>
        <path class="cls-1" d="M81.16,4.68h-1.97s-.03,0-.05-.02c-.03-.03-.03-.07,0-.09.36-.36.75-.69,1.16-1,.26-.2.43-.51.45-.84"/>
        <path class="cls-1" d="M37.97,1.34c1.58-.27,3.17-.41,4.77-.4.43,0,.78.32.83.74.13,1.14.2,2.3.22,3.45,0,.14,0,.29,0,.43,0,.09-.05.17-.13.2-2.32.29-4.64.49-6.97.6-.02,0-.04,0-.06,0-.16-.03-.26-.17-.23-.33.25-1.45.62-2.88,1.11-4.27.07-.21.25-.36.46-.42"/>
        <path class="cls-1" d="M23,121.32h6.6c.52,0,1.02-.21,1.39-.57.6-.59,1.11-1.26,1.52-1.99,1.07-1.89,1.89-3.91,2.46-6,.15-.57.24-1.15.28-1.73.12-2.17.25-4.34.38-6.51"/>
        <line class="cls-1" x1="63.27" y1="98" x2="63.27" y2="106.86"/>
        <line class="cls-1" x1="61.98" y1="106.19" x2="61.98" y2="98.22"/>
        <path class="cls-1" d="M65.3,106.9h-1.77c-.12,0-.23-.03-.33-.08-.39-.19-.78-.39-1.17-.58-.02-.01-.04-.04-.04-.06"/>
        <line class="cls-1" x1="67.33" y1="97.98" x2="67.33" y2="106.86"/>
        <path class="cls-1" d="M81.16,97.07h-12.9c-.5,0-.92.4-.93.91"/>
        <line class="cls-1" x1="68.61" y1="106.19" x2="68.61" y2="98.22"/>
        <path class="cls-1" d="M81.16,97.67h-11.98c-.31,0-.56.25-.57.55"/>
        <path class="cls-1" d="M65.3,106.9h1.78c.12,0,.23-.03.33-.08.39-.19.78-.39,1.17-.58.02-.01.04-.04.04-.06"/>
        <path class="cls-1" d="M49.43,97.07h12.9c.51,0,.93.41.93.93"/>
        <path class="cls-1" d="M49.43,97.67h11.98c.31,0,.56.25.57.55"/>
        <line class="cls-1" x1="39.19" y1="98.02" x2="39.19" y2="105.43"/>
        <line class="cls-1" x1="40.48" y1="104.76" x2="40.48" y2="98.22"/>
        <path class="cls-1" d="M38.74,105.47h.2c.11,0,.23-.02.33-.07.39-.2.78-.39,1.17-.58.02,0,.04-.03.04-.05"/>
        <path class="cls-1" d="M49.43,97.07h-9.3c-.51,0-.93.41-.93.93,0,0,0,.01,0,.02"/>
        <path class="cls-1" d="M49.43,97.67h-8.38c-.31,0-.56.25-.57.55"/>
        <path class="cls-1" d="M81.16,94.24h-43.79c-.51,0-.93.41-.93.92"/>
        <line class="cls-1" x1="36.44" y1="95.16" x2="36.44" y2="104.32"/>
        <path class="cls-1" d="M36.44,104.32v.23c0,.1.05.2.13.27.14.11.29.21.46.27.55.22,1.12.35,1.72.38"/>
        <line class="cls-1" x1="68.6" y1="106.22" x2="73.89" y2="106.22"/>
        <line class="cls-1" x1="81.16" y1="101.22" x2="75.09" y2="101.22"/>
        <path class="cls-1" d="M74.58,105.85v-4.12c0-.28.23-.51.51-.51"/>
        <path class="cls-1" d="M73.89,106.22h.33c.2,0,.36-.16.36-.36h0"/>
        <path class="cls-1" d="M61.99,106.22h-.28c-7.11.05-14.21-.43-21.24-1.43"/>
        <line class="cls-1" x1="81.16" y1="93.14" x2="35.55" y2="93.14"/>
        <path class="cls-1" d="M33.56,103.55v-4.53c0-1.63.22-3.25.63-4.83.16-.61.72-1.04,1.36-1.04"/>
        <path class="cls-1" d="M33.56,103.55v.14c0,.09.06.18.15.22.43.19.88.34,1.34.46.48.12.95.24,1.43.33"/>
        <path class="cls-1" d="M10.28,62.73l-.02.19c-.05.48-.07.96-.08,1.44-.07,4.76.16,9.51.69,14.24.94,8.28,2.95,16.4,5.98,24.15.41,1.03.98,1.98,1.71,2.82.77.89,1.66,1.68,2.62,2.35.31.22.65.41,1,.55.41.17.84.28,1.28.31h2.55c.23,0,.44-.15.52-.37.53-1.42,1.07-2.84,1.59-4.26"/>
        <path class="cls-1" d="M33.56,103.38h-4.32c-.5,0-.94.31-1.11.79"/>
        <path class="cls-1" d="M16.9,117.97h13.77c.45,0,.89-.08,1.32-.24.36-.14.72-.3,1.05-.5.21-.12.38-.29.5-.5"/>
        <path class="cls-1" d="M16.9,117.97h-.8c-.33,0-.66-.04-.99-.13-.5-.13-.98-.32-1.43-.57-.18-.1-.33-.24-.43-.42"/>
        <path class="cls-1" d="M25.94,110.27h-2.92c-.52,0-1.02-.14-1.46-.41-2.14-1.31-4.06-2.96-5.68-4.88-1.19-1.41-2.14-2.99-2.83-4.7-.3-.76-.56-1.54-.76-2.34-.68-2.68-1.36-5.36-2.05-8.04"/>
        <path class="cls-1" d="M25.94,110.27h.41c.16,0,.3-.13.3-.29,0,0,0,0,0-.01v-.88c0-.16-.13-.3-.3-.3h-.34"/>
        <path class="cls-1" d="M21.66,108.23c.22-1.46.8-2.84,1.69-4.01.82-1.06,2.07-1.71,3.41-1.75.56-.02,1.13.03,1.68.15,1.68.39,3.39.6,5.1.63"/>
        <path class="cls-1" d="M81.16,8.74h-29c-1.36,0-2.73-.05-4.09-.14-1-.07-1.95-.5-2.66-1.22-.38-.38-.61-.88-.68-1.41-.03-.29-.05-.59-.05-.89"/>
        <path class="cls-1" d="M9.73,66.56v5.13c0,1.22.03,2.43.08,3.65.38,8.41,2.02,16.72,4.87,24.64.25.68.56,1.33.94,1.94,1.08,1.73,2.39,3.31,3.91,4.68"/>
        <path class="cls-1" d="M9.73,66.56v-2.23c0-.29-.24-.53-.53-.53-.16,0-.3.07-.4.18"/>
        <line class="cls-1" x1="28.55" y1="48.26" x2="28.55" y2="86.37"/>
        <path class="cls-1" d="M81.16,89.67h-49.09c-.45,0-.89-.16-1.23-.46-.64-.56-1.25-1.15-1.84-1.77-.28-.29-.45-.67-.46-1.07"/>
        <line class="cls-1" x1="81.16" y1="43.76" x2="35.74" y2="43.76"/>
        <path class="cls-1" d="M81.16,12.52h-42.69c-1.6,0-3.02,1-3.55,2.51-1.97,6.32-3.65,12.72-5.06,19.19-.34,1.58,0,3.24.95,4.55,1.04,1.44,2.13,2.85,3.25,4.22.41.5,1.03.78,1.67.77"/>
        <path class="cls-1" d="M36.33,13.98c-.23.42-.43.86-.59,1.32-1.96,6.29-3.64,12.66-5.04,19.1-.29,1.35,0,2.75.81,3.87,1.03,1.42,2.11,2.82,3.22,4.18.07.09.15.16.24.22"/>
        <path class="cls-1" d="M28.55,48.26v-.77c0-.99-.2-1.96-.58-2.87-.44-1.05-1.49-1.72-2.63-1.69h-4.18c-1.12.07-2.16.58-2.89,1.42-.41.45-.85.89-1.29,1.31"/>
        <path class="cls-1" d="M16.23,49.84c-.17.8-.27,1.62-.31,2.44-.2,4-.07,8.01.39,11.98.03.23.15.44.33.58.49.37,1.09.58,1.71.6h9.37"/>
        <path class="cls-1" d="M81.16,72.09h-39.1c-4.5,0-9.01-.09-13.51-.26"/>
        <path class="cls-1" d="M21.15,42.93c2.01-6.97,4.22-13.87,6.62-20.7.86-2.43,1.73-4.86,2.61-7.28.7-1.92,1.51-3.79,2.43-5.62.75-1.49,2.02-2.66,3.57-3.26"/>
        <line class="cls-1" x1="75.2" y1="48.03" x2="60.18" y2="48.03"/>
        <line class="cls-1" x1="52.1" y1="48.03" x2="28.55" y2="48.03"/>
        <line class="cls-1" x1="49.34" y1="70.27" x2="53.22" y2="70.27"/>
        <path class="cls-1" d="M81.16,58.4h-17.23c-1.51,0-2.92.76-3.75,2.02-2.09,3.18-4.21,6.35-6.34,9.51-.15.21-.38.34-.64.34"/>
        <path class="cls-1" d="M60.18,48.03h-.41c-.32,0-.62.11-.86.31-2.46,2.36-4.78,4.87-6.94,7.51-.86,1.06-1.47,2.3-1.78,3.63-.58,2.49-.88,5.04-.9,7.59,0,1.04-.02,2.08-.03,3.12,0,.04.03.07.07.07"/>
        <path class="cls-1" d="M52.1,48.03h.75s.08.02.11.04c.07.06.07.16.01.23-1.68,1.83-3.35,3.66-5.02,5.5-1.97,2.17-3.25,4.87-3.67,7.77-.25,1.69-.4,3.39-.45,5.09,0,.09.03.17.1.22,1.63,1.36,3.44,2.5,5.37,3.37"/>
        <line class="cls-1" x1="43.82" y1="66.68" x2="28.55" y2="66.06"/>
        <path class="cls-1" d="M75.16,49.7h-11.41c-1.54,0-3.01.67-4.02,1.84-1.26,1.45-2.48,2.93-3.68,4.43-1.11,1.39-1.78,3.07-1.94,4.85-.27,3.11-.45,6.24-.53,9.36"/>
        <path class="cls-1" d="M76.47,51.56h-12.73c-.89,0-1.74.39-2.33,1.06-1.04,1.21-2.06,2.43-3.06,3.66"/>
        <line class="cls-1" x1="81.16" y1="56.28" x2="55.81" y2="56.28"/>
        <line class="cls-1" x1="81.16" y1="13.98" x2="30.76" y2="13.98"/>
        <line class="cls-1" x1="35.92" y1="43.14" x2="42.08" y2="13.98"/>
        <line class="cls-1" x1="38.17" y1="34.23" x2="41.68" y2="17.6"/>
        <line class="cls-1" x1="35.14" y1="42.7" x2="41.2" y2="13.98"/>
        <path class="cls-1" d="M35.92,43.14l-.1.47c-.02.08-.09.14-.17.15"/>
        <path class="cls-1" d="M34.97,42.67l.09.06s.06.01.08-.01c0,0,0-.01,0-.02"/>
        <line class="cls-1" x1="81.16" y1="41.79" x2="36.21" y2="41.79"/>
        <path class="cls-1" d="M81.16,15.02h-36.19c-1.56,0-2.92,1.06-3.3,2.58"/>
        <path class="cls-1" d="M38.17,34.23l-.15.7c-.23,1.1-.26,2.23-.1,3.34.09.59.33,1.15.7,1.62.35.44.75.84,1.2,1.18.57.42,1.24.67,1.95.72"/>
        <path class="cls-1" d="M36.4,6.11l-.23.6c-.16.41-.34.81-.56,1.2-.68,1.27-1.47,2.46-2.37,3.59-.66.82-1.39,1.59-2.19,2.27-.18.15-.32.34-.42.55"/>
        <path class="cls-1" d="M81.16,10.45h-46.85c-.16,0-.31.07-.41.19"/>
        <line class="cls-1" x1="71.31" y1="10.45" x2="71.31" y2="12.52"/>
        <path class="cls-1" d="M81.16,91.52h-47.18c-1.88,0-3.67-.81-4.91-2.22-.16-.19-.33-.37-.51-.54-.07-.07-.17-.11-.26-.12h-10.11s-.05.02-.05.05c-.15,1.93.14,3.88.84,5.69.37.94,1.14,1.67,2.1,1.97,2.15.69,4.3,1.36,6.46,2.01,1.96.59,3.98.96,6.02,1.08"/>
        <path class="cls-1" d="M15.51,96.41l1.07-3.14c.22-.64.33-1.3.34-1.97.03-1.67.07-3.34.1-5.02,0-.24.2-.43.43-.45h10.86"/>
        <path class="cls-1" d="M15.07,96.26l1.07-3.15c.2-.59.31-1.21.32-1.83.03-1.58.06-3.16.1-4.73"/>
        <line class="cls-1" x1="18.16" y1="88.66" x2="17.16" y2="85.97"/>
        <path class="cls-1" d="M15.51,96.41l-.2.6c-.15.43-.16.9-.06,1.35"/>
        <path class="cls-1" d="M28.44,88.68v-2.73c0-.06-.05-.12-.12-.12"/>
        <path class="cls-1" d="M28.83,87.22l-.09-.13c-.07-.1-.13-.21-.17-.33-.01-.04-.02-.07-.03-.11-.01-.09-.03-.18-.04-.27-.01-.14-.03-.29-.05-.44"/>
        <line class="cls-1" x1="81.16" y1="102.97" x2="78.54" y2="102.97"/>
        <path class="cls-1" d="M78.47,105.59v-2.54s.03-.07.07-.08"/>
        <path class="cls-1" d="M78.47,105.59v2.54s.03.08.07.08"/>
        <path class="cls-1" d="M74.58,102.46l1.4,2.67c.58,1.1,1.33,2.09,2.24,2.94.09.08.2.13.32.13"/>
        <line class="cls-1" x1="74.54" y1="106.04" x2="76.51" y2="106.04"/>
        <line class="cls-1" x1="81.16" y1="104.2" x2="79.9" y2="104.2"/>
        <path class="cls-1" d="M79.83,105.59v-1.31s.03-.07.07-.08"/>
        <line class="cls-1" x1="81.16" y1="106.97" x2="79.9" y2="106.97"/>
        <path class="cls-1" d="M79.83,105.59v1.31s.03.07.07.08"/>
        <line class="cls-1" x1="27.82" y1="50.82" x2="27.82" y2="63.4"/>
        <path class="cls-1" d="M27.82,65.45v10.31c0,3.4.21,6.8.62,10.18"/>
        <path class="cls-1" d="M15.07,96.26l-.17.51c-.05.14-.06.29-.02.44"/>
        <path class="cls-1" d="M16.56,86.55v-.22c0-.28.24-.5.51-.5h.39"/>
        <path class="cls-1" d="M14.6,62.21l.17,10.88c.09,5.46.5,10.91,1.23,16.33.09.64.24,1.26.46,1.86"/>
        <line class="cls-1" x1="14.75" y1="71.73" x2="27.82" y2="71.73"/>
        <path class="cls-1" d="M8.14,72.97c1.01,0,2.02-.03,3.02-.09.55-.03,1.09-.18,1.58-.42.63-.31,1-.97.96-1.68-.08-1.05-.03-2.11.14-3.15.13-.8.2-1.6.23-2.41.03-.96.09-1.92.18-2.87.04-.41.15-.82.34-1.19"/>
        <path class="cls-1" d="M27.04,63.66h-8.03c-.76,0-1.48-.35-1.95-.94-.62-.77-1.01-1.71-1.12-2.7"/>
        <path class="cls-1" d="M27.72,65.45h.34c.25,0,.47-.19.49-.45"/>
        <path class="cls-1" d="M27.04,63.66h.5c.15,0,.27-.12.28-.26"/>
        <path class="cls-1" d="M21.87,46.34h-4.39c-.21,0-.39.15-.43.35-.21,1.06-.21,2.16,0,3.21.03.16.16.27.32.28h4.5"/>
        <path class="cls-1" d="M21.87,45.55h-4.39c-.58,0-1.09.41-1.2.98-.23,1.16-.23,2.36,0,3.53.11.52.55.9,1.08.91h4.52"/>
        <path class="cls-1" d="M21.87,46.34h5.3c.21,0,.39.15.43.35.21,1.06.21,2.16,0,3.21-.03.16-.16.27-.32.28h-5.4"/>
        <path class="cls-1" d="M21.87,45.55h5.3c.59,0,1.09.41,1.2.98.23,1.16.23,2.36,0,3.53-.1.52-.56.9-1.08.91h-5.42"/>
        <line class="cls-1" x1="18.41" y1="50.97" x2="18.41" y2="55.76"/>
        <path class="cls-1" d="M27.82,58.09h-6.97c-1.31,0-2.38-1.02-2.45-2.33"/>
        <path class="cls-1" d="M27.82,59.82h-6.97c-1.75,0-3.3-1.09-3.91-2.72"/>
        <path class="cls-1" d="M16.94,57.1l-.11-.34c-.23-.77-.37-1.56-.4-2.36-.05-1.52-.11-3.04-.19-4.56"/>
        <path class="cls-1" d="M14.6,62.21l-.02-1.5c-.01-.81-.11-1.62-.27-2.42-.41-1.96-.57-3.98-.45-5.98.04-.61-.07-1.21-.32-1.77"/>
        <line class="cls-1" x1="13.85" y1="52.32" x2="15.92" y2="52.29"/>
        <path class="cls-1" d="M14.6,61.92c.19.7.48,1.36.87,1.97.22.34.55.59.94.7"/>
        <line class="cls-1" x1="150.23" y1="113.91" x2="150.23" y2="125.85"/>
        <line class="cls-1" x1="127.05" y1="110.51" x2="127.05" y2="125.86"/>
        <path class="cls-1" d="M135.44,140.69h2.57c.07-.01.11-.07.12-.13,0-.12.04-.23.11-.33.08-.09.2-.14.32-.14h.16c.12,0,.24.05.32.14.07.1.11.21.11.33,0,.07.05.12.12.13h2.96c.13,0,.23-.12.22-.25,0-.07.02-.15.05-.22.03-.06.08-.11.14-.15.08-.04.16-.07.25-.09.14-.03.29.04.36.16l.2.36c.04.07.12.12.21.11.83-.1,1.65-.28,2.45-.54,1.59-.48,2.77-1.79,3.08-3.42.69-3.56,1.04-7.17,1.05-10.8"/>
        <path class="cls-1" d="M142.44,140.45c.24-6.37.41-12.75.51-19.12"/>
        <line class="cls-1" x1="139.14" y1="140.56" x2="139.14" y2="121.32"/>
        <line class="cls-1" x1="138.12" y1="140.55" x2="138.12" y2="121.32"/>
        <path class="cls-1" d="M143.44,140.5c.16-6.39.26-12.78.33-19.18"/>
        <path class="cls-1" d="M150.06,114.41s.02.04.02.06v.29s-.02.07-.05.07c-.04,0-.08.02-.12.02"/>
        <path class="cls-1" d="M148.89,117.27c.34.04.68.08,1.02.14.04,0,.07.03.07.07v.23s-.02.07-.06.07c-.45.11-.92.17-1.38.18"/>
        <path class="cls-1" d="M142.93,122.24l-1.78-.46s-.05,0-.06.04c0,.02,0,.04.03.06.12.07.24.12.37.17.48.19.96.37,1.43.54"/>
        <path class="cls-1" d="M142.89,125.1l-1.86-.43s-.05.01-.06.04c0,.02,0,.05.02.06.14.06.28.1.43.14.49.19.97.37,1.46.55"/>
        <path class="cls-1" d="M135.44,140.69c-.11,0-.2-.09-.22-.2-.02-.11-.03-.22-.05-.33-.24-.17-.55-.17-.8-.01-.07.15-.11.3-.11.46-.02.05-.07.09-.12.08"/>
        <path class="cls-1" d="M134.14,140.69c-1.02,0-2.02-.21-2.95-.62-1.58-.48-2.77-1.79-3.08-3.42-.68-3.56-1.04-7.17-1.05-10.8"/>
        <path class="cls-1" d="M142.83,128.02l-1.86-.43s-.06.01-.06.04c0,.02,0,.05.02.06.14.06.28.11.43.14.49.14.97.28,1.46.4"/>
        <path class="cls-1" d="M142.78,130.42l-1.35-.22c-.05,0-.11,0-.17-.01-.03,0-.05.01-.05.04,0,.02.01.04.04.05l1.3.28c.08.02.16.03.24.03"/>
        <path class="cls-1" d="M142.71,132.76l-1.35-.22c-.06,0-.12,0-.17-.01-.03,0-.05.02-.05.04,0,.02.01.04.04.05l1.3.28c.07.01.15.03.23.03"/>
        <path class="cls-1" d="M142.65,134.84l-1.37-.18c-.06,0-.11,0-.17,0-.02,0-.05.02-.05.04,0,.02.01.05.04.05l1.32.24c.08.01.16.03.24.03"/>
        <path class="cls-1" d="M142.59,136.53c-.13-.08-.27-.12-.42-.12-.41-.04-.82-.07-1.22-.09-.02,0-.04.02-.04.03,0,.02.02.03.03.03.4.06.8.11,1.21.16.15.04.3.09.43.18"/>
        <path class="cls-1" d="M142.53,138.09c-.12-.07-.27-.12-.42-.12-.41-.04-.81-.07-1.22-.09-.02,0-.03.02-.03.04,0,.02.01.04.03.04.4.06.81.11,1.21.16.16.03.3.09.44.18"/>
        <path class="cls-1" d="M142.49,139.3c-.14-.02-.29-.05-.43-.07-.41-.04-.81-.07-1.22-.09-.02,0-.04.01-.04.03s.01.04.04.04c.4.06.8.11,1.2.16.15.02.3.06.44.09"/>
        <line class="cls-1" x1="138.12" y1="121.41" x2="137.77" y2="121.32"/>
        <path class="cls-1" d="M136.95,121.32c.39.15.78.29,1.16.43"/>
        <path class="cls-1" d="M138.08,124.27l-1.86-.43s-.05,0-.06.03c0,.02,0,.04.02.06.14.06.29.11.43.14.49.19.97.37,1.46.55"/>
        <path class="cls-1" d="M138.02,127.19l-1.86-.43s-.06,0-.06.04c0,.02,0,.04.02.05.14.06.29.11.43.14.48.15.97.28,1.47.4"/>
        <path class="cls-1" d="M138.12,129.86l-1.35-.22c-.06,0-.11,0-.17-.01-.02,0-.05.02-.05.04,0,.02.01.04.04.05l1.3.28c.08.02.16.03.23.04"/>
        <path class="cls-1" d="M138.12,132.25l-1.35-.23c-.06,0-.12,0-.17,0-.03,0-.05.01-.05.04,0,.02.01.04.04.05l1.53.33"/>
        <path class="cls-1" d="M138.12,134.32l-1.37-.18c-.06,0-.11,0-.17,0-.02,0-.05.01-.05.04,0,.02.02.04.03.05l1.56.27"/>
        <path class="cls-1" d="M138.12,136.09c-.13-.03-.27-.06-.4-.07-.41-.04-.82-.07-1.23-.09-.02,0-.04.02-.03.04,0,.01.01.03.03.03.4.06.8.11,1.2.16.15.04.29.09.42.17"/>
        <path class="cls-1" d="M138.12,137.52c-.13-.05-.28-.09-.42-.1-.41-.04-.81-.07-1.22-.09-.02,0-.04.02-.04.04,0,.02.01.03.03.03.4.06.8.11,1.21.16.16.02.3.07.44.15"/>
        <path class="cls-1" d="M138.12,138.74c-.14-.02-.28-.04-.43-.06-.41-.04-.81-.07-1.22-.09-.02,0-.04.02-.04.04,0,.02.01.03.03.03.4.06.8.11,1.21.16.15.02.3.04.45.07"/>
        <path class="cls-1" d="M138.12,139.75c-.14-.02-.28-.04-.43-.05-.41-.04-.81-.07-1.22-.09-.02,0-.04.02-.04.03,0,.02.01.04.03.04.4.05.8.11,1.21.16.15.01.3.03.45.05"/>
        <path class="cls-1" d="M146.34,120.96l1.13.11c.47.04.93,0,1.38-.11.37-.09.72-.23,1.06-.4.02-.02.04-.05.04-.08v-.21c0-.06-.06-.11-.12-.1,0,0,0,0,0,0-.59.09-1.2.14-1.8.15-.35,0-.7.02-1.05.03"/>
        <path class="cls-1" d="M139.14,122.43l1.84.85s.03.04.03.06c0,.03-.03.04-.06.04-.18-.04-.37-.09-.55-.15-.42-.15-.84-.3-1.26-.45"/>
        <path class="cls-1" d="M139.14,125.38l1.84.86s.03.03.03.06c0,.03-.03.04-.06.04-.18-.04-.37-.09-.55-.15-.42-.15-.84-.3-1.26-.45"/>
        <path class="cls-1" d="M139.14,128.05l1.84.86s.03.04.03.05c0,.03-.03.04-.06.04-.18-.04-.37-.09-.55-.15-.42-.15-.84-.3-1.26-.45"/>
        <path class="cls-1" d="M139.14,130.75l1.86.7s.03.03.03.05c0,.03-.03.05-.06.04-.27,0-.55-.06-.81-.15-.34-.12-.68-.25-1.03-.37"/>
        <path class="cls-1" d="M139.14,132.85l1.86.7s.03.03.03.05c0,.02-.03.04-.06.04-.27,0-.55-.06-.81-.15-.34-.12-.68-.24-1.03-.37"/>
        <path class="cls-1" d="M139.14,135.06l1.9.48s.04.03.04.05c0,.03-.03.05-.05.05-.27.02-.55,0-.82-.06-.35-.08-.71-.16-1.06-.25"/>
        <path class="cls-1" d="M139.14,136.69l1.7.43s.04.03.03.05c0,.03-.03.05-.05.05-.28.02-.55,0-.82-.06-.29-.07-.58-.14-.87-.2"/>
        <path class="cls-1" d="M139.14,138.08l1.9.48s.04.03.04.05c0,.03-.03.05-.05.04-.63-.07-1.26-.18-1.88-.31"/>
        <path class="cls-1" d="M139.14,139.21l1.71.39s.02.01.02.03c0,.02-.02.04-.04.05-.57-.05-1.14-.14-1.7-.26"/>
        <path class="cls-1" d="M149.9,123.1c-.01.07-.04.12-.09.17-.18.17-.38.31-.6.4-.35.16-.74.26-1.12.28-.69.03-1.38.03-2.07,0l-.89-.05c-.09-.01-.18-.04-.25-.07-.09-.12-.07-.28.05-.37.66,0,1.32-.02,1.98-.06.44-.03.87-.08,1.3-.15.41-.07.83-.16,1.23-.28l.36-.11c.05,0,.1.03.12.08"/>
        <line class="cls-1" x1="135.17" y1="140.16" x2="135.19" y2="121.32"/>
        <line class="cls-1" x1="134.26" y1="140.61" x2="134.26" y2="121.32"/>
        <path class="cls-1" d="M149.71,125.5l-.62.32c-.29.15-.59.24-.9.29-.9.13-1.81.2-2.71.21-.24,0-.47.01-.71.03-.08,0-.15.07-.14.16,0,.04.02.08.05.11.06.05.14.08.22.08,1.02.04,2.05.03,3.07-.02.41-.02.82-.15,1.17-.38.19-.13.39-.25.59-.36.05-.03.08-.09.08-.15v-.21s-.02-.07-.06-.07c-.01,0-.02,0-.04,0Z"/>
        <path class="cls-1" d="M127.94,114.62c-.12-.03-.24-.06-.36-.09-.04,0-.08.02-.09.07h0s0,.08.01.11c0,.02.02.04.04.05.19.11.38.21.57.31"/>
        <path class="cls-1" d="M129.48,118.16c-.64-.16-1.27-.32-1.91-.48-.04,0-.08.02-.09.06,0,0,0,0,0,.01,0,.04,0,.07.02.1,0,.02.02.04.04.06.09.07.19.12.29.15.69.36,1.4.68,2.13.95"/>
        <path class="cls-1" d="M134.26,122.47c-2.08-.38-4.11-.98-6.05-1.81-.21-.08-.4-.18-.58-.31-.03-.02-.08-.02-.1.01,0,0,0,0,0,.01-.01.02-.02.05-.02.07,0,.04.02.09.05.12,1.94,1.5,4.27,2.41,6.71,2.61"/>
        <path class="cls-1" d="M134.26,125.38c-1.98-.32-3.9-.91-5.71-1.77-.32-.12-.63-.3-.91-.5-.03-.02-.08-.02-.1.02,0,0,0,.02,0,.02,0,.02-.01.05-.02.07-.01.05,0,.09.04.12,1.89,1.61,4.24,2.56,6.71,2.72"/>
        <path class="cls-1" d="M134.26,128.1c-1.98-.36-3.9-1-5.71-1.9-.31-.15-.62-.32-.91-.5-.04-.03-.09-.03-.13,0-.01.04,0,.09.04.11,1.87,1.68,4.22,2.71,6.71,2.96"/>
        <path class="cls-1" d="M134.26,130.68c-2.04-.29-4-1-5.76-2.09-.24-.13-.45-.3-.61-.52-.02-.03-.06-.03-.08-.01-.02.01-.02.03-.02.04,0,.06.02.12.05.17.23.34.51.65.82.91.58.48,1.24.86,1.95,1.1,1.05.46,2.16.78,3.29.95.12.01.24.02.35.04"/>
        <path class="cls-1" d="M134.26,132.96c-1.98-.3-3.88-1.01-5.58-2.07-.24-.13-.45-.31-.61-.52-.02-.02-.05-.03-.08,0-.01.01-.02.03-.02.04,0,.06.02.12.05.17.23.34.51.65.82.91.58.48,1.24.86,1.95,1.1,1.05.46,2.16.78,3.29.95.06,0,.12.02.18.02"/>
        <path class="cls-1" d="M134.26,135.02c-1.77-.25-3.48-.85-5.01-1.78-.44-.25-.81-.59-1.1-1-.02-.02-.05-.03-.08-.01-.01.01-.02.03-.02.05.07.18.17.35.29.5.55.65,1.25,1.15,2.04,1.47,1.2.66,2.52,1.07,3.89,1.21"/>
        <path class="cls-1" d="M134.26,136.69c-1.77-.25-3.48-.85-5.01-1.78-.45-.3-.82-.68-1.11-1.13-.02-.03-.06-.03-.08-.01-.01.01-.02.03-.02.04.07.18.17.35.29.5.55.69,1.25,1.24,2.05,1.61,1.2.66,2.52,1.07,3.89,1.21"/>
        <path class="cls-1" d="M134.26,138.08c-1.34-.15-2.65-.54-3.86-1.12-.82-.35-1.53-.94-2.03-1.68-.02-.02-.06-.03-.08,0-.01,0-.02.03-.02.04.07.18.17.35.28.5.47.65,1.09,1.16,1.82,1.49,1.19.67,2.52,1.07,3.89,1.17"/>
        <path class="cls-1" d="M134.26,139.23c-1.35-.16-2.65-.55-3.86-1.15-.79-.36-1.48-.92-1.98-1.63-.02-.02-.04-.02-.06,0-.01.02-.02.03,0,.05.45.83,1.16,1.49,2.02,1.88,1.19.67,2.52,1.07,3.89,1.17"/>
        <path class="cls-1" d="M134.26,139.98c-1.34-.11-2.65-.49-3.84-1.12-.64-.31-1.21-.73-1.7-1.25-.02-.02-.04-.02-.06,0-.01.01-.02.03-.01.05.43.57.99,1.02,1.63,1.34,1.23.69,2.58,1.1,3.98,1.23"/>
        <path class="cls-1" d="M138.12,140.37l-1.71-.08s-.04.02-.05.04c0,.02.02.04.04.04.57.04,1.14.09,1.71.13"/>
        <path class="cls-1" d="M149.7,128.05s-.03-.07-.07-.08c-.02,0-.03,0-.04.01-.45.31-.96.5-1.49.59-1.07.17-2.14.29-3.22.37-.11,0-.21.09-.24.19-.02.06.01.12.07.14,1.28.07,2.56-.06,3.8-.39.41-.11.79-.3,1.11-.57.05-.04.08-.1.08-.17v-.1"/>
        <path class="cls-1" d="M149.59,130.23s-.03-.07-.07-.07c-.02,0-.03,0-.05.01-.4.34-.87.58-1.37.71-1.05.29-2.13.46-3.22.51-.11,0-.21.09-.24.2-.02.06.01.12.07.14,1.29-.07,2.56-.28,3.8-.64.34-.14.65-.33.95-.55.06-.05.1-.12.12-.2v-.1"/>
        <path class="cls-1" d="M149.46,132.21s-.03-.07-.07-.07c-.02,0-.03,0-.05.01-.35.36-.78.63-1.25.79-1.05.29-2.13.45-3.22.51-.11,0-.21.09-.24.2-.02.06.01.12.07.14,1.18-.06,2.35-.25,3.49-.56.43-.14.82-.39,1.13-.72.06-.05.1-.12.12-.2v-.1"/>
        <path class="cls-1" d="M149.35,133.84s-.03-.07-.07-.08c-.01,0-.03,0-.04.01-.34.49-.82.86-1.37,1.06-.97.27-1.97.45-2.98.52-.11,0-.21.09-.24.19-.02.06.01.12.07.14,1.09-.08,2.18-.27,3.23-.56.52-.18.96-.52,1.27-.97.06-.07.1-.14.12-.22v-.1"/>
        <path class="cls-1" d="M149.2,135.27s-.03-.07-.07-.08c-.02,0-.03,0-.05.02-.36.52-.87.93-1.46,1.18-.89.27-1.81.45-2.73.52-.11,0-.21.09-.25.19-.02.06.01.12.07.14,1.01-.08,2.01-.27,2.99-.57.52-.19.96-.54,1.27-1.01.11-.11.19-.25.23-.4"/>
        <path class="cls-1" d="M149.07,136.39s-.03-.05-.06-.05c-.02,0-.03.01-.04.03-.34.57-.86,1.02-1.47,1.29-.86.32-1.76.51-2.68.56-.11,0-.21.09-.25.2-.01.06.02.12.08.14,1-.05,1.99-.27,2.93-.63.69-.29,1.23-.84,1.5-1.53"/>
        <path class="cls-1" d="M148.66,137.62s-.01-.04-.03-.04c-.01,0-.02,0-.03.01-.3.46-.72.84-1.22,1.07-.87.32-1.78.48-2.7.49-.11,0-.2.07-.24.17-.01.04,0,.08.05.09,0,0,.01,0,.02,0,1,.01,2-.18,2.93-.56.53-.27.97-.7,1.23-1.23"/>
        <path class="cls-1" d="M82.73,4.15h4.57c10.42,0,20.84.33,31.23.98"/>
        <path class="cls-1" d="M125.86,5.65c1.66.19,3.13,1.19,3.9,2.68,5.47,10.55,9.88,21.61,13.17,33.03.17.59.46,1.13.85,1.6,1.66,1.96,3.1,4.09,4.3,6.36.32.6.67,1.18,1.05,1.75,1.3,1.93,2.11,4.14,2.36,6.45.19,1.74.38,3.47.55,5.21"/>
        <path class="cls-1" d="M146.08,45.99l9.43-.69c1.97-.14,3.87-.82,5.5-1.94.59-.41.94-1.07.96-1.79.03-1.43-.07-2.85-.3-4.26-.1-.58-.42-1.1-.9-1.44-1.31-.95-2.82-1.59-4.42-1.87-3.03-.53-6.1-.82-9.18-.87-.45,0-.9.08-1.32.24-1.01.39-1.72,1.31-1.82,2.39-.08.84-.08,1.68,0,2.52.11,1.51.25,3.02.44,4.53"/>
        <path class="cls-1" d="M147.52,45.19l7.94-.58c1.85-.14,3.62-.76,5.15-1.82.41-.28.65-.74.66-1.23.03-1.38-.07-2.76-.29-4.13-.07-.4-.29-.75-.62-.99-1.23-.88-2.64-1.48-4.13-1.75-3-.52-6.03-.81-9.07-.85-.36,0-.72.06-1.06.19-.77.29-1.3,1-1.38,1.82-.08.8-.08,1.6,0,2.39.1,1.5.25,3,.44,4.5"/>
        <line class="cls-1" x1="143.72" y1="42.89" x2="144.49" y2="42.83"/>
        <path class="cls-1" d="M152.09,89.9c.02-.08.04-.16.06-.24.74-3.15,1.25-6.35,1.56-9.57.36-3.86.56-7.74.6-11.61.02-1.62-.28-3.24-.88-4.75-.11-.27-.27-.51-.46-.73-.18-.19-.44-.31-.71-.31-.07,0-.14.01-.21.04"/>
        <path class="cls-1" d="M81.16,118.48h27.94c.44,0,.86-.23,1.09-.61.87-1.97,1.31-4.09,1.3-6.24"/>
        <line class="cls-1" x1="113.32" y1="107.88" x2="116.78" y2="107.88"/>
        <path class="cls-1" d="M150.13,52.81l.59-.03c.7-.04,1.3.47,1.39,1.16.04.3.01.59-.06.88-.11.42-.47.72-.9.75"/>
        <path class="cls-1" d="M119.2,105.14v1.41c0,.31-.18.6-.46.73-.61.28-1.25.48-1.91.59"/>
        <path class="cls-1" d="M139.32,121.32h5.88c.52,0,1.02-.21,1.39-.57.6-.59,1.11-1.26,1.52-1.99,1.07-1.89,1.89-3.91,2.46-6,.15-.57.24-1.15.28-1.73.25-4.45.52-8.9.79-13.35.14-2.59.29-5.19.46-7.78"/>
        <path class="cls-1" d="M150.9,110.14h1.06s.04,0,.06,0c.62.04,1.09.56,1.05,1.18v1.49c-.03.59-.53,1.04-1.11,1.01h-1.7"/>
        <line class="cls-1" x1="126.77" y1="105.75" x2="119.2" y2="105.75"/>
        <path class="cls-1" d="M81.16,110.34c10.59,0,19.17,1.03,19.17,2.29s-8.59,2.29-19.17,2.29"/>
        <path class="cls-1" d="M81.16,108.21h2.38c7.82,0,15.64.47,23.42,1.4,1.31.16,2.6.49,3.82.98.28.11.51.34.62.62.23.57-.05,1.23-.62,1.46-1.63.66-3.34,1.1-5.09,1.31-6.78.86-13.6,1.29-20.43,1.29"/>
        <path class="cls-1" d="M99.39,106.69c2.62.21,5.23.47,7.83.79,1.15.14,2.29.39,3.39.76"/>
        <line class="cls-1" x1="81.16" y1="115.27" x2="85.26" y2="115.27"/>
        <line class="cls-1" x1="81.16" y1="118.18" x2="107.65" y2="118.18"/>
        <path class="cls-1" d="M108.79,113.36v3.1c0,.41-.12.8-.36,1.13-.12.18-.27.34-.43.47-.1.08-.22.12-.34.12"/>
        <path class="cls-1" d="M110.61,108.24l.33.11c.41.14.69.52.71.96.03.77-.02,1.55-.15,2.32"/>
        <line class="cls-1" x1="111.65" y1="109.31" x2="111.65" y2="105.88"/>
        <path class="cls-1" d="M111.65,106.59h.7c.5.01.89.42.88.91v2.64c0,.13-.1.25-.24.25h-1.35"/>
        <path class="cls-1" d="M144.48,42.83l.02.14c.06.44.25.85.54,1.18.43.49.91.95,1.41,1.38.29.24.65.37,1.02.36"/>
        <path class="cls-1" d="M145.17,42.74l.02.14c.04.3.17.59.37.82.42.47.86.9,1.34,1.31.17.14.39.21.61.19"/>
        <path class="cls-1" d="M81.57,2.72V.76c0-.22-.18-.4-.4-.41"/>
        <path class="cls-1" d="M81.16,4.68h1.96s.07-.03.07-.07c0-.02,0-.03-.02-.05-.36-.36-.75-.69-1.16-1-.26-.2-.43-.51-.45-.84"/>
        <path class="cls-1" d="M124.35,1.34c-1.57-.27-3.17-.41-4.77-.4-.42,0-.78.32-.83.74-.13,1.14-.2,2.3-.22,3.45v.43c0,.09.05.17.13.2,2.32.29,4.64.49,6.97.6.16,0,.29-.11.3-.27,0-.02,0-.04,0-.06-.25-1.45-.62-2.88-1.12-4.27-.07-.21-.25-.36-.46-.42"/>
        <path class="cls-1" d="M139.32,121.32h-6.59c-.52,0-1.02-.21-1.39-.57-.6-.59-1.11-1.26-1.52-1.99-1.07-1.89-1.89-3.91-2.46-6-.15-.57-.25-1.15-.28-1.73-.12-2.17-.25-4.34-.38-6.51"/>
        <line class="cls-1" x1="99.06" y1="98" x2="99.06" y2="106.86"/>
        <line class="cls-1" x1="100.34" y1="106.19" x2="100.34" y2="98.22"/>
        <path class="cls-1" d="M97.03,106.9h1.77c.12,0,.23-.03.33-.08.39-.19.78-.39,1.17-.58.02-.01.04-.04.04-.06"/>
        <line class="cls-1" x1="95" y1="97.98" x2="95" y2="106.86"/>
        <path class="cls-1" d="M81.16,97.07h12.9c.51,0,.93.4.93.91"/>
        <line class="cls-1" x1="93.72" y1="106.19" x2="93.72" y2="98.22"/>
        <path class="cls-1" d="M81.16,97.67h11.98c.31,0,.56.25.57.55"/>
        <path class="cls-1" d="M97.03,106.9h-1.78c-.12,0-.23-.03-.33-.08-.39-.19-.78-.39-1.17-.58-.02-.01-.04-.04-.04-.06"/>
        <path class="cls-1" d="M112.89,97.07h-12.9c-.52,0-.93.41-.93.93"/>
        <path class="cls-1" d="M112.89,97.67h-11.98c-.31,0-.56.25-.57.55"/>
        <line class="cls-1" x1="123.13" y1="98.02" x2="123.13" y2="105.43"/>
        <line class="cls-1" x1="121.85" y1="104.76" x2="121.85" y2="98.22"/>
        <path class="cls-1" d="M123.58,105.47h-.19c-.12,0-.23-.02-.33-.07-.39-.2-.78-.39-1.17-.58-.02,0-.04-.03-.04-.05"/>
        <path class="cls-1" d="M112.89,97.07h9.32c.51,0,.92.43.91.95"/>
        <path class="cls-1" d="M112.89,97.67h8.38c.31,0,.56.25.57.55"/>
        <path class="cls-1" d="M81.16,94.24h43.79c.51,0,.93.41.93.92"/>
        <line class="cls-1" x1="125.88" y1="95.16" x2="125.88" y2="104.32"/>
        <path class="cls-1" d="M125.88,104.32v.23c0,.1-.05.2-.13.27-.14.11-.29.21-.46.27-.55.22-1.12.35-1.71.38"/>
        <line class="cls-1" x1="93.73" y1="106.22" x2="88.44" y2="106.22"/>
        <line class="cls-1" x1="81.16" y1="101.22" x2="87.23" y2="101.22"/>
        <path class="cls-1" d="M87.75,105.85v-4.12c0-.28-.23-.51-.51-.51"/>
        <path class="cls-1" d="M88.44,106.22h-.35c-.2,0-.35-.17-.34-.37"/>
        <path class="cls-1" d="M100.33,106.22h.28c7.11.05,14.21-.43,21.24-1.43"/>
        <line class="cls-1" x1="81.16" y1="93.14" x2="126.78" y2="93.14"/>
        <path class="cls-1" d="M128.76,103.55v-4.53c0-1.63-.21-3.25-.63-4.83-.16-.61-.72-1.04-1.35-1.04"/>
        <path class="cls-1" d="M128.76,103.55v.14c0,.09-.05.18-.14.22-.43.19-.88.34-1.34.46-.48.12-.96.24-1.43.33"/>
        <path class="cls-1" d="M152.05,62.73l.02.19c.05.48.08.96.09,1.44.08,4.76-.16,9.51-.69,14.24-.93,8.28-2.95,16.4-5.98,24.15-.41,1.03-.98,1.98-1.71,2.82-.77.89-1.66,1.68-2.62,2.35-.31.22-.65.41-1,.55-.41.17-.84.28-1.28.31h-2.55c-.23,0-.44-.15-.52-.37-.54-1.42-1.07-2.84-1.59-4.26"/>
        <path class="cls-1" d="M128.76,103.38h4.33c.5,0,.94.31,1.11.79"/>
        <path class="cls-1" d="M145.42,117.97h-13.77c-.45,0-.89-.08-1.32-.24-.36-.14-.71-.3-1.04-.5-.21-.12-.38-.29-.51-.5"/>
        <path class="cls-1" d="M145.42,117.97h.81c.33,0,.67-.04.99-.13.5-.13.98-.32,1.44-.57.18-.1.33-.24.43-.42"/>
        <path class="cls-1" d="M136.38,110.27h2.92c.52,0,1.02-.14,1.47-.41,2.14-1.31,4.06-2.96,5.68-4.88,1.19-1.41,2.14-2.99,2.83-4.7.31-.76.56-1.54.76-2.34.68-2.68,1.36-5.36,2.05-8.04"/>
        <path class="cls-1" d="M136.38,110.27h-.43c-.16,0-.29-.14-.28-.31v-.88c0-.16.14-.3.3-.3h.34"/>
        <path class="cls-1" d="M140.66,108.23c-.21-1.46-.8-2.84-1.7-4.01-.82-1.06-2.07-1.71-3.41-1.75-.57-.02-1.13.03-1.68.15-1.68.39-3.39.6-5.11.63"/>
        <path class="cls-1" d="M81.16,8.74h29c1.36,0,2.73-.05,4.09-.14,1.01-.07,1.95-.5,2.66-1.22.38-.38.62-.88.69-1.41.04-.29.05-.59.05-.89"/>
        <path class="cls-1" d="M152.6,66.56v5.13c0,1.22-.03,2.43-.08,3.65-.38,8.41-2.02,16.72-4.87,24.64-.25.68-.57,1.33-.95,1.94-1.08,1.73-2.39,3.31-3.91,4.68"/>
        <path class="cls-1" d="M152.6,66.56v-2.23c0-.15.07-.3.18-.4.22-.19.55-.17.74.05"/>
        <line class="cls-1" x1="133.78" y1="48.26" x2="133.78" y2="86.37"/>
        <path class="cls-1" d="M81.16,89.67h49.09c.45,0,.89-.16,1.23-.46.63-.56,1.25-1.15,1.84-1.77.28-.29.44-.67.46-1.07"/>
        <line class="cls-1" x1="81.16" y1="43.76" x2="126.59" y2="43.76"/>
        <path class="cls-1" d="M81.16,12.52h42.69c1.59,0,3.02,1,3.54,2.51,1.97,6.32,3.66,12.72,5.06,19.19.34,1.58,0,3.24-.95,4.55-1.04,1.44-2.12,2.85-3.25,4.22-.41.5-1.02.78-1.67.77"/>
        <path class="cls-1" d="M126,13.98c.23.42.43.86.59,1.32,1.96,6.29,3.64,12.66,5.03,19.1.29,1.35,0,2.75-.81,3.87-1.03,1.42-2.1,2.82-3.22,4.18-.07.09-.15.16-.24.22"/>
        <path class="cls-1" d="M133.78,48.26v-.77c0-.99.2-1.96.59-2.87.45-1.05,1.49-1.72,2.63-1.69h4.18c1.11.07,2.16.58,2.89,1.42.41.45.85.89,1.29,1.31"/>
        <path class="cls-1" d="M146.09,49.84c.17.8.27,1.62.32,2.44.2,4,.07,8.01-.39,11.98-.03.23-.15.44-.33.58-.49.37-1.09.58-1.71.6h-9.37"/>
        <path class="cls-1" d="M81.16,72.09h39.1c4.5,0,9.01-.09,13.51-.26"/>
        <path class="cls-1" d="M141.18,42.93c-2.01-6.97-4.22-13.87-6.63-20.7-.86-2.43-1.73-4.86-2.61-7.28-.7-1.92-1.51-3.79-2.43-5.62-.75-1.49-2.02-2.66-3.58-3.26"/>
        <line class="cls-1" x1="87.13" y1="48.03" x2="102.14" y2="48.03"/>
        <line class="cls-1" x1="110.23" y1="48.03" x2="133.78" y2="48.03"/>
        <line class="cls-1" x1="112.99" y1="70.27" x2="109.11" y2="70.27"/>
        <path class="cls-1" d="M81.16,58.4h17.23c1.51,0,2.92.76,3.75,2.02,2.09,3.18,4.21,6.35,6.34,9.51.14.21.38.34.64.34"/>
        <path class="cls-1" d="M102.14,48.03h.42c.31,0,.62.11.86.31,2.46,2.36,4.78,4.87,6.93,7.51.86,1.06,1.47,2.3,1.78,3.63.58,2.49.88,5.04.89,7.59,0,1.04.02,2.08.04,3.12,0,.04-.04.07-.07.07"/>
        <path class="cls-1" d="M110.23,48.03h-.75c-.09,0-.16.07-.16.16,0,.04.02.08.04.11,1.68,1.83,3.35,3.66,5.02,5.5,1.97,2.17,3.25,4.87,3.67,7.77.25,1.69.4,3.39.45,5.09,0,.09-.03.17-.1.22-1.63,1.36-3.44,2.5-5.37,3.37"/>
        <line class="cls-1" x1="118.5" y1="66.68" x2="133.78" y2="66.06"/>
        <path class="cls-1" d="M87.17,49.7h11.41c1.54,0,3.01.67,4.02,1.84,1.25,1.45,2.48,2.93,3.68,4.43,1.11,1.39,1.79,3.07,1.95,4.85.27,3.11.44,6.24.53,9.36"/>
        <path class="cls-1" d="M85.85,51.56h12.73c.89,0,1.74.39,2.33,1.06,1.04,1.21,2.05,2.43,3.05,3.66"/>
        <line class="cls-1" x1="81.16" y1="56.28" x2="106.52" y2="56.28"/>
        <line class="cls-1" x1="81.16" y1="13.98" x2="131.57" y2="13.98"/>
        <line class="cls-1" x1="126.41" y1="43.14" x2="120.25" y2="13.98"/>
        <line class="cls-1" x1="124.16" y1="34.23" x2="120.65" y2="17.6"/>
        <line class="cls-1" x1="127.19" y1="42.7" x2="121.12" y2="13.98"/>
        <path class="cls-1" d="M126.41,43.14l.1.47c.02.08.09.14.17.15"/>
        <path class="cls-1" d="M127.36,42.67l-.08.06s-.01,0-.02,0c-.03,0-.06,0-.07-.03"/>
        <line class="cls-1" x1="81.16" y1="41.79" x2="126.12" y2="41.79"/>
        <path class="cls-1" d="M81.16,15.02h36.19c1.56,0,2.92,1.06,3.3,2.58"/>
        <path class="cls-1" d="M124.16,34.23l.15.7c.23,1.1.26,2.23.1,3.34-.09.59-.33,1.15-.69,1.62-.35.44-.75.84-1.21,1.18-.56.42-1.24.67-1.94.72"/>
        <path class="cls-1" d="M125.93,6.11l.23.6c.16.41.34.81.55,1.2.68,1.27,1.48,2.46,2.37,3.59.66.82,1.4,1.59,2.2,2.27.18.15.32.34.42.55"/>
        <path class="cls-1" d="M81.16,10.45h46.85c.16,0,.31.07.41.19"/>
        <line class="cls-1" x1="91.02" y1="10.45" x2="91.02" y2="12.52"/>
        <path class="cls-1" d="M81.16,91.52h47.18c1.88,0,3.67-.81,4.91-2.22.16-.19.34-.37.51-.54.07-.07.17-.11.26-.12h10.11s.05.02.05.05c.15,1.93-.14,3.88-.84,5.69-.36.94-1.14,1.67-2.1,1.97-2.15.69-4.3,1.36-6.46,2.01-1.96.59-3.98.96-6.02,1.08"/>
        <path class="cls-1" d="M146.82,96.41l-1.07-3.14c-.21-.64-.33-1.3-.35-1.97-.03-1.67-.07-3.34-.1-5.02,0-.24-.19-.43-.43-.45h-10.86"/>
        <path class="cls-1" d="M147.25,96.26l-1.07-3.15c-.2-.59-.31-1.21-.32-1.83-.03-1.58-.07-3.16-.1-4.73"/>
        <line class="cls-1" x1="144.17" y1="88.66" x2="145.17" y2="85.97"/>
        <path class="cls-1" d="M146.82,96.41l.21.6c.15.43.17.9.06,1.35"/>
        <path class="cls-1" d="M133.88,88.68v-2.73c0-.07.06-.12.12-.12"/>
        <path class="cls-1" d="M133.5,87.22l.09-.13c.07-.1.13-.21.17-.33.01-.04.02-.07.03-.11.01-.09.03-.18.04-.27.01-.14.03-.29.05-.44"/>
        <line class="cls-1" x1="81.16" y1="102.97" x2="83.79" y2="102.97"/>
        <path class="cls-1" d="M83.86,105.59v-2.54s-.03-.07-.07-.08"/>
        <path class="cls-1" d="M83.86,105.59v2.54s-.03.08-.07.08"/>
        <path class="cls-1" d="M87.75,102.46l-1.4,2.67c-.58,1.1-1.34,2.09-2.24,2.94-.09.08-.2.13-.32.13"/>
        <line class="cls-1" x1="87.79" y1="106.04" x2="85.81" y2="106.04"/>
        <line class="cls-1" x1="81.16" y1="104.2" x2="82.43" y2="104.2"/>
        <path class="cls-1" d="M82.5,105.59v-1.31s-.03-.07-.07-.08"/>
        <line class="cls-1" x1="81.16" y1="106.97" x2="82.43" y2="106.97"/>
        <path class="cls-1" d="M82.5,105.59v1.31s-.03.07-.07.08"/>
        <line class="cls-1" x1="134.51" y1="50.82" x2="134.51" y2="63.4"/>
        <path class="cls-1" d="M134.51,65.45v10.31c0,3.4-.21,6.8-.62,10.18"/>
        <path class="cls-1" d="M147.25,96.26l.18.51c.05.14.05.29.02.44"/>
        <path class="cls-1" d="M145.77,86.55v-.22c-.01-.28-.24-.5-.51-.5h-.39"/>
        <path class="cls-1" d="M147.72,62.21l-.17,10.88c-.09,5.46-.5,10.91-1.23,16.33-.09.64-.24,1.26-.46,1.86"/>
        <line class="cls-1" x1="147.57" y1="71.73" x2="134.51" y2="71.73"/>
        <path class="cls-1" d="M154.19,72.97c-1,0-2.01-.03-3.02-.09-.55-.03-1.09-.18-1.58-.42-.63-.31-1-.97-.96-1.68.08-1.05.03-2.11-.14-3.15-.13-.8-.21-1.6-.23-2.41-.03-.96-.09-1.92-.18-2.87-.04-.41-.15-.82-.34-1.19"/>
        <path class="cls-1" d="M135.29,63.66h8.03c.76,0,1.48-.35,1.95-.94.62-.77,1.01-1.71,1.12-2.7"/>
        <path class="cls-1" d="M134.6,65.45h-.34c-.25,0-.47-.19-.49-.45"/>
        <path class="cls-1" d="M135.29,63.66h-.5c-.15,0-.27-.12-.28-.26"/>
        <path class="cls-1" d="M140.45,46.34h4.4c.21,0,.39.15.43.35.21,1.06.21,2.16,0,3.21-.03.16-.17.27-.32.28h-4.5"/>
        <path class="cls-1" d="M140.45,45.55h4.4c.58,0,1.09.41,1.2.98.23,1.16.23,2.36,0,3.53-.11.52-.55.9-1.08.91h-4.52"/>
        <path class="cls-1" d="M140.45,46.34h-5.29c-.21,0-.39.15-.43.35-.21,1.06-.21,2.16,0,3.21.03.16.17.27.32.28h5.4"/>
        <path class="cls-1" d="M140.45,45.55h-5.29c-.59,0-1.09.41-1.2.98-.23,1.16-.23,2.36,0,3.53.1.52.55.9,1.08.91h5.41"/>
        <line class="cls-1" x1="143.92" y1="50.97" x2="143.92" y2="55.76"/>
        <path class="cls-1" d="M134.51,58.09h6.97c1.3,0,2.38-1.02,2.44-2.33"/>
        <path class="cls-1" d="M134.51,59.82h6.97c1.75,0,3.3-1.09,3.91-2.72"/>
        <path class="cls-1" d="M145.39,57.1l.11-.34c.23-.77.37-1.56.4-2.36.05-1.52.11-3.04.19-4.56"/>
        <path class="cls-1" d="M147.72,62.21l.02-1.5c.02-.81.11-1.62.28-2.42.42-1.96.57-3.98.45-5.98-.03-.61.08-1.21.32-1.77"/>
        <line class="cls-1" x1="148.47" y1="52.32" x2="146.41" y2="52.29"/>
        <path class="cls-1" d="M147.73,61.92c-.19.7-.48,1.36-.87,1.97-.22.34-.56.59-.95.7"/>
        <path class="cls-1" d="M119.79,109.09c0,1.05,1.23,1.9,2.75,1.9s2.75-.85,2.75-1.9-1.23-1.9-2.75-1.9-2.75.85-2.75,1.9Z"/>
        <line class="cls-1" x1="119.79" y1="109.09" x2="119.79" y2="105.75"/>
        <line class="cls-1" x1="125.28" y1="109.09" x2="125.28" y2="105.75"/>
        <line class="cls-1" x1="20" y1="59.73" x2="20" y2="63.66"/>
        <line class="cls-1" x1="22.72" y1="59.82" x2="22.72" y2="63.66"/>
        <line class="cls-1" x1="25.18" y1="59.82" x2="25.18" y2="63.66"/>
        <line class="cls-1" x1="142.32" y1="59.73" x2="142.32" y2="63.66"/>
        <line class="cls-1" x1="139.61" y1="59.82" x2="139.61" y2="63.66"/>
        <line class="cls-1" x1="137.15" y1="59.82" x2="137.15" y2="63.66"/>
        <path class="cls-1" d="M81.16,44.86c-3.38,0-6.12,1.82-6.12,4.08s2.74,4.07,6.12,4.07"/>
        <line class="cls-1" x1="81.16" y1="45.55" x2="81.15" y2="45.55"/>
        <path class="cls-1" d="M80.11,45.62c-1.17.17-2.21.63-2.93,1.29"/>
        <path class="cls-1" d="M76.6,47.61c-1.07,1.72.1,3.72,2.62,4.45.29.09.58.15.89.19"/>
        <line class="cls-1" x1="81.15" y1="52.33" x2="81.16" y2="52.33"/>
        <path class="cls-1" d="M76.6,47.61c.74.55,1.69.96,2.75,1.18"/>
        <path class="cls-1" d="M80.04,48.9c.37.05.75.07,1.12.07"/>
        <path class="cls-1" d="M77.18,46.91c.56.52,1.33.92,2.21,1.15"/>
        <path class="cls-1" d="M80.07,48.2c.36.06.73.09,1.09.09"/>
        <path class="cls-1" d="M80.11,45.62c-.36.59-.62,1.45-.71,2.44"/>
        <path class="cls-1" d="M79.36,48.79c-.02,1.36.26,2.66.75,3.46"/>
        <path class="cls-1" d="M81.16,45.54s-.02,0-.02,0c-.01,0-.03,0-.04.01-.02,0-.04.02-.07.04-.03.02-.06.05-.09.08-.04.03-.07.07-.11.12-.06.08-.12.17-.19.29-.06.11-.12.24-.18.39-.05.14-.11.31-.16.48-.05.18-.09.36-.12.55-.04.22-.07.45-.09.69"/>
        <path class="cls-1" d="M80.04,48.9c0,.19,0,.38.02.56.02.33.06.65.12.95.06.3.13.58.22.82.06.18.13.34.2.48.07.14.14.25.21.34.05.07.1.12.14.16s.08.07.11.08c.03.01.04.02.06.02.02,0,.03,0,.03,0h0"/>
        <path class="cls-1" d="M81.16,44.86c3.38,0,6.12,1.82,6.12,4.08s-2.74,4.07-6.12,4.07"/>
        <line class="cls-1" x1="81.16" y1="45.55" x2="81.18" y2="45.55"/>
        <path class="cls-1" d="M82.22,45.62c1.17.17,2.21.63,2.93,1.29"/>
        <path class="cls-1" d="M85.73,47.61c.12.2.21.4.28.61.58,1.83-1.11,3.64-3.79,4.04"/>
        <line class="cls-1" x1="81.18" y1="52.33" x2="81.16" y2="52.33"/>
        <path class="cls-1" d="M85.73,47.61c-.74.55-1.69.96-2.75,1.18"/>
        <path class="cls-1" d="M82.29,48.9c-.37.05-.75.07-1.12.07"/>
        <path class="cls-1" d="M85.14,46.91c-.56.52-1.33.92-2.21,1.15"/>
        <path class="cls-1" d="M82.26,48.2c-.36.06-.73.09-1.09.09"/>
        <path class="cls-1" d="M82.22,45.62c.36.59.62,1.45.71,2.44"/>
        <path class="cls-1" d="M82.97,48.79c.02,1.36-.26,2.66-.75,3.46"/>
        <path class="cls-1" d="M81.16,45.54s.02,0,.02,0c0,0,.02,0,.04.01.02,0,.04.02.07.04.02.02.06.05.09.08.04.03.07.07.11.12.06.08.12.17.19.29.06.11.12.24.18.39.06.14.11.31.16.48.05.18.09.36.12.55.04.22.07.45.09.69"/>
        <path class="cls-1" d="M82.29,48.9c0,.19,0,.38-.02.56-.02.33-.06.65-.12.95-.06.3-.13.58-.22.82-.06.18-.13.34-.2.48-.07.14-.14.25-.22.34-.05.07-.1.12-.14.16s-.08.07-.11.08c-.02.01-.04.02-.06.02-.02,0-.03,0-.04,0h0"/>
      </g>
    </g>
  </g>
</svg>